<svg xmlns="http://www.w3.org/2000/svg" xmlns:xlink="http://www.w3.org/1999/xlink" width="118" height="24" viewBox="0 0 118 24"><defs><path id="gf5wa" d="M616.373 1128.72h6.392v6.24h-6.392zm34.788 6.24h-28.285c.12-3.48 3.009-6.36 6.5-6.36h21.785zm-101.734 16.32H541.6l10.596-16.08 7.345.48zm46.106-16.32h-43.096l4.213-6.24h12.158v4.8c.723-2.88 3.25-4.92 6.26-4.92h20.465zm-33.223 16.44v-15.48l28.055 1.8c3.01 0 5.54 1.92 6.262 4.68v-7.2l6.381.36v7.92c0 .96.723 1.8 1.806 1.8h9.874c.963 0 1.806-.72 1.806-1.8v-7.32l6.382.36v8.52h21.432c.602 0 1.084-.48 1.084-1.08 0-.6-.482-1.08-1.084-1.08l-14.93-.96c-3.613-.48-5.9-2.76-6.382-5.4 6.863.36 13.606.72 20.47.96h1.203c3.613 0 6.502 3 6.502 6.48v.96c0 3.6-3.01 6.48-6.502 6.48h-22.034v-5.16c-.482 2.88-3.13 5.16-6.141 5.16h-13.727c-3.01 0-5.659-2.16-6.14-5.16-.603 2.88-3.251 5.16-6.382 5.16zm6.502-14.52v8.16h20.96c.603 0 1.085-.48 1.085-1.08 0-.6-.482-1.08-1.084-1.08l-14.697-.96c-3.373-.48-5.661-2.52-6.264-5.04zm34.076-2.04h-6.382v-6.24h6.261zm52.623-3.48c.242 0 .485 0 .606-.12.122-.12.122-.24.122-.36s0-.12-.122-.24c0-.12-.121-.12-.242-.12h-.97v.84zm-.968-1.32h.963c.361 0 .602 0 .723.12.12 0 .24.12.36.24.121.12.121.24.121.48s-.12.36-.24.6a.921.921 0 0 1-.603.24c.12 0 .241.12.241.12.12.12.241.36.482.6l.361.6h-.602l-.24-.48c-.242-.36-.362-.6-.482-.72s-.241-.12-.362-.12h-.24v1.2h-.482zm.118-.48c-.36.12-.601.48-.841.84s-.36.72-.36 1.2c0 .36.12.72.36 1.08.24.36.48.6.84.84.361.24.721.36 1.082.36.36 0 .84-.12 1.081-.36.36-.24.6-.48.841-.84.24-.36.24-.72.24-1.08 0-.36-.12-.72-.36-1.2-.24-.36-.48-.6-.841-.84-.24-.24-.6-.24-.961-.24-.36 0-.721.12-1.081.24zm2.41-.36c.482.24.843.6 1.084.96.24.48.361.84.361 1.32 0 .48-.12.96-.36 1.32-.242.48-.603.72-.964.96s-.843.36-1.325.36c-.481 0-.963-.12-1.324-.36-.482-.24-.723-.6-.963-.96-.241-.36-.362-.84-.362-1.32 0-.48.12-.96.362-1.32.24-.48.602-.84 1.083-.96.12-.24.602-.36 1.084-.36.482 0 .963.12 1.324.36z"/></defs><g><g transform="translate(-541 -1128)"><use fill="#090c02" xlink:href="#gf5wa"/></g></g></svg>