<svg xmlns="http://www.w3.org/2000/svg" xmlns:xlink="http://www.w3.org/1999/xlink" width="64" height="64" viewBox="0 0 64 64"><defs><path id="tdj7a" d="M1057.945 1021.33v10.416h-2.155v-4.204h-4.816v4.204h-2.154v-10.416h2.154v4.204h4.816v-4.204z"/><path id="tdj7b" d="M1067.837 1021.33h2.154v5.898c0 3.012-1.647 4.706-4.562 4.706-2.851 0-4.499-1.694-4.499-4.643v-5.961h2.154v5.898c0 1.757.888 2.698 2.408 2.698 1.521 0 2.408-.878 2.408-2.572l-.063-6.024z"/><path id="tdj7c" d="M1074.235 1029.552l-.063.126-.888 2.008h-2.154l4.626-10.416h1.837l.064.063 4.562 10.353h-2.218l-.95-2.196h-4.816zm.887-2.07l-.127.25h3.232l-.127-.25-1.52-3.514z"/><path id="tdj7d" d="M1094.887 1021.33h2.218l-3.675 10.416h-1.775l-2.408-6.84-2.408 6.84h-1.774l-3.675-10.416h2.281l2.345 7.153 2.408-7.153h1.71l2.408 7.153z"/><path id="tdj7e" d="M1100.911 1029.863h5.83v1.883h-7.921v-10.416h7.73v1.882h-5.639v2.134h3.865v1.882h-3.865v2.635z"/><path id="tdj7f" d="M1109.28 1021.33h2.091v10.416h-2.091z"/><path id="tdj7g" d="M1058.143 976.41s-4.88 4.58-5.133 9.475v.878c.19 3.953 3.232 6.274 3.232 6.274 4.816 4.644 16.538 10.542 19.263 11.86.063 0 .19.062.254-.063l.063-.063v-.126c-7.54-16-17.68-28.235-17.68-28.235z"/><path id="tdj7h" d="M1063.525 1015.18c2.534-.627 8.364-4.643 10.265-5.96.127-.126.127-.252.127-.252-.063-.188-.254-.188-.254-.188l-19.453.69c2.028 3.702 5.64 6.588 9.315 5.71z"/><path id="tdj7i" d="M1055.664 1006.588c1.837.753 3.738.815 3.738.815.317.063 11.596 0 14.638 0 .127 0 .19-.125.19-.125v-.188c0-.063-.063-.126-.063-.126-8.555-5.71-25.157-14.494-25.157-14.494-.38 1.192-.57 2.384-.57 3.388v.188c0 2.824 1.077 4.77 1.077 4.77 2.091 4.391 6.147 5.772 6.147 5.772z"/><path id="tdj7j" d="M1077.976 1003.393c.127.125.254.062.254.062.19-.062.19-.188.19-.25 2.788-27.734-2.915-35.075-2.915-35.075-.824.063-3.105.565-3.105.565-5.132 1.317-6.4 5.96-6.4 5.96a7.42 7.42 0 0 0-.38 2.322v1.067c.063 1.568.444 2.76.444 2.76 1.647 7.53 10.138 19.953 11.912 22.589z"/><path id="tdj7k" d="M1081.772 1003.2c0 .188.127.188.127.188.19.063.254-.125.254-.125 1.837-2.698 10.265-15.06 11.976-22.588 0 0 .95-3.64 0-6.15 0 0-1.268-4.705-6.464-5.96 0 0-1.52-.377-3.041-.565.127.125-5.64 7.467-2.852 35.2z"/><path id="tdj7l" d="M1106.043 1009.47l-19.517-.69s-.19 0-.19.125c0 0-.064.189.063.251 1.838 1.318 7.54 5.208 10.266 6.024 0 0 .443.125 1.14.188h.38c1.775-.063 4.943-.94 7.858-5.898z"/><path id="tdj7m" d="M1084.496 1004.645s-.064.189.063.314c0 0 .064 0 .127.063h.19c2.788-1.38 14.384-7.216 19.2-11.86 0 0 3.042-2.446 3.232-6.336.38-5.396-5.133-10.416-5.133-10.416-.127 0-10.265 12.173-17.68 28.235z"/><path id="tdj7n" d="M1086.087 1006.9s-.127.125-.127.25c0 0 .063.126.19.126 3.042 0 14.638 0 14.955-.063 0 0 1.52-.062 3.358-.753 0 0 4.119-1.317 6.273-5.96 0 0 1.901-3.765.444-8.22 0 .125-16.539 8.91-25.093 14.62z"/></defs><g><g transform="translate(-1048 -968)"><g><g><use fill="#090c02" xlink:href="#tdj7a"/></g><g><use fill="#090c02" xlink:href="#tdj7b"/></g><g><use fill="#090c02" xlink:href="#tdj7c"/></g><g><use fill="#090c02" xlink:href="#tdj7d"/></g><g><use fill="#090c02" xlink:href="#tdj7e"/></g><g><use fill="#090c02" xlink:href="#tdj7f"/></g></g><g><g><use fill="#090c02" xlink:href="#tdj7g"/></g><g><use fill="#090c02" xlink:href="#tdj7h"/></g><g><use fill="#090c02" xlink:href="#tdj7i"/></g><g><use fill="#090c02" xlink:href="#tdj7j"/></g><g><use fill="#090c02" xlink:href="#tdj7k"/></g><g><use fill="#090c02" xlink:href="#tdj7l"/></g><g><use fill="#090c02" xlink:href="#tdj7m"/></g><g><use fill="#090c02" xlink:href="#tdj7n"/></g></g></g></g></svg>