<svg xmlns="http://www.w3.org/2000/svg" xmlns:xlink="http://www.w3.org/1999/xlink" width="164" height="24" viewBox="0 0 164 24"><defs><path id="q95ba" d="M775.68 1128c-.218.669-7.181 23.108-7.293 23.502H758.05c.217-.676 7.18-23.115 7.285-23.502zm24.893 14.623l-18.544 4.118s-.184.892.492 1.35c.892.637 1.85.814 3.478.886 4.016.177 9.455-2.164 10.978-2.84-.243.774-1.811 4.19-1.884 4.368-.675.25-4.442 1.456-11.83 1.488-2.81.04-7.816-.32-9.876-2.911-1.03-1.279-1.208-3.089-.499-5.357 1.673-5.43 7.927-8.558 17.087-8.558 5.118 0 8.458.958 9.987 2.84.61.786.932 1.777.932 2.95 0 .748-.177 1.384-.321 1.666zm-8.925-3.79c-.387-.499-1.246-1.141-3.017-1.141-2.519 0-4.402 1.206-5.044 3.233l-1.24 4.655 9.767-4.583c.21-.997-.105-1.738-.466-2.164zm39.073.53l-3.944 12.178h-10.44l3.695-11.357c.137-.492-.04-.918-.322-1.24-.499-.61-1.568-.996-5.223-.747 0 0-4.33 13.167-4.403 13.344h-10.446c.098-.282 4.901-14.944 4.967-15.089 3.629-.636 8.425-1.239 13.4-1.239 6.751-.006 10.865.807 12.224 2.446.387.492.603.99.492 1.705zm29.806 3.975c-1.706 5.501-8.143 8.662-17.618 8.662-5.682 0-9.554-1.102-11.267-3.233-1.03-1.278-1.24-2.944-.636-4.937 1.739-5.502 8.17-8.663 17.658-8.663 5.676.007 9.547 1.135 11.253 3.266 1.037 1.285 1.247 2.911.61 4.905zm-10.909.492c.749-2.414.782-3.83.04-4.761-.5-.636-1.314-.958-2.45-.958-2.633 0-4.124 1.489-5.26 5.22-.782 2.446-.782 3.869-.04 4.794.493.61 1.32.924 2.45.924 2.627.007 4.124-1.456 5.26-5.22zm41.379-8.125c-.61.814-11.582 15.557-11.759 15.813h-15.486c-.072-.466-1.923-15.242-1.995-15.813h9.489c.065.466 1.384 11.082 1.384 11.082s8.13-10.872 8.275-11.082zm26.07 7.633c-1.706 5.501-8.138 8.662-17.663 8.662-5.684 0-9.55-1.102-11.263-3.233-1.03-1.278-1.202-2.944-.604-4.937 1.706-5.502 8.139-8.663 17.663-8.663 5.652.007 9.564 1.135 11.231 3.266 1.03 1.285 1.247 2.911.637 4.905zm-10.912.492c.75-2.414.75-3.83.033-4.761-.532-.636-1.313-.958-2.489-.958-2.626 0-4.084 1.489-5.253 5.22-.755 2.446-.755 3.869-.04 4.794.493.61 1.32.924 2.49.924 2.593.007 4.09-1.456 5.26-5.22zm12.392 4.832h-.962v2.525h-.494v-2.525h-.961v-.426h2.417zm3.421 2.525h-.495v-2.276h-.033l-.825 2.276h-.43l-.818-2.276v2.276h-.502v-2.95h.753l.825 2.307.78-2.308h.745z"/></defs><g><g transform="translate(-758 -1128)"><use fill="#090c02" xlink:href="#q95ba"/></g></g></svg>