<svg xmlns="http://www.w3.org/2000/svg" xmlns:xlink="http://www.w3.org/1999/xlink" width="100" height="48" viewBox="0 0 100 48"><defs><path id="8kewa" d="M1053.837 1163.943c13.14 0 23.837-10.712 23.837-23.942 0-13.229-10.64-23.941-23.837-23.941S1030 1126.772 1030 1140.001c0 13.23 10.698 23.942 23.837 23.942z"/><path id="8kewb" d="M1059.594 1148.43h-4.942v-18.79h-1.802v20.605h6.744z"/><path id="8kewc" d="M1071.921 1140.759h-12.267v-1.815h14.07v1.054c0 11.063-8.896 20.078-19.942 20.078-10.989 0-19.942-8.956-19.942-20.078s8.895-20.078 19.942-20.078h.872v1.815h-.872c-10 0-18.14 8.195-18.14 18.263 0 10.068 8.14 18.263 18.14 18.263 9.767 0 17.732-7.726 18.14-17.502z"/><path id="8kewd" d="M1046.39 1135.2c1.57 0 2.791-1.288 2.791-2.81a2.8 2.8 0 0 0-2.79-2.81c-1.57 0-2.791 1.288-2.791 2.81 0 1.58 1.22 2.81 2.79 2.81z"/><path id="8kewe" d="M1127.038 1129.753c-1.978-1.522-4.478-2.283-7.444-2.283-3.547 0-6.513 1.112-8.606 3.161-2.152 2.166-3.315 5.385-3.315 9.249 0 4.156 1.221 7.668 3.373 9.834 1.744 1.756 4.012 2.634 6.63 2.634 5.756 0 7.094-3.454 7.094-3.454v2.869h5.175v-13.405h-10.35v4.214h4.768s.058 5.269-4.885 5.269c-1.221 0-2.384-.469-3.198-1.347-1.338-1.346-2.036-3.629-2.036-6.556 0-4.858 1.92-7.785 5.118-7.785 2.035 0 3.489 1.23 3.896 3.102h6.629c-.29-2.634-1.047-4.097-2.85-5.502zm-37.558 22.01h17.04v-5.152h-10.817v-18.497h-6.223z"/></defs><g><g transform="translate(-1030 -1116)"><g><use fill="#090c02" xlink:href="#8kewa"/></g><g><use fill="#fff" xlink:href="#8kewb"/></g><g><use fill="#fff" xlink:href="#8kewc"/></g><g><use fill="#fff" xlink:href="#8kewd"/></g><g><use fill="#090c02" xlink:href="#8kewe"/></g></g></g></svg>