<svg xmlns="http://www.w3.org/2000/svg" xmlns:xlink="http://www.w3.org/1999/xlink" width="131" height="25" viewBox="0 0 131 25"><defs><path id="1r7ja" d="M641.64 1011.732c.914.623.981.623 10.763.589 11 0 11.236-.035 12.285-1.767.508-.83.542-1.35.542-11.497v-10.632h-4.535v9.523c0 8.485-.034 9.594-.44 10.044-.406.485-1.016.52-7.65.52-6.87 0-7.242-.035-7.75-.555-.508-.554-.541-.935-.541-10.043v-9.49h-4.536v10.39c0 11.567.034 11.671 1.862 12.918zm-28.6.208c.475.346 2.337.415 11.513.415h10.97v-3.948h-17.335l1.49-1.42c.812-.796 4.503-4.19 8.227-7.55 3.725-3.359 7.01-6.44 7.314-6.822.813-1.073.711-2.459-.237-3.428l-.779-.797h-21.535v3.879h16.964l-1.422 1.35a776.46 776.46 0 0 1-5.214 4.745c-9.549 8.623-10.565 9.593-10.87 10.563-.372 1.143 0 2.355.915 3.013zm-10.289.415h4.807V988.46h-4.807zm-27.075-.554c.846.52 1.388.554 11.41.554h10.531v-3.844H579.13l-.407-.623c-.304-.45-.406-1.282-.406-3.013v-2.424l9.176-.035 9.176-.07v-3.878l-9.176-.07-9.176-.069v-2.424c0-1.731.102-2.563.406-3.013l.407-.623h18.487v-3.879h-10.53c-10.023 0-10.564.035-11.411.554-.508.312-1.117.97-1.422 1.455-.508.865-.542 1.385-.542 9.974 0 8.588.034 9.143.542 9.974.305.52.948 1.143 1.422 1.454zm-40.344-10.32l-.102 10.874h4.67v-9.489c0-8.485.035-9.593.44-10.043.407-.45.948-.52 4.976-.52h4.535v20.087h4.57v-20.087h4.4c3.655 0 4.5.07 4.84.416.338.381.405 1.697.405 10.043v9.593h4.806v-10.25c0-9.49-.034-10.321-.507-11.395-.271-.692-.88-1.42-1.388-1.731-.88-.554-1.218-.554-15.197-.485l-14.282.07-2.031 2.077z"/></defs><g><g transform="translate(-535 -988)"><use fill="#090c02" xlink:href="#1r7ja"/></g></g></svg>