<svg xmlns="http://www.w3.org/2000/svg" xmlns:xlink="http://www.w3.org/1999/xlink" width="142" height="24" viewBox="0 0 142 24"><defs><path id="ufwpa" d="M889.269 1002.59h8.892l-4.446-8.454-4.446 8.455m13.429 9.09l-2.133-4.045h-13.837l-2.086 4.046h-7.894l12.702-23.273h8.892L911 1011.682h-8.302m-34.389-23.273h7.168v23.318h-7.168m-12.345-23.318h9.432l-12.742 10.91 14.33 12.363h-10.068l-13.05-12.127v-.019l12.098-11.127m-12.098 11.146v12.172h-7.132V988.41h7.132v11.127l-.01.01zm-19.336 6.536c1.542 0 2.132-.091 2.495-.455.363-.318.499-.727.499-2.09v-7.091c0-1.364-.136-1.773-.5-2.091-.362-.364-.906-.455-2.494-.455h-11.115c-1.543 0-2.133.091-2.496.455-.362.318-.499.727-.499 2.09v7.091c0 1.364.137 1.773.5 2.091.362.364.907.455 2.495.455h11.115m9.39-1.591c0 3.227-.589 4.364-1.496 5.41-1.452 1.59-3.539 2.09-7.622 2.09h-11.66c-4.083 0-6.17-.5-7.621-2.09-.953-1.092-1.497-2.183-1.497-5.41v-9c0-3.227.59-4.364 1.497-5.41 1.452-1.59 3.584-2.09 7.621-2.09h11.66c4.083 0 6.17.5 7.622 2.09.952 1.092 1.497 2.183 1.497 5.41v9m-58.07 7.182H769v-23.273h11.84l13.566 17.364v-17.364h6.805v23.318h-11.569L775.85 994v17.682"/></defs><g><g transform="translate(-769 -988)"><use fill="#090c02" xlink:href="#ufwpa"/></g></g></svg>