<svg xmlns="http://www.w3.org/2000/svg" xmlns:xlink="http://www.w3.org/1999/xlink" width="156" height="24" viewBox="0 0 156 24"><defs><path id="bp85a" d="M438 998.523v5.976c0 .356 0 .713-.09 1.426-.356 4.103-3.924 5.53-7.848 5.53-3.925 0-7.493-1.427-7.85-5.53-.088-.445-.088-.891-.088-1.426v-9.364c0-.446.089-1.16.089-1.517.535-4.191 3.835-5.529 7.849-5.529 4.013 0 7.403 1.338 7.849 5.53v2.229h-5.53v-1.249c0-.267 0-.624-.09-.891-.178-.714-.802-1.249-1.516-1.516-1.248-.357-2.586.267-2.943 1.516-.09.356-.09.713-.09 1.07v10.166c0 .268 0 .625.09.892a2.548 2.548 0 0 0 1.516 1.516c1.249.446 2.587-.267 3.033-1.516.089-.267.089-.624.089-.892v-3.21h-2.32v-3.21zm-46.648-9.81v15.971c.089.446.089.981 0 1.428-.357 4.193-3.657 5.531-7.76 5.531s-7.403-1.338-7.76-5.531c-.09-.179-.09-.982-.09-1.428v-15.97h5.62v16.505c0 .268 0 .625.09.893.178.713.802 1.338 1.515 1.516 1.16.357 2.409-.357 2.765-1.516.09-.268.09-.625.09-.893v-16.505zm-42.734 0l.535 22.316h-5.617l-.178-20.62-3.834 20.62h-5.617l-3.834-20.62-.178 20.62h-5.528l.446-22.315h9.094l2.853 17.405 2.853-17.405zm-32.724 0l4.103 22.316h-5.976l-3.033-20.62-3.122 20.62h-6.065l4.103-22.315zm94.902 0h5.53v22.038h-7.938l-5.709-18.558.357 18.558h-5.44v-22.037h8.294l5.263 17.933zm-40.137 14.454c.178 1.16.178 2.41 0 3.57-.535 3.746-3.836 5.085-7.85 5.085-4.192 0-8.027-1.517-8.027-6.424v-1.695h5.887v2.409c.178 1.07 1.16 1.873 2.23 1.695 1.427 0 1.962-.803 2.14-1.517a2.476 2.476 0 0 0 0-1.606c-1.16-2.855-9.008-4.104-9.99-8.654-.267-.982-.267-1.963-.088-2.945.624-3.568 3.835-4.907 7.76-4.907 3.121 0 7.403.714 7.403 5.532v1.428h-5.53v-1.606a1.9 1.9 0 0 0-2.052-1.696c-.981-.089-1.873.536-2.051 1.517-.09.357-.09.803 0 1.16.624 2.587 9.008 4.015 10.168 8.654zm-72.693.09c.178 1.249.178 2.408 0 3.658-.535 3.747-3.836 5.085-7.85 5.085-4.191 0-8.116-1.517-8.116-6.513v-1.695h5.976v2.409c.178 1.07 1.16 1.784 2.23 1.695.981.178 1.962-.535 2.14-1.517.179-.624.179-1.16 0-1.695-1.159-2.855-9.097-4.193-10.078-8.743a8.664 8.664 0 0 1 0-3.034c.624-3.569 3.835-4.907 7.76-4.907 3.121 0 7.492.803 7.492 5.62v1.428h-5.53v-1.606a1.9 1.9 0 0 0-2.052-1.695c-.98-.089-1.873.536-2.051 1.517-.09.357-.09.803 0 1.16.713 2.676 9.098 4.015 10.079 8.833z"/></defs><g><g transform="translate(-282 -988)"><use fill="#090c02" xlink:href="#bp85a"/></g></g></svg>