<svg xmlns="http://www.w3.org/2000/svg" xmlns:xlink="http://www.w3.org/1999/xlink" width="152" height="34" viewBox="0 0 152 34"><defs><path id="2h5ia" d="M432.967 1126.703h3.026v23.406h-3.026zm-27.222 0h4.554l5.414 16.586c.506 1.55.86 2.687 1.113 3.462.253-.827.658-2.119 1.214-3.772l5.516-16.276h4.048v23.406h-2.935v-19.582l-6.68 19.582h-2.732l-6.628-19.944v19.944h-2.884zm-22.619 12.039c0 2.842.759 5.012 2.225 6.665 1.467 1.602 3.338 2.429 5.563 2.429 2.275 0 4.146-.827 5.613-2.429 1.466-1.653 2.225-3.978 2.225-6.975 0-1.912-.304-3.565-.961-4.96-.607-1.395-1.568-2.532-2.781-3.307a7.47 7.47 0 0 0-4.096-1.188c-2.124 0-3.995.775-5.512 2.273-1.517 1.499-2.276 3.979-2.276 7.492zm-3.137-.052c0-3.875 1.012-6.923 3.087-9.093 2.074-2.17 4.655-3.307 7.893-3.307 2.125 0 4.048.517 5.718 1.55 1.72 1.033 2.986 2.48 3.896 4.289.911 1.86 1.316 3.926 1.316 6.251 0 2.377-.455 4.495-1.417 6.356-.961 1.86-2.277 3.306-3.997 4.236-1.72.982-3.593 1.447-5.566 1.447-2.176 0-4.099-.517-5.769-1.602a10.187 10.187 0 0 1-3.845-4.34c-.911-1.757-1.316-3.72-1.316-5.787zm-16.344 1.809h7.793l-2.379-6.51c-.708-1.964-1.265-3.617-1.619-4.909-.303 1.55-.759 2.997-1.265 4.495zm-6.628 9.61l8.804-23.406h3.34l9.31 23.406h-3.44l-2.632-7.079h-9.665l-2.48 7.079zm-5.87-23.406h3.026v23.406h-3.026zm-15.332 11.264l-7.792-11.264h3.592l4.2 5.994c.86 1.24 1.467 2.17 1.822 2.842a24.547 24.547 0 0 1 1.821-2.584l4.554-6.252h3.34l-7.944 11.109 8.551 12.297h-3.744l-5.769-8.37c-.354-.465-.658-.93-.961-1.395-.506.775-.86 1.343-1.113 1.653l-5.82 8.112h-3.592z"/><path id="2h5ib" d="M284.706 1123h32.733c.403 0 .706.308.706.718v32.564c0 .41-.303.718-.706.718h-32.733a.695.695 0 0 1-.706-.718v-32.564c0-.41.303-.718.706-.718z"/><path id="2h5ic" d="M292.573 1131.822h10.434c2.658 0 4.464 2.374 4.464 4.903 0 3.974.05 12.542.05 12.542h-4.063l-.1-11.2c0-1.549-1.053-2.58-2.558-2.58-1.957-.052-6.872.05-8.227.05v13.781h-4.163v-17.548zm3.21 6.71h4.274v10.632h-4.273zm14.898-6.762h4.164v17.497h-4.164z"/></defs><g><g transform="translate(-284 -1123)"><g><use fill="#090c02" xlink:href="#2h5ia"/></g><g><use fill="#090c02" xlink:href="#2h5ib"/></g><g><use fill="#fff" xlink:href="#2h5ic"/></g></g></g></svg>