<?xml version="1.0" encoding="utf-8"?>
<!-- Generator: Adobe Illustrator 22.1.0, SVG Export Plug-In . SVG Version: 6.00 Build 0)  -->
<svg version="1.1" id="Слой_1" xmlns="http://www.w3.org/2000/svg" xmlns:xlink="http://www.w3.org/1999/xlink" x="0px" y="0px"
	 viewBox="0 0 273.4 51.3" style="enable-background:new 0 0 273.4 51.3;" xml:space="preserve">
<style type="text/css">
	.st0{fill:#FECE76;}
	.st1{fill:#FFFFFF;}
</style>
<text transform="matrix(1 0 0 1 237 136.1655)" style="font-family:'MyriadPro-Regular'; font-size:12px;"> </text>
<rect y="21.2" class="st0" width="10" height="10"/>
<rect x="20" y="1.2" class="st0" width="10" height="10"/>
<rect y="1.2" class="st0" width="10" height="10"/>
<rect x="20" y="21.2" class="st0" width="10" height="10"/>
<rect y="41.2" class="st0" width="10" height="10"/>
<rect x="40" y="41.2" class="st0" width="10" height="10"/>
<rect x="40" y="1.2" class="st0" width="10" height="10"/>
<rect x="20" y="41.2" class="st0" width="10" height="10"/>
<rect x="40" y="21.2" class="st0" width="10" height="10"/>
<rect y="21.2" class="st0" width="10" height="10"/>
<path class="st1" d="M76.4,32v18.9H66.3V0h18.5c6,0,10.5,1.4,13.6,4.3c3,2.9,4.6,6.8,4.6,11.7c0,4.8-1.6,8.7-4.7,11.6
	c-3.1,2.9-7.6,4.3-13.4,4.3H76.4z M92.6,16.1c0-2.5-0.7-4.5-2.1-5.8c-1.4-1.3-3.7-2-6.8-2h-7.3v15.6h7.3
	C89.6,23.8,92.6,21.2,92.6,16.1z"/>
<path class="st0" d="M138,11.2L138,11.2l-14.3,39.7H113l18.7-50.3h11.6L162,50.8h-10.7L138,11.2z"/>
<path class="st1" d="M216.8,0v50.8h-10.2V28.7h-21.7v22.1h-10.2V0h10.2v20.6h21.7V0H216.8z"/>
<path class="st1" d="M243,0v29.8c0,4,0.9,7,2.6,9c1.8,2,4.3,3,7.6,3c3.3,0,5.8-1,7.5-3c1.8-2,2.6-5,2.6-9V0h10.1v29.8
	c0,4.7-0.9,8.7-2.6,11.9c-1.8,3.2-4.2,5.7-7.3,7.2c-3.1,1.6-6.6,2.4-10.5,2.4c-6.1,0-11-1.8-14.6-5.5c-3.6-3.6-5.5-9-5.5-16.1V0H243
	z"/>
</svg>
