<svg width="18" height="18" viewBox="0 0 18 18" fill="none" xmlns="http://www.w3.org/2000/svg">
<g clip-path="url(#clip0)">
<path d="M0.745223 0.916992H0V17.0826H0.745223V0.916992Z" fill="#212121" fill-opacity="0.6"/>
<path d="M2.78022 0.916992H1.40442V17.0826H2.78022V0.916992Z" fill="#212121" fill-opacity="0.6"/>
<path d="M4.32799 0.916992H3.29614V17.0826H4.32799V0.916992Z" fill="#212121" fill-opacity="0.6"/>
<path d="M5.81849 0.916992H5.24524V17.0826H5.81849V0.916992Z" fill="#212121" fill-opacity="0.6"/>
<path d="M7.73881 0.916992H6.76428V17.0826H7.73881V0.916992Z" fill="#212121" fill-opacity="0.6"/>
<path d="M9.42989 0.916992H8.5127V17.0826H9.42989V0.916992Z" fill="#212121" fill-opacity="0.6"/>
<path d="M10.949 0.916992H10.4331V17.0826H10.949V0.916992Z" fill="#212121" fill-opacity="0.6"/>
<path d="M13.0987 0.916992H11.7229V17.0826H13.0987V0.916992Z" fill="#212121" fill-opacity="0.6"/>
<path d="M14.6178 0.916992H13.6433V17.0826H14.6178V0.916992Z" fill="#212121" fill-opacity="0.6"/>
<path d="M16.137 0.916992H15.5637V17.0826H16.137V0.916992Z" fill="#212121" fill-opacity="0.6"/>
<path d="M18 0.916992H17.1401V17.0826H18V0.916992Z" fill="#212121" fill-opacity="0.6"/>
</g>
<defs>
<clipPath id="clip0">
<rect width="18" height="18" fill="white"/>
</clipPath>
</defs>
</svg>
