<svg width="20" height="20" viewBox="0 0 20 20" fill="none" xmlns="http://www.w3.org/2000/svg">
<path d="M16.5997 3.30941C14.8313 1.70895 12.4841 0.827637 9.99023 0.827637C7.49634 0.827637 5.14915 1.70895 3.38081 3.30941C1.59737 4.9236 0.615234 7.07418 0.615234 9.36517C0.615234 11.0813 1.16787 12.7268 2.2158 14.1389L1.41037 19.1754L6.50562 17.2932C7.61387 17.6977 8.78506 17.9028 9.99023 17.9028C12.4841 17.9028 14.8313 17.0214 16.5997 15.4209C18.3831 13.8067 19.3652 11.6562 19.3652 9.36517C19.3652 7.07418 18.3831 4.9236 16.5997 3.30941ZM10.8119 11.8172L8.73951 10.1958L3.78239 12.1577L9.45442 6.51616L11.5519 8.19101L16.0892 6.43182L10.8119 11.8172Z" fill="white"/>
</svg>
