<svg width="18" height="18" viewBox="0 0 18 18" fill="none" xmlns="http://www.w3.org/2000/svg">
<g clip-path="url(#clip0)">
<path d="M15.2884 11.4712V15.583H2.71095V11.4712H0.293579V16.7917C0.293579 17.4588 0.833975 17.9998 1.50407 17.9998H16.4953C17.1648 17.9998 17.7057 17.4594 17.7057 16.7917V11.4712H15.2884Z" fill="#212121" fill-opacity="0.6"/>
<path d="M8.77842 11.0637L5.31748 6.88165C5.31748 6.88165 4.79089 6.38448 5.36191 6.38448C5.93293 6.38448 7.31214 6.38448 7.31214 6.38448C7.31214 6.38448 7.31214 6.05004 7.31214 5.53426C7.31214 4.06378 7.31214 1.38762 7.31214 0.296618C7.31214 0.296618 7.23468 0 7.68141 0C8.13174 0 10.1042 0 10.4266 0C10.7485 0 10.7413 0.249783 10.7413 0.249783C10.7413 1.30776 10.7413 4.07639 10.7413 5.49883C10.7413 5.95997 10.7413 6.25899 10.7413 6.25899C10.7413 6.25899 11.8473 6.25899 12.5414 6.25899C13.2343 6.25899 12.7125 6.77957 12.7125 6.77957C12.7125 6.77957 9.76794 10.6884 9.35724 11.0985C9.06182 11.3958 8.77842 11.0637 8.77842 11.0637Z" fill="#212121" fill-opacity="0.6"/>
</g>
<defs>
<clipPath id="clip0">
<rect width="18" height="18" fill="white"/>
</clipPath>
</defs>
</svg>
