<svg width="18" height="18" viewBox="0 0 18 18" fill="none" xmlns="http://www.w3.org/2000/svg">
<path d="M17.964 7.70504C17.9016 7.57215 17.7683 7.48713 17.6209 7.48713H16.4999C15.7872 3.61951 12.391 0.679443 8.32042 0.679443C3.73281 0.679443 0 4.41226 0 8.99986C0 13.5875 3.73243 17.3199 8.32042 17.3199C11.2812 17.3199 14.0424 15.7264 15.5264 13.162C15.7355 12.8001 15.6122 12.3378 15.2499 12.1283C14.8884 11.9189 14.4257 12.0422 14.217 12.4041C13.0022 14.5031 10.7427 15.8075 8.32042 15.8075C4.56692 15.8075 1.51273 12.7537 1.51273 9.00063C1.51273 5.24675 4.56692 2.19294 8.32042 2.19294C11.5535 2.19294 14.2622 4.46051 14.9523 7.48751H13.8402C13.6927 7.48751 13.5598 7.57253 13.497 7.70542C13.4346 7.83831 13.4549 7.99495 13.5491 8.10792L15.4402 10.377C15.5122 10.4632 15.6183 10.513 15.7309 10.513C15.8431 10.513 15.9496 10.4628 16.0212 10.377L17.9123 8.10792C18.0065 7.99456 18.0264 7.83793 17.964 7.70504Z" fill="#212121" fill-opacity="0.6"/>
<path d="M8.32037 2.5708C7.90255 2.5708 7.56401 2.90935 7.56401 3.32717V7.91669C7.22201 8.15643 6.99683 8.55165 6.99683 9.00049C6.99683 9.73043 7.59081 10.3244 8.32075 10.3244C8.52067 10.3244 8.70909 10.2766 8.87913 10.1965L11.5101 11.715C11.6296 11.7843 11.7591 11.8169 11.8877 11.8169C12.1489 11.8169 12.4032 11.6813 12.5434 11.4385C12.7521 11.0773 12.6284 10.6143 12.2661 10.4056L9.63243 8.88484C9.5972 8.48501 9.38924 8.13575 9.0775 7.91745V3.32717C9.07674 2.90973 8.73781 2.5708 8.32037 2.5708ZM8.32037 9.56729C8.00749 9.56729 7.75319 9.31261 7.75319 9.00049C7.75319 8.68799 8.00787 8.43331 8.32037 8.43331C8.63288 8.43331 8.88755 8.68799 8.88755 9.00049C8.88755 9.31261 8.63288 9.56729 8.32037 9.56729Z" fill="#212121" fill-opacity="0.6"/>
</svg>
