<svg width="18" height="18" viewBox="0 0 18 18" fill="none" xmlns="http://www.w3.org/2000/svg">
<g clip-path="url(#clip0)">
<path d="M15.6501 17.1237L18 14.7656L13.111 9.8685L11.1503 11.767C10.5855 11.4488 9.50359 10.7585 8.32713 9.58197C7.15045 8.40533 6.45225 7.31549 6.12902 6.74529L8.02672 4.82309L3.23476 0.00244076L0.873947 2.34764C-0.0225011 3.24409 -0.254812 4.60811 0.295803 5.74183C1.13604 7.47186 2.68642 10.0828 5.30067 12.6971C7.91485 15.3112 10.5258 16.8616 12.2559 17.7019C12.6658 17.901 13.1058 17.9977 13.5429 17.9977C14.3148 17.9977 15.0777 17.696 15.6501 17.1237ZM12.8698 16.4379C11.2367 15.6447 8.77031 14.1795 6.29426 11.7034C3.8181 9.22732 2.35293 6.76094 1.55977 5.1279C1.27061 4.53253 1.39429 3.81446 1.86591 3.34284L3.22853 1.98926L6.0488 4.82657L4.43217 6.46411L4.62729 6.90223C4.659 6.97342 5.42572 8.66788 7.33351 10.5757C9.24256 12.4847 10.9227 13.2355 10.9933 13.2665L11.4255 13.4565L13.0943 11.8407L16.0154 14.7666L14.656 16.1308C14.1826 16.6035 13.4649 16.727 12.8698 16.4379Z" fill="#212121" fill-opacity="0.6"/>
</g>
<defs>
<clipPath id="clip0">
<rect width="18" height="18" fill="white" transform="translate(18) rotate(90)"/>
</clipPath>
</defs>
</svg>
