<svg width="18" height="18" viewBox="0 0 18 18" fill="none" xmlns="http://www.w3.org/2000/svg">
<path d="M8.99968 0C5.346 0 2.37317 2.97283 2.37317 6.62688C2.37317 7.58 2.56825 8.49001 2.9527 9.33186C4.60951 12.9574 7.78608 16.7851 8.72041 17.8718C8.79041 17.953 8.89247 17.9998 8.99986 17.9998C9.10726 17.9998 9.20931 17.953 9.27931 17.8718C10.2133 16.7853 13.3898 12.9577 15.0472 9.33186C15.4318 8.49001 15.6267 7.58 15.6267 6.62688C15.6264 2.97283 12.6535 0 8.99968 0ZM8.99968 10.0689C7.10173 10.0689 5.55747 8.52464 5.55747 6.62669C5.55747 4.72856 7.10173 3.18431 8.99968 3.18431C10.8976 3.18431 12.4419 4.72856 12.4419 6.62669C12.4421 8.52464 10.8978 10.0689 8.99968 10.0689Z" fill="#212121" fill-opacity="0.6"/>
</svg>
