<svg width="18" height="18" viewBox="0 0 18 18" fill="none" xmlns="http://www.w3.org/2000/svg">
<g clip-path="url(#clip0)">
<path d="M9.16477 7.71451H13.6647C13.7585 7.71451 13.8356 7.68443 13.8956 7.62409C13.956 7.56383 13.9862 7.48688 13.9862 7.39305V5.46452C13.9862 5.37069 13.956 5.29375 13.8956 5.23348C13.8356 5.17329 13.7585 5.14307 13.6647 5.14307H9.16477C9.07098 5.14307 8.99403 5.17315 8.93373 5.23348C8.87357 5.29375 8.84338 5.37069 8.84338 5.46452V7.39305C8.84338 7.48688 8.87346 7.56383 8.93373 7.62409C8.99403 7.68432 9.07098 7.71451 9.16477 7.71451Z" fill="#01AFEF"/>
<path d="M9.16489 2.57141H11.7362C11.83 2.57141 11.9071 2.54133 11.9671 2.48106C12.0276 2.42076 12.0573 2.34382 12.0573 2.25002V0.321422C12.0573 0.227732 12.0275 0.150684 11.9671 0.0903822C11.9071 0.0302212 11.83 0 11.7362 0H9.16489C9.0711 0 8.99415 0.0300805 8.93385 0.0903471C8.87373 0.150684 8.84351 0.227732 8.84351 0.321386V2.24999C8.84351 2.34378 8.87359 2.42072 8.93385 2.48103C8.99419 2.54119 9.0711 2.57141 9.16489 2.57141Z" fill="#01AFEF"/>
<path d="M6.91471 14.1428H4.98614V0.321422C4.98614 0.227732 4.9561 0.150578 4.8958 0.0903822C4.83549 0.0302212 4.75855 0 4.66472 0H2.73612C2.64243 0 2.56528 0.0300805 2.50508 0.0903471C2.44496 0.150684 2.41473 0.227732 2.41473 0.321386V14.1428H0.486134C0.338933 14.1428 0.238453 14.2097 0.184836 14.3436C0.131184 14.471 0.154756 14.5881 0.255094 14.6953L3.46935 17.9097C3.54302 17.9697 3.61996 17.9998 3.70039 17.9998C3.78743 17.9998 3.86451 17.9697 3.93142 17.9097L7.13565 14.7054C7.20271 14.6252 7.23613 14.5445 7.23613 14.4646C7.23613 14.3704 7.20591 14.2936 7.14578 14.2329C7.08552 14.1729 7.00857 14.1428 6.91471 14.1428Z" fill="#01AFEF"/>
<path d="M17.753 15.5192C17.6927 15.4588 17.6158 15.4287 17.522 15.4287H9.16489C9.0711 15.4287 8.99415 15.4588 8.93385 15.5192C8.87373 15.5794 8.84351 15.6565 8.84351 15.7502V17.6787C8.84351 17.7727 8.87359 17.8494 8.93385 17.9098C8.99419 17.97 9.0711 18.0001 9.16489 18.0001H17.522C17.6158 18.0001 17.6927 17.97 17.753 17.9098C17.8132 17.8494 17.8433 17.7727 17.8433 17.6787V15.7502C17.8434 15.6565 17.8132 15.5794 17.753 15.5192Z" fill="#01AFEF"/>
<path d="M9.16477 12.8573H15.5934C15.6871 12.8573 15.7642 12.8272 15.8246 12.767C15.8847 12.7068 15.9147 12.6297 15.9147 12.5361V10.6073C15.9147 10.5137 15.8847 10.4366 15.8246 10.3764C15.7641 10.3162 15.6871 10.2861 15.5934 10.2861H9.16477C9.07098 10.2861 8.99403 10.3162 8.93373 10.3764C8.87357 10.4366 8.84338 10.5137 8.84338 10.6073V12.5361C8.84338 12.6297 8.87346 12.7068 8.93373 12.767C8.99403 12.8272 9.07098 12.8573 9.16477 12.8573Z" fill="#01AFEF"/>
</g>
<defs>
<clipPath id="clip0">
<rect width="18" height="18" fill="white"/>
</clipPath>
</defs>
</svg>
