<svg width="18" height="18" viewBox="0 0 18 18" fill="none" xmlns="http://www.w3.org/2000/svg">
<path d="M0.317934 8.63094L4.4655 10.4089L6.07086 16.3386C6.17358 16.7184 6.57792 16.8588 6.8463 16.6068L9.15823 14.4421C9.40057 14.2153 9.74575 14.204 9.99901 14.4151L14.1689 17.8923C14.456 18.1319 14.8627 17.9512 14.9347 17.5528L17.9894 0.676686C18.068 0.241433 17.6956 -0.121668 17.3348 0.038623L0.313074 7.5805C-0.106987 7.76656 -0.103327 8.44963 0.317934 8.63094ZM5.81214 9.46243L13.918 3.72842C14.0637 3.62567 14.2136 3.85191 14.0885 3.98519L7.39878 11.1273C7.16364 11.3787 7.01196 11.7151 6.969 12.0803L6.74112 14.0199C6.71094 14.2789 6.3942 14.3046 6.33198 14.054L5.45556 10.517C5.35518 10.1136 5.50146 9.68268 5.81214 9.46243Z" fill="white"/>
</svg>
