<svg width="18" height="18" viewBox="0 0 18 18" fill="none" xmlns="http://www.w3.org/2000/svg">
<g clip-path="url(#clip0)">
<path d="M15.3975 7.55349C15.4191 5.01571 13.2577 2.68924 10.5793 2.36753C10.526 2.36122 10.468 2.3516 10.4066 2.34143C10.274 2.31946 10.1369 2.29688 9.99851 2.29688C9.44956 2.29688 9.30282 2.68248 9.2642 2.91245C9.22663 3.13605 9.26246 3.32382 9.37052 3.47079C9.55231 3.71798 9.87217 3.76186 10.1291 3.79702C10.2044 3.80742 10.2754 3.81709 10.3349 3.83045C12.7413 4.36816 13.5516 5.21354 13.9476 7.59949C13.9573 7.6578 13.9616 7.72963 13.9663 7.80582C13.9835 8.09103 14.0195 8.68441 14.6575 8.68441H14.6575C14.7106 8.68441 14.7677 8.67983 14.8271 8.67077C15.4212 8.58049 15.4026 8.03809 15.3936 7.77748C15.3911 7.70408 15.3887 7.63465 15.3949 7.58848C15.3966 7.57685 15.3974 7.56517 15.3975 7.55349Z" fill="white"/>
<path d="M9.8429 1.43598C9.91418 1.44112 9.98165 1.44604 10.0378 1.45465C13.9894 2.06234 15.8067 3.93457 16.3103 7.91704C16.3188 7.98473 16.3202 8.0673 16.3216 8.15473C16.3266 8.46587 16.3369 9.11314 17.0321 9.12656L17.0536 9.12678C17.2717 9.12678 17.4451 9.06104 17.5691 8.93124C17.7855 8.7049 17.7704 8.36866 17.7582 8.09843C17.7553 8.03214 17.7524 7.9697 17.7531 7.91502C17.8034 3.84199 14.2777 0.148584 10.2083 0.011236C10.1914 0.010677 10.1753 0.0115714 10.1591 0.0138634C10.1511 0.0150373 10.1363 0.0164907 10.1109 0.0164907C10.0703 0.0164907 10.0204 0.0129689 9.96745 0.0093913C9.90345 0.00503106 9.83089 0 9.75732 0C9.10926 0 8.98606 0.460621 8.97029 0.735205C8.93396 1.36979 9.54786 1.41445 9.8429 1.43598Z" fill="white"/>
<path d="M16.1195 13.0641C16.0355 12.9999 15.9486 12.9335 15.8673 12.868C15.4358 12.5208 14.9768 12.2007 14.5329 11.8912C14.4408 11.827 14.3487 11.7628 14.2569 11.6984C13.6883 11.299 13.1771 11.1049 12.6941 11.1049C12.0436 11.1049 11.4764 11.4644 11.0083 12.1731C10.8009 12.4873 10.5493 12.6401 10.2392 12.6401C10.0559 12.6401 9.84751 12.5878 9.62005 12.4845C7.78467 11.6522 6.47408 10.3761 5.72462 8.69169C5.36233 7.87755 5.47977 7.34538 6.11738 6.91226C6.47944 6.66652 7.15338 6.20903 7.10564 5.33295C7.05159 4.33809 4.85648 1.34467 3.93161 1.00468C3.54002 0.860682 3.12859 0.85934 2.70654 1.00133C1.64331 1.35876 0.880326 1.98646 0.499866 2.81648C0.132208 3.61848 0.14881 4.56018 0.547885 5.53979C1.70156 8.37205 3.32357 10.8414 5.36903 12.8791C7.37117 14.8739 9.83197 16.5079 12.683 17.7355C12.94 17.8461 13.2095 17.9064 13.4064 17.9504C13.4734 17.9655 13.5314 17.9783 13.5736 17.9899C13.5968 17.9962 13.6207 17.9996 13.6447 17.9999L13.6672 18C13.6673 18 13.6672 18 13.6673 18C15.0083 18 16.6184 16.7746 17.1129 15.3777C17.5461 14.1545 16.7551 13.5498 16.1195 13.0641Z" fill="white"/>
<path d="M10.4359 4.67139C10.2063 4.6772 9.7285 4.68905 9.56085 5.17567C9.48242 5.40307 9.49181 5.60051 9.5888 5.76251C9.73113 6.0002 10.0038 6.07304 10.2518 6.11301C11.1513 6.25734 11.6133 6.75475 11.7057 7.67822C11.7486 8.10883 12.0386 8.40952 12.4109 8.40952H12.4109C12.4384 8.40952 12.4666 8.4079 12.4946 8.40449C12.9423 8.35121 13.1594 8.02224 13.1398 7.42678C13.1469 6.80534 12.8217 6.09982 12.2686 5.53785C11.7135 4.97415 11.0445 4.65669 10.4359 4.67139Z" fill="white"/>
</g>
<defs>
<clipPath id="clip0">
<rect width="18" height="18" fill="white"/>
</clipPath>
</defs>
</svg>
