<svg xmlns="http://www.w3.org/2000/svg" viewBox="0 0 511.9 495.7"><defs><style>.cls-1{fill:#2ecc71;}.cls-2{fill:#fff;}.cls-3{fill:#000333;}</style></defs><title>Ресурс 1</title><g id="Слой_2" data-name="Слой 2"><g id="Capa_1" data-name="Capa 1"><polygon class="cls-1" points="7.5 200 90.3 152.1 173.2 200 173.2 295.6 90.3 343.4 7.5 295.6 7.5 200"/><polygon class="cls-1" points="173.2 200 256 152.1 338.8 200 338.8 295.6 256 343.4 173.2 295.6 173.2 200"/><polygon class="cls-1" points="338.8 200 421.7 152.1 504.5 200 504.5 295.6 421.7 343.4 338.8 295.6 338.8 200"/><polygon class="cls-1" points="90.3 56.5 173.2 8.7 256 56.5 256 152.1 173.2 200 90.3 152.1 90.3 56.5"/><polygon class="cls-1" points="256 56.5 338.8 8.7 421.7 56.5 421.7 152.1 338.8 200 256 152.1 256 56.5"/><polygon class="cls-1" points="90.3 343.5 173.2 295.6 256 343.5 256 439.1 173.2 486.9 90.3 439.1 90.3 343.5"/><polygon class="cls-1" points="256 343.5 338.8 295.6 421.7 343.5 421.7 439.1 338.8 486.9 256 439.1 256 343.5"/><polygon class="cls-2" points="119 132.2 119 40 90.3 56.5 90.3 152.1 173.2 200 203.9 182.2 119 132.2"/><polygon class="cls-2" points="286.3 132.2 286.3 40 257.6 56.5 257.6 152.1 340.5 200 371.2 182.2 286.3 132.2"/><polygon class="cls-2" points="119 422.3 119 330 90.3 346.6 90.3 442.2 173.2 490.1 203.9 472.3 119 422.3"/><polygon class="cls-2" points="286.3 422.3 286.3 330 257.6 346.6 257.6 442.2 340.5 490.1 371.2 472.3 286.3 422.3"/><polygon class="cls-2" points="35.3 275.7 35.3 183.4 6.7 200 6.7 295.6 89.5 343.4 120.3 325.7 35.3 275.7"/><polygon class="cls-2" points="202.6 275.7 202.6 183.4 174 200 174 295.6 256.8 343.4 287.6 325.7 202.6 275.7"/><polygon class="cls-2" points="367.5 275.7 367.5 183.4 338.8 200 338.8 295.6 421.7 343.4 452.4 325.7 367.5 275.7"/><polygon class="cls-2" points="156.2 236.5 141.2 236.5 141.2 219.3 105.7 198.8 113.2 185.8 156.2 210.6 156.2 236.5"/><rect class="cls-2" x="141.2" y="243.6" width="15" height="15.9"/><polygon class="cls-2" points="321.9 236.5 306.9 236.5 306.9 219.3 271.3 198.8 278.8 185.8 321.9 210.6 321.9 236.5"/><rect class="cls-2" x="306.9" y="243.6" width="15" height="15.9"/><polygon class="cls-2" points="487.6 236.5 472.6 236.5 472.6 219.3 437 198.8 444.5 185.8 487.6 210.6 487.6 236.5"/><rect class="cls-2" x="472.6" y="243.6" width="15" height="15.9"/><polygon class="cls-2" points="239.1 93 224.1 93 224.1 75.8 188.5 55.3 196 42.3 239.1 67.2 239.1 93"/><rect class="cls-2" x="224.1" y="100.1" width="15" height="15.9"/><polygon class="cls-2" points="404.7 93 389.7 93 389.7 75.8 354.2 55.3 361.7 42.3 404.7 67.2 404.7 93"/><rect class="cls-2" x="389.8" y="100.1" width="15" height="15.9"/><polygon class="cls-2" points="239.1 380 224.1 380 224.1 362.8 188.5 342.3 196 329.3 239.1 354.1 239.1 380"/><rect class="cls-2" x="224.1" y="387.1" width="15" height="15.9"/><path class="cls-3" d="M429.2,147.8V52.2L338.8,0,256,47.8,173.2,0,82.8,52.2v95.6L0,195.6V299.9l82.8,47.9v95.7l90.3,52.2L256,447.8l82.8,47.8,90.3-52.2V347.8L511.9,300V195.6Zm-165.7-87,75.3-43.5,75.4,43.5v87l-75.3,43.5-75.4-43.5Zm-165.7,0,75.3-43.5,75.4,43.5v87l-75.3,43.5L97.8,147.8v-87ZM15,291.3v-87l75.3-43.5,75.3,43.5v87L90.3,334.8ZM248.5,434.8l-75.3,43.5L97.8,434.8v-87l75.3-43.5,75.3,43.5.1,87ZM180.7,291.3v-87L256,160.8l75.3,43.5v87L256,334.8ZM414.2,434.8l-75.3,43.5-75.4-43.5v-87l75.3-43.5,75.3,43.5.1,87ZM497,291.3l-75.3,43.5-75.3-43.5v-87l75.3-43.5L497,204.3Z"/><polygon class="cls-2" points="404.7 380 389.7 380 389.7 362.8 354.2 342.3 361.7 329.3 404.7 354.1 404.7 380"/><rect class="cls-2" x="389.8" y="387.1" width="15" height="15.9"/></g></g></svg>