<svg xmlns="http://www.w3.org/2000/svg" viewBox="0 0 463.7 512.3"><defs><style>.cls-1{fill:#2ecc71;}.cls-2{fill:#fff;}.cls-3{fill:#333;}</style></defs><title>Ресурс 1</title><g id="Слой_2" data-name="Слой 2"><g id="Capa_1" data-name="Capa 1"><path class="cls-1" d="M408.1,183.9a16,16,0,0,0-16,16v88.2h32.1V199.9A16,16,0,0,0,408.1,183.9Z"/><path class="cls-2" d="M416.2,186a15.76,15.76,0,0,0-8-2.2,16,16,0,0,0-16,16V288h16V199.8A15.84,15.84,0,0,1,416.2,186Z"/><path class="cls-1" d="M376.1,215.9a16,16,0,0,0-16,16v88.2h32.1V232A16.22,16.22,0,0,0,376.1,215.9Z"/><path class="cls-2" d="M384.1,218.1a15.76,15.76,0,0,0-8-2.2,16,16,0,0,0-16,16v88.2h16V232A16,16,0,0,1,384.1,218.1Z"/><path class="cls-1" d="M360,272a16,16,0,0,0-32,0v64.1h32.1V272Z"/><path class="cls-2" d="M352,258.2a15.76,15.76,0,0,0-8-2.2,16,16,0,0,0-16,16v64.1h16V272A15.81,15.81,0,0,1,352,258.2Z"/><path class="cls-1" d="M283.6,360l76.5-31.9L456.3,288v32.1l-48.1,72.1-72.1,32.1v80.2H264V389.6A31.78,31.78,0,0,1,283.6,360Z"/><path class="cls-1" d="M456.2,296.1V231.5a16,16,0,0,0-16.8-16c-8.6.4-15.3,7.8-15.3,16.5v64.1"/><path class="cls-1" d="M360,327.8l42.4-43a16.05,16.05,0,0,1,22.9,22.5l-42.5,43.2Z"/><path class="cls-2" d="M425.1,284.7a17.86,17.86,0,0,0-6.7-4,15.9,15.9,0,0,1-4,15.8l-42.5,43.2,10.9,10.9,42.5-43.2A16.08,16.08,0,0,0,425.1,284.7Z"/><polygon class="cls-2" points="440.2 215.9 440.2 312.1 400.1 376.19 320 416.3 320 504.5 336 504.5 336 424.3 408.1 392.3 456.2 320.1 456.2 223.9 440.2 215.9"/><path class="cls-1" d="M55.5,183.9a16,16,0,0,1,16,16v88.2H39.4V199.9A16,16,0,0,1,55.5,183.9Z"/><path class="cls-2" d="M47.4,186a15.76,15.76,0,0,1,8-2.2,16,16,0,0,1,16,16V288h-16V199.8A15.84,15.84,0,0,0,47.4,186Z"/><path class="cls-1" d="M87.5,215.9a16,16,0,0,1,16,16v88.2h-32V232A16.07,16.07,0,0,1,87.5,215.9Z"/><path class="cls-2" d="M79.5,218.1a15.76,15.76,0,0,1,8-2.2,16,16,0,0,1,16,16v88.2h-16V232A16,16,0,0,0,79.5,218.1Z"/><path class="cls-1" d="M103.6,272a16,16,0,0,1,32,0v64.1H103.5l.1-64.1Z"/><path class="cls-2" d="M111.6,258.2a15.76,15.76,0,0,1,8-2.2,16,16,0,0,1,16,16v64.1h-16V272A15.81,15.81,0,0,0,111.6,258.2Z"/><path class="cls-1" d="M180,360l-76.5-31.9L7.3,288v32.1l48.1,72.1,72.1,32.1v80.2h72.1V389.6A31.78,31.78,0,0,0,180,360Z"/><path class="cls-1" d="M7.4,296.1V231.5a16,16,0,0,1,16.8-16c8.6.4,15.3,7.8,15.3,16.5v64.1"/><path class="cls-1" d="M103.6,327.8l-42.4-43a16.05,16.05,0,0,0-22.9,22.5l42.5,43.2Z"/><path class="cls-2" d="M38.5,284.7a17.86,17.86,0,0,1,6.7-4,15.9,15.9,0,0,0,4,15.8l42.5,43.2L80.8,350.6,38.3,307.4A16.08,16.08,0,0,1,38.5,284.7Z"/><polygon class="cls-2" points="23.4 215.9 23.4 312.1 63.5 376.19 143.6 416.3 143.6 504.5 127.6 504.5 127.6 424.3 55.5 392.3 7.4 320.1 7.4 223.9 23.4 215.9"/><path class="cls-1" d="M231.3,52.8c-97.2-108-183.6,0-140.4,86.4S231.3,258,231.3,258s97.2-32.4,140.4-118.8S328.5-55.2,231.3,52.8Z"/><path class="cls-2" d="M127,139.2C100.1,85.3,123.5,23,168.6,10,101.8-7.6,57.5,72.3,90.9,139.2,134.1,225.6,231.3,258,231.3,258a184.94,184.94,0,0,0,18-7.4C219.2,236.8,158.6,202.5,127,139.2Z"/><path class="cls-3" d="M182.9,353.1l-39.8-16.6V272a23.54,23.54,0,0,0-23.5-23.5,23.79,23.79,0,0,0-8.5,1.6V232a23.54,23.54,0,0,0-23.5-23.5,23.79,23.79,0,0,0-8.5,1.6V200a23.5,23.5,0,0,0-47,0v9.7a22.76,22.76,0,0,0-7.4-1.6,23.39,23.39,0,0,0-17.4,6.5,23.69,23.69,0,0,0-7.3,17v88.6a7.18,7.18,0,0,0,1.3,4.2l48.1,72.1a7.63,7.63,0,0,0,3.2,2.7l67.7,30.1v75.3a7.5,7.5,0,0,0,15,0V424.4a7.42,7.42,0,0,0-4.5-6.9L60.7,386.3,15.1,317.9V231.6a8.58,8.58,0,0,1,8.9-8.5,8.81,8.81,0,0,1,8.1,9v48.8a23.27,23.27,0,0,0-5.7,15.2,23.69,23.69,0,0,0,6.8,16.7L75.7,356a7.53,7.53,0,0,0,10.7-10.6L43.9,302.2a8.51,8.51,0,0,1,.1-12,8.6,8.6,0,0,1,12,.1l41.3,41.9a8.15,8.15,0,0,0,3.5,3.1l76.5,31.9a24.41,24.41,0,0,1,15.1,22.7V504.8a7.5,7.5,0,0,0,15,0V389.6A39.67,39.67,0,0,0,182.9,353.1Zm-63.3-89.6a8.49,8.49,0,0,1,8.5,8.5v58.2l-17-7.1V272A8.49,8.49,0,0,1,119.6,263.5ZM87.5,223.4a8.49,8.49,0,0,1,8.5,8.5v77.5L78.9,292.1V232A8.73,8.73,0,0,1,87.5,223.4ZM49.9,272.5c-1,0-2,.1-3,.2V199.9a8.5,8.5,0,0,1,17,0v77.4A23.66,23.66,0,0,0,49.9,272.5Z"/><path class="cls-3" d="M256.3,389.6V504.5a7.5,7.5,0,0,0,15,0V389.6a24.62,24.62,0,0,1,15.1-22.7L362.9,335a7.05,7.05,0,0,0,3.5-3.1L407.7,290a8.49,8.49,0,1,1,12.1,11.9l-42.5,43.2A7.53,7.53,0,0,0,388,355.7l42.5-43.2a23.53,23.53,0,0,0,1.1-31.9V232a9,9,0,0,1,8.1-9,8.58,8.58,0,0,1,8.9,8.5v86.3L403,386.2l-70.1,31.2a7.58,7.58,0,0,0-4.5,6.9v80.2a7.5,7.5,0,0,0,15,0V429.2l67.7-30.1a7.63,7.63,0,0,0,3.2-2.7l48.1-72.1a7.71,7.71,0,0,0,1.3-4.2V231.5a23.69,23.69,0,0,0-7.3-17A23.39,23.39,0,0,0,439,208a22.76,22.76,0,0,0-7.4,1.6v-9.7a23.5,23.5,0,1,0-47,0V210a23.79,23.79,0,0,0-8.5-1.6,23.54,23.54,0,0,0-23.5,23.5V250a23.79,23.79,0,0,0-8.5-1.6,23.54,23.54,0,0,0-23.5,23.5v64.4l-39.8,16.6A39.84,39.84,0,0,0,256.3,389.6ZM352.5,272v51.1l-17,7.1V272a8.5,8.5,0,0,1,17,0Zm32.1-40v60.2l-17.1,17.3V232a8.55,8.55,0,0,1,17.1,0Zm15,45.3V199.9a8.5,8.5,0,1,1,17,0v72.8c-1-.1-2-.2-3-.2A24.13,24.13,0,0,0,399.6,277.3Z"/><path class="cls-3" d="M378.5,142.6c11.6-23.3,15.1-49.6,9.8-74.2-5.2-23.9-17.9-43.8-35.8-56C335.5.8,315.4-2.7,294.4,2.2c-21.3,5-42.4,18.3-63,39.6-20.6-21.3-41.7-34.6-63-39.6-21-5-41.1-1.4-58.1,10.2-17.9,12.2-30.6,32.1-35.8,56a113.41,113.41,0,0,0,9.8,74.2c23.1,46.2,61.2,77,89.1,94.8,30.1,19.2,54.6,27.4,55.7,27.8a7.87,7.87,0,0,0,4.8,0c1-.3,25.5-8.6,55.7-27.8C317.3,219.6,355.4,188.8,378.5,142.6ZM231.3,250c-14.9-5.6-96-38.9-133.7-114.2a98,98,0,0,1-8.5-64.3c4.3-19.9,15.1-36.9,29.6-46.8A55.26,55.26,0,0,1,150.2,15a62.86,62.86,0,0,1,14.7,1.8c20.1,4.7,40.6,18.6,60.9,41a7.57,7.57,0,0,0,11.2,0c20.2-22.5,40.7-36.3,60.9-41,16.8-4,32.8-1.2,46.2,7.9,14.5,9.9,25.3,26.9,29.6,46.8a98,98,0,0,1-8.5,64.3c-21.5,43-57.2,71.9-83.4,88.6A275.74,275.74,0,0,1,231.3,250Z"/></g></g></svg>