<svg xmlns="http://www.w3.org/2000/svg" viewBox="0 0 496 496"><defs><style>.cls-1{fill:#00cd6b;}.cls-2{fill:#333;}</style></defs><title>cash-3</title><g id="Слой_2" data-name="Слой 2"><g id="Layer_1" data-name="Layer 1"><path class="cls-1" d="M240,104a72,72,0,1,1-72-72A72,72,0,0,1,240,104Z"/><path class="cls-1" d="M64,496H16A16,16,0,0,1,0,480V384a16,16,0,0,1,16-16H64a16,16,0,0,1,16,16v96A16,16,0,0,1,64,496Z"/><path class="cls-2" d="M385.4,360a30.48,30.48,0,0,0-21.7,9l-7.4,7.4-1.6-6.4a23.61,23.61,0,0,0-45.6-.8L298,408H249l-20.9-5.2a5.34,5.34,0,0,1-2.5-9L255,364.3A30.62,30.62,0,1,0,211.7,321l-66.3,66.3a15.88,15.88,0,0,1-11.3,4.7H80v16h54.1a31.53,31.53,0,0,0,22.6-9.4L223,332.3a14.37,14.37,0,0,1,10.3-4.3,14.62,14.62,0,0,1,14.6,14.6,14.79,14.79,0,0,1-4.3,10.3l-29.4,29.4a21.38,21.38,0,0,0,9.9,35.9l21.9,5.5,75.3.2a24.16,24.16,0,0,0,17-7L375,380.2a14.37,14.37,0,0,1,10.3-4.3,14.62,14.62,0,0,1,14.6,14.6,14.79,14.79,0,0,1-4.3,10.3l-40.5,40.5a32.33,32.33,0,0,1-16.9,8.9l-70,12.7a55.51,55.51,0,0,1-10,.9H80v16H258.2a69.58,69.58,0,0,0,12.9-1.2l70-12.7a48.23,48.23,0,0,0,25.4-13.3L407,412.1A30.48,30.48,0,0,0,385.4,360ZM327,405.7a7.93,7.93,0,0,1-5.7,2.3h-6.8l9.8-34.5a7.5,7.5,0,0,1,7.3-5.5,7.6,7.6,0,0,1,7.4,5.8l3.9,15.8Z"/><path class="cls-2" d="M264,136h72V64h19.5a25,25,0,0,1,6.6.9l47.4,13.5a41.21,41.21,0,0,0,11,1.6H456V64H420.5a25,25,0,0,1-6.6-.9L366.5,49.6a41.21,41.21,0,0,0-11-1.6H336V0H0V208H336V183l7.7,3.1a82.78,82.78,0,0,0,68.1-3.1,66.93,66.93,0,0,1,29.8-7H456V160H441.6a82.43,82.43,0,0,0-37.4,9,67.47,67.47,0,0,1-54.6,2.3L336.3,166a82.58,82.58,0,0,0-30.7-5.9H240A24.09,24.09,0,0,1,264,136Zm-24,40h65.6a62.94,62.94,0,0,1,14.4,1.6V192H16V16H320V120H264a40,40,0,0,0-40,40A16,16,0,0,0,240,176Z"/><path class="cls-1" d="M480,192H464a16,16,0,0,1-16-16V64a16,16,0,0,1,16-16h16a16,16,0,0,1,16,16V176A16,16,0,0,1,480,192Z"/><path class="cls-2" d="M304,64H288V48H272V32h32Z"/><path class="cls-2" d="M48,64H32V32H64V48H48Z"/><path class="cls-2" d="M64,176H32V144H48v16H64Z"/><path class="cls-1" d="M312,264V208H248v56H216l64,64,64-64Z"/><path class="cls-2" d="M400,272h16v56H400Z"/><path class="cls-2" d="M400,240h16v16H400Z"/><path class="cls-2" d="M400,208h16v16H400Z"/><path class="cls-2" d="M368,272h16v64H368Z"/><path class="cls-2" d="M32,368H48v72H32Z"/><path class="cls-2" d="M32,456H48v40H32Z"/><path d="M368,240h16v16H368Z"/><path class="cls-2" d="M176,96H160a8,8,0,0,1,0-16h16a8,8,0,0,1,8,8h16a24.07,24.07,0,0,0-24-24V48H160V64a24,24,0,0,0,0,48h16a8,8,0,0,1,0,16H160a8,8,0,0,1-8-8H136a24.07,24.07,0,0,0,24,24v16h16V144a24,24,0,0,0,0-48Z"/></g></g></svg>