<svg xmlns="http://www.w3.org/2000/svg" viewBox="0 0 483.28 512.1"><defs><style>.cls-1{fill:#fff;}.cls-2{fill:#e8a864;}.cls-3{fill:#00cd6b;}.cls-4{fill:#f46b27;}.cls-5{fill:#333;}</style></defs><title>deliv-2</title><g id="Слой_2" data-name="Слой 2"><g id="Capa_1" data-name="Capa 1"><path class="cls-1" d="M427.36,256a34.14,34.14,0,0,0-33.1-25.6l-109.9-8.5V179.2h-85.3v42.7l-109.9,8.5A34.14,34.14,0,0,0,56.06,256L26.16,375.5h430.9Z"/><path class="cls-2" d="M88.06,469.3V443.7a17.1,17.1,0,0,0-34.2,0v59.7a56.1,56.1,0,0,0,5.8,0h71a34.08,34.08,0,0,0,34.1-34.1Z"/><path class="cls-2" d="M412.36,426.7a17.09,17.09,0,0,0-17.1,17.1v25.6h-76.8a34.08,34.08,0,0,0,34.1,34.1h71a56.1,56.1,0,0,0,5.8,0V443.8A17,17,0,0,0,412.36,426.7Z"/><path class="cls-2" d="M96.56,469.3l17.1-93.9H26.16l-16.1,64.3a51.21,51.21,0,0,0,36.8,62.4,55.52,55.52,0,0,0,7.1,1.3V443.7a17.1,17.1,0,0,1,34.2,0v25.6Z"/><path id="SVGCleanerId_0" data-name="SVGCleanerId 0" class="cls-2" d="M473.26,439.8l-16.1-64.3h-78.9l17.1,68.3a17.1,17.1,0,0,1,34.2,0v59.7a51.3,51.3,0,0,0,45.2-56.6C474.26,444.5,473.86,442.1,473.26,439.8Z"/><path class="cls-3" d="M427.36,256a34.14,34.14,0,0,0-33.1-25.6l-109.9-8.5-42.7,42.6L199,221.8l-109.9,8.5A34.14,34.14,0,0,0,56,255.9L26.16,375.5h430.9Z"/><path class="cls-3" d="M88.06,443.7a17.1,17.1,0,0,0-34.2,0v59.7a56.1,56.1,0,0,0,5.8,0h71a34.08,34.08,0,0,0,34.1-34.1H88l.1-25.6Z"/><path class="cls-3" d="M412.36,426.7a17.09,17.09,0,0,0-17.1,17.1v25.6h-76.8a34.08,34.08,0,0,0,34.1,34.1h71a56.1,56.1,0,0,0,5.8,0V443.8A17,17,0,0,0,412.36,426.7Z"/><path class="cls-1" d="M10.06,439.8a51.21,51.21,0,0,0,36.8,62.4,55.52,55.52,0,0,0,7.1,1.3V443.8a17.1,17.1,0,1,1,34.2,0v25.6h8.5l17.1-93.9H26.16Z"/><path id="SVGCleanerId_0-2" data-name="SVGCleanerId 0" class="cls-1" d="M473.26,439.8l-16.1-64.3h-78.9l17.1,68.3a17.1,17.1,0,0,1,34.2,0v59.7a51.3,51.3,0,0,0,45.2-56.6C474.26,444.5,473.86,442.1,473.26,439.8Z"/><rect class="cls-1" x="88.06" y="264.5" width="307.2" height="204.8"/><rect id="SVGCleanerId_1" data-name="SVGCleanerId 1" class="cls-1" x="88.06" y="324.3" width="307.2" height="145.1"/><path class="cls-1" d="M173.36,85.3V128A68.3,68.3,0,0,0,310,128V85.3Z"/><path class="cls-3" d="M207.56,8.5h68.3A34.08,34.08,0,0,1,310,42.6V93.8H173.36V42.7A34.18,34.18,0,0,1,207.56,8.5Z"/><path class="cls-1" d="M207.56,59.7h68.3A34.08,34.08,0,0,1,310,93.8H173.36A34.16,34.16,0,0,1,207.56,59.7Z"/><path class="cls-2" d="M250.16,145.1h-17.1a8.49,8.49,0,0,1-8.5-8.5V93.9h17.1V128h8.5v17.1Z"/><rect class="cls-4" x="352.56" y="426.7" width="17.1" height="17.1"/><rect class="cls-4" x="318.46" y="426.7" width="17.1" height="17.1"/><rect class="cls-3" x="207.56" y="264.5" width="68.3" height="59.7"/><rect class="cls-1" x="207.56" y="324.3" width="68.3" height="51.2"/><path class="cls-5" d="M89.06,221.9a42.59,42.59,0,0,0-41.4,32.3L1.76,437.8a59.86,59.86,0,0,0,43.6,72.4,45.91,45.91,0,0,0,5.1,1,8.65,8.65,0,0,0,3.5.9h76.8a42.63,42.63,0,0,0,41.8-34.1h138.2a42.61,42.61,0,0,0,41.8,34.1h76.8a7.3,7.3,0,0,0,3.5-.9,59.77,59.77,0,0,0,49.7-68.3c-.3-1.7-.6-3.4-1-5.1l-45.9-183.6a42.6,42.6,0,0,0-40.4-32.3h0L292.86,214V185.2a76.79,76.79,0,0,0,25.6-57.1V42.7A42.68,42.68,0,0,0,275.76,0h-68.3a42.68,42.68,0,0,0-42.7,42.7V128a76.79,76.79,0,0,0,25.6,57.1v28.8Zm-24.8,36.4a25.66,25.66,0,0,1,25.6-19.4l106-8.5,25.6,25.6H88.06a8.49,8.49,0,0,0-8.5,8.5V366.9H36.86Zm322.5,14.8v42.7H284.36V273.1ZM164.86,460.8H96.56v-128H199v42.7a8.49,8.49,0,0,0,8.5,8.5h68.3a8.49,8.49,0,0,0,8.5-8.5V332.8h102.4v128ZM96.56,315.7V273H199v42.7Zm119.5,17.1h51.2v34.1h-51.2V332.8Zm51.2-17.1h-51.2V273h51.2ZM26.16,478.5a43,43,0,0,1-7.8-36.6L32.86,384h46.7v35.7a25.67,25.67,0,0,0-32.7,15.6,24.55,24.55,0,0,0-1.5,8.5v48.7A42.67,42.67,0,0,1,26.16,478.5Zm104.6,16.4H62.46V443.7a8.5,8.5,0,0,1,17,0v25.6a8.49,8.49,0,0,0,8.5,8.5h66.8A25.3,25.3,0,0,1,130.76,494.9Zm290.1,0h-68.3a25.42,25.42,0,0,1-24.1-17.1h66.8a8.49,8.49,0,0,0,8.5-8.5V443.7a8.5,8.5,0,0,1,17,0l.1,51.2Zm36.4-16.4A42.55,42.55,0,0,1,438,492.4V443.7a25.52,25.52,0,0,0-25.7-25.5,25,25,0,0,0-8.5,1.5V384h46.7L465,441.9A42.79,42.79,0,0,1,457.26,478.5Zm-63-239.6a25.56,25.56,0,0,1,24.8,19.4l27.4,108.6h-42.7V264.5a8.49,8.49,0,0,0-8.5-8.5h-133l25.6-25.6ZM183.36,85.3a25.65,25.65,0,0,1,24.1-17.1h68.3a25.42,25.42,0,0,1,24.1,17.1Zm24.2-68.2h68.3a25.65,25.65,0,0,1,25.6,25.6V59.8a41.7,41.7,0,0,0-25.6-8.5h-68.3A42.34,42.34,0,0,0,182,59.8V42.7A25.52,25.52,0,0,1,207.56,17.1ZM182,128V102.4h42.7v34.1a8.49,8.49,0,0,0,8.5,8.5h17.1V128h-8.6V102.4h59.7V128A59.7,59.7,0,0,1,182,128Zm59.7,76.8a76.06,76.06,0,0,0,34.1-8.1v21.7l-34.1,34.1-34.1-34.1V196.7A76.37,76.37,0,0,0,241.66,204.8Z"/><rect class="cls-5" x="352.56" y="426.7" width="17.1" height="17.1"/><rect class="cls-5" x="318.46" y="426.7" width="17.1" height="17.1"/></g></g></svg>