<svg xmlns="http://www.w3.org/2000/svg" viewBox="0 0 507.59 512"><defs><style>.cls-1{fill:#fff;}.cls-2{fill:#00cd6b;}.cls-3{fill:#333;}</style></defs><title>order-1</title><g id="Слой_2" data-name="Слой 2"><g id="Capa_1" data-name="Capa 1"><circle class="cls-1" cx="312.1" cy="159.8" r="96.2"/><path class="cls-1" d="M344.2,240A96.25,96.25,0,0,1,285.9,67.2a96.22,96.22,0,1,0,84.4,169.2A97.9,97.9,0,0,1,344.2,240Z"/><path class="cls-2" d="M319.9,7.8l.2-.3H189.5L231,38.9a5.73,5.73,0,0,0-1.1,1.1l-38.1,7.6V191.9L272,111.7l40.1,24,40.1-24,80.2,80.2V127.8A120.34,120.34,0,0,0,319.9,7.8Z"/><path class="cls-2" d="M191.9,47.6V191.9L224,159.8V47.6L262.1,40a11.41,11.41,0,0,0,1.1-1.1L221.6,7.5H189.5L231,38.9a5.73,5.73,0,0,0-1.1,1.1Z"/><path class="cls-2" d="M468,504.5H199.9V264H409.2a32,32,0,0,1,30.4,21.9l58.8,176.3A32.12,32.12,0,0,1,468,504.5Z"/><polygon class="cls-1" points="336.1 456.4 312.1 472.4 288 456.4 296.1 304.1 328.1 304.1 336.1 456.4"/><polygon class="cls-1" points="328.1 304.1 296.1 304.1 288 264 336.1 264 328.1 304.1"/><path class="cls-1" d="M432.3,199.9h-24V151.8h24a8,8,0,0,1,8,8v32.1A8,8,0,0,1,432.3,199.9Z"/><path class="cls-1" d="M191.9,199.9h24V151.8h-24a8,8,0,0,0-8,8v32.1A7.9,7.9,0,0,0,191.9,199.9Z"/><path class="cls-1" d="M424.3,504.5H368.2a8,8,0,0,1-8-8V464.4a16,16,0,0,1,16-16h40.1a16,16,0,0,1,16,16v32.1A8,8,0,0,1,424.3,504.5Z"/><path class="cls-1" d="M384.2,496.5V464.4a16,16,0,0,1,16-16h-24a16,16,0,0,0-16,16v32.1a8,8,0,0,0,8,8h24A8,8,0,0,1,384.2,496.5Z"/><rect class="cls-1" x="7.5" y="264" width="240.5" height="192.4"/><rect class="cls-2" x="7.5" y="264" width="32.1" height="192.4"/><rect class="cls-1" x="103.7" y="456.4" width="48.1" height="48.1"/><rect class="cls-1" x="103.7" y="456.4" width="48.1" height="16"/><circle class="cls-3" cx="271.5" cy="167.8" r="7.5"/><circle class="cls-3" cx="352.7" cy="167.8" r="7.5"/><path class="cls-3" d="M296.1,223.4h32.1a7.5,7.5,0,0,0,0-15H296.1a7.5,7.5,0,0,0,0,15Z"/><path class="cls-3" d="M505.5,459.9,446.8,283.6a39.55,39.55,0,0,0-37.5-27.1H349.7A101.8,101.8,0,0,0,382,236.4a106.55,106.55,0,0,0,22.8-29.9,7.4,7.4,0,0,0,3.6.9h24a15.51,15.51,0,0,0,15.5-15.5V159.8a15.6,15.6,0,0,0-8-13.6V127.7C439.8,61.3,388.5,5.8,322.6.4a10.05,10.05,0,0,0-2.5-.4H189.5a7.57,7.57,0,0,0-7,4.9,7.65,7.65,0,0,0,2.5,8.7l29.1,22-23.7,4.7a7.51,7.51,0,0,0-6,7.4v98.6a15.49,15.49,0,0,0-8,13.6V192a15.51,15.51,0,0,0,15.5,15.5h16.5V232a7.55,7.55,0,0,0,7.5,7.5h29.8a101.8,101.8,0,0,0,28.9,17H67.9a7.5,7.5,0,0,0,0,15H240.4V448.8H15V271.5H32.5a7.5,7.5,0,0,0,0-15H7.5A7.49,7.49,0,0,0,0,264V456.4a7.55,7.55,0,0,0,7.5,7.5H96.2V497H87.7a7.5,7.5,0,0,0,0,15h80.1a7.5,7.5,0,0,0,0-15h-8.5V463.9h33.1v40.6a7.55,7.55,0,0,0,7.5,7.5H468a39.51,39.51,0,0,0,37.5-52.1ZM303.2,311.6H321l7.4,140.9-16.3,10.9-16.3-10.9Zm18.8-15H302.3l-5-25h29.8Zm-98.5-147a72.77,72.77,0,0,1,72.6-70.5h32.1a72.77,72.77,0,0,1,72.6,70.5l-43.2-43.2a7.54,7.54,0,0,0-9.2-1.1L312.1,127l-36.2-21.7a7.56,7.56,0,0,0-9.2,1.1Zm209.3,42.3a.47.47,0,0,1-.5.5H415.8V159.3h16.5a.47.47,0,0,1,.5.5ZM231.4,47.3a10,10,0,0,0,6.8-6,7.55,7.55,0,0,0-2.6-8.4L211.9,15h106a7.72,7.72,0,0,0,1.5.2C378.5,19,424.8,68.5,424.8,127.7v16.5h-9.3A87.8,87.8,0,0,0,328.2,64H296.1a87.72,87.72,0,0,0-87.3,80.2h-9.3V53.8Zm-40,144.6V159.8a.47.47,0,0,1,.5-.5h16.5v33.1H191.9A.47.47,0,0,1,191.4,191.9Zm32,21.7a91.08,91.08,0,0,0,7.6,10.8h-7.6ZM280,224.4H251.6A88.28,88.28,0,0,1,224,170.2c.1-.1.3-.2.4-.4l48.7-48.7,35,21a7.58,7.58,0,0,0,7.7,0l35-21,49,49,.2.2a88.34,88.34,0,0,1-126.6,69.2H280a7.55,7.55,0,0,0,0-15.1ZM144.3,497H111.2V463.9h33.1Zm271.5,0v-8.5a7.5,7.5,0,0,0-15,0V497h-9v-8.5a7.5,7.5,0,0,0-15,0V497h-8.5a.47.47,0,0,1-.5-.5V464.4a8.49,8.49,0,0,1,8.5-8.5h40.1a8.49,8.49,0,0,1,8.5,8.5v32.1a.47.47,0,0,1-.5.5Zm72.1-10.2A24.23,24.23,0,0,1,468,497H439.8V464.4a23.6,23.6,0,0,0-18-22.9l-30.5-83.9a7.5,7.5,0,1,0-14.1,5.1l28.4,78.1H376.3a23.54,23.54,0,0,0-23.5,23.5v32.6H207.4V463.8H248a7.55,7.55,0,0,0,7.5-7.5V271.5h26.4l6.6,33.1-8,151.4a7.48,7.48,0,0,0,3.3,6.6l24,16a7.39,7.39,0,0,0,8.3,0l24-16a7.37,7.37,0,0,0,3.3-6.6l-8-151.4,6.6-33.1h66.9a24.5,24.5,0,0,1,23.3,16.8L491,464.6A23.52,23.52,0,0,1,487.9,486.8Z"/><circle class="cls-3" cx="127.7" cy="392.8" r="7.5"/><path class="cls-3" d="M144.4,378.7a7.54,7.54,0,0,0,0-10.6,23.55,23.55,0,0,0-16.6-6.9,24,24,0,0,0-16.7,6.9,7.5,7.5,0,0,0,10.6,10.6,8.45,8.45,0,0,1,12,0A7.67,7.67,0,0,0,144.4,378.7Z"/><path class="cls-3" d="M156.1,363.9a7.55,7.55,0,0,0,5.3-12.8,47.8,47.8,0,0,0-67.4,0,7.5,7.5,0,0,0,10.6,10.6,32.59,32.59,0,0,1,46,0A7.87,7.87,0,0,0,156.1,363.9Z"/></g></g></svg>