<svg xmlns="http://www.w3.org/2000/svg" viewBox="0 0 496 496"><defs><style>.cls-1{fill:#2ecc71;}.cls-2{fill:#fff;}.cls-3{fill:#333;}</style></defs><title>Ресурс 2</title><g id="Слой_2" data-name="Слой 2"><g id="Layer_1" data-name="Layer 1"><path class="cls-1" d="M488,120V456H298.6a56,56,0,0,1-101.2,0H8V120H40V360H56v48h56.5a302.81,302.81,0,0,1,132.8,30.7c.9.4,1.8.8,2.7,1.3,1-.5,1.9-1,2.9-1.4a305.54,305.54,0,0,1,63-22.5,301,301,0,0,1,69.6-8.1H440V360h16V120Z"/><path class="cls-2" d="M440,360v48H383.5a301,301,0,0,0-69.6,8.1,295.85,295.85,0,0,0-63,22.5l-.6-1.4A213.38,213.38,0,0,1,414.5,360Z"/><path class="cls-2" d="M245.3,438.7A302.81,302.81,0,0,0,112.5,408H56V360H81.5a213.34,213.34,0,0,1,164.4,77.4Z"/><path class="cls-2" d="M456,8V360H414.5a213.22,213.22,0,0,0-164.2,77.2l.6,1.4c-1,.5-1.9,1-2.9,1.4V40A79.8,79.8,0,0,1,312,8Z"/><path class="cls-1" d="M245.9,437.4A213,213,0,0,0,81.5,360H40V8H184a80,80,0,0,1,35.8,8.5A77.86,77.86,0,0,1,248,40V440c-.9-.5-1.8-.9-2.7-1.3Z"/><path class="cls-2" d="M144,72v72a47.08,47.08,0,0,0-24.1,6.6l-6.6-86c0-.4-.1-.8-.1-1.3a15.4,15.4,0,0,1,30.8.1Z"/><path class="cls-2" d="M144,144V72h12.1a16,16,0,0,1,15.6,19.4L160,144l-.9,2.5Z"/><path class="cls-1" d="M384,128h16a32,32,0,0,1-32,32H352A32,32,0,0,1,384,128Z"/><path class="cls-1" d="M352,184a63.82,63.82,0,1,1-12.5,1.2A64.61,64.61,0,0,1,352,184Z"/><path class="cls-3" d="M464,112V0H312a88.67,88.67,0,0,0-64,27.6A88.67,88.67,0,0,0,184,0H32V112H0V464H192.6a64,64,0,0,0,110.8,0H496V112ZM48,16H184a72.48,72.48,0,0,1,56,26.9V216h16V42.9A72.48,72.48,0,0,1,312,16H448V352H414.5A220.74,220.74,0,0,0,256,418.9V232H240V418.9A220.4,220.4,0,0,0,81.5,352H48ZM64,368H81.5a204.08,204.08,0,0,1,133.6,49.5A313,313,0,0,0,112.4,400H64Zm368,0v32H383.6a313.16,313.16,0,0,0-102.8,17.5A204.34,204.34,0,0,1,414.5,368Zm48,80H293.5l-2.2,4.6a47.91,47.91,0,0,1-86.6,0l-2.2-4.6H16V128H32V368H48v48h64.4a296.55,296.55,0,0,1,132,31.2L248,449l3.6-1.8a296.55,296.55,0,0,1,132-31.2H448V368h16V128h16Z"/><path class="cls-3" d="M116.2,306.6a28.76,28.76,0,0,0,55.6,0l26.3-98.5h0a54.26,54.26,0,0,0,1.9-14.4V192a56.12,56.12,0,0,0-31.3-50.2l10.8-48.6A23.67,23.67,0,0,0,174.8,73a23.94,23.94,0,0,0-18.7-9H152v-.6a23.43,23.43,0,1,0-46.8,1.8l6.3,81.3A55.73,55.73,0,0,0,88,192v1.7a54.26,54.26,0,0,0,1.9,14.4ZM184,192v1.7a44.71,44.71,0,0,1-1.3,10.3l-26.3,98.5a12.84,12.84,0,0,1-24.8,0L121.3,264H144V248H117.1l-4.3-16H128V216H108.5l-3.2-12a28.32,28.32,0,0,1-.8-4H144V184H104.8a40,40,0,0,1,79.2,8ZM156.1,80a7.92,7.92,0,0,1,6.2,3,8.14,8.14,0,0,1,1.6,6.7l-10.5,47.1c-.5-.1-.9-.1-1.4-.2V80ZM121.2,64a7.14,7.14,0,0,1,1.9-5.6,7.36,7.36,0,0,1,12.8,5v73.3a53.41,53.41,0,0,0-9,2Z"/><path class="cls-3" d="M304,301.7A72.27,72.27,0,0,0,352.1,320a76.73,76.73,0,0,0,8.2-.5c32.4-3.7,58.9-29.8,63.1-62.1A72.2,72.2,0,0,0,379,181.2L373,196a56,56,0,0,1-14.5,107.6,55.42,55.42,0,0,1-43.8-13.8,56,56,0,0,1,26.4-96.7A23.72,23.72,0,0,0,360,169.7V168h8a40,40,0,0,0,40-40v-8H384a39.53,39.53,0,0,0-24,8.2V96H344v73.6a7.68,7.68,0,0,1-6,7.7,72.09,72.09,0,0,0-34,124.4ZM384,136h6.6A24,24,0,0,1,368,152h-6.6A24,24,0,0,1,384,136Z"/><path class="cls-3" d="M352,224a24.07,24.07,0,0,1,24,24h16a40,40,0,0,0-40-40Z"/><path class="cls-3" d="M368,32h64V48H368Z"/><path class="cls-3" d="M368,64h64V80H368Z"/></g></g></svg>