<svg xmlns="http://www.w3.org/2000/svg" viewBox="0 0 512.02 512"><defs><style>.cls-1{fill:#2ecc71;}.cls-2{fill:#333;}</style></defs><title>Ресурс 3</title><g id="Слой_2" data-name="Слой 2"><g id="Capa_1" data-name="Capa 1"><path class="cls-1" d="M406.42,365.6h-2.2a102.33,102.33,0,0,1-100.7-84.5h0a102.46,102.46,0,0,1,10.4-65.7L402,50h0l88,165.4a101.81,101.81,0,0,1,10.4,65.7h0a102.15,102.15,0,0,1-100.7,84.5h-2.2"/><path class="cls-1" d="M76.82,366.1h-1.4A65.34,65.34,0,0,1,11,312h0a65,65,0,0,1,6.7-42L74,164.1h0l56.3,105.8a65.23,65.23,0,0,1,6.7,42h0A65.42,65.42,0,0,1,72.62,366h-1.4"/><path class="cls-2" d="M510.32,282.8a112.76,112.76,0,0,0-11.5-72.1L411.12,45.9a9.29,9.29,0,0,0-.5-1A10.12,10.12,0,0,0,402,40a9.9,9.9,0,0,0-8.6,4.9,5.17,5.17,0,0,0-.6,1.3l-87.6,164.6a115.57,115.57,0,0,0-8.1,19.6l-68-127.8c-.2-.3-.3-.7-.5-1a10.12,10.12,0,0,0-8.6-4.9,9.9,9.9,0,0,0-8.6,4.9l-.6,1.2L139,237.8a95,95,0,0,0-6.4,15.1L83.12,160a4.05,4.05,0,0,0-.5-.9,10.12,10.12,0,0,0-8.6-4.9,9.9,9.9,0,0,0-8.6,4.9c-.2.4-.4.7-.6,1.1l-56,105.2a75.27,75.27,0,0,0,54.7,109.7V412H10a10,10,0,1,0,0,20h450.9a10,10,0,1,0,0-20h-49.6V375A111.93,111.93,0,0,0,510.32,282.8Zm-187.5-62.7L402,71.3l79.2,148.8a92.21,92.21,0,0,1-70,134.8V326.2l56.7-56.7a10,10,0,1,0-14.1-14.1L411.22,298V235.6l32.1-32.1a10,10,0,0,0-14.1-14.1l-18,18V142.9a10,10,0,1,0-20,0v64.5l-18-18a10,10,0,1,0-14.1,14.1l32.1,32.1V298l-42.6-42.6a10,10,0,1,0-14.1,14.1l56.7,56.7v28.5a92,92,0,0,1-77.8-75.3A93,93,0,0,1,322.82,220.1ZM156.62,247,220,128l63.3,119a74.51,74.51,0,0,1,7.6,47.5,73.55,73.55,0,0,1-61.6,60.2V334l46-46a10,10,0,0,0-14.1-14.1l-31.9,31.9V259.7l25.8-25.8A10,10,0,0,0,241,219.8l-11.7,11.7V182.9a10,10,0,0,0-20,0v48.6l-11.7-11.7a10,10,0,0,0-14.1,14.1l25.8,25.8v46.1l-31.9-31.9a10,10,0,0,0-14.1,14.1l46,46v20.5a73.64,73.64,0,0,1-60.3-60A74.62,74.62,0,0,1,156.62,247ZM20.82,310.3a55.62,55.62,0,0,1,5.7-35.6L74,185.4l47.5,89.2a55.4,55.4,0,0,1-38,80.4V336.7l31.8-31.8a10,10,0,0,0-14.1-14.1l-17.6,17.6V287.5l13.1-13.1a10,10,0,0,0-13.1-15V240.9a10,10,0,1,0-20,0v18.5a10.17,10.17,0,0,0-13.1.9,10,10,0,0,0,0,14.1l13.1,13.1v20.9L46,290.8a10,10,0,0,0-14.1,14.1l31.8,31.8v18.1A55.32,55.32,0,0,1,20.82,310.3Zm62.7,65a75.3,75.3,0,0,0,58.2-44.5,93.64,93.64,0,0,0,67.6,44V412H83.52ZM229.32,412V374.9a93.67,93.67,0,0,0,76-58.4,111.92,111.92,0,0,0,85.9,58.3V412Z"/><path class="cls-2" d="M509.12,414.9A9.9,9.9,0,0,0,502,412a10.33,10.33,0,0,0-7.1,2.9A9.9,9.9,0,0,0,492,422a10.33,10.33,0,0,0,2.9,7.1A9.9,9.9,0,0,0,502,432a10.33,10.33,0,0,0,7.1-2.9A9.73,9.73,0,0,0,512,422,10.33,10.33,0,0,0,509.12,414.9Z"/><path class="cls-1" d="M446.52,452h-69.8a10,10,0,0,0,0,20h69.8a10,10,0,0,0,0-20Z"/><path class="cls-2" d="M108.22,472h220.7a10,10,0,1,0,0-20H108.22a10,10,0,0,0,0,20Z"/><path class="cls-1" d="M64,452a10.52,10.52,0,0,0-7.1,2.9A9.9,9.9,0,0,0,54,462a10.33,10.33,0,0,0,2.9,7.1A9.9,9.9,0,0,0,64,472a10.52,10.52,0,0,0,7.1-2.9A9.73,9.73,0,0,0,74,462a10.33,10.33,0,0,0-2.9-7.1A10.52,10.52,0,0,0,64,452Z"/><path class="cls-1" d="M211.82,492H179a10,10,0,1,0,0,20h32.8a10,10,0,0,0,0-20Z"/><path class="cls-2" d="M131.22,492H99.82a10,10,0,1,0,0,20h31.4a10,10,0,1,0,0-20Z"/><path class="cls-2" d="M412.22,492H259.52a10,10,0,1,0,0,20h152.7a10,10,0,0,0,0-20Z"/><path class="cls-2" d="M252.82,20A20.14,20.14,0,0,1,273,40.2a10,10,0,0,0,20,0A20.14,20.14,0,0,1,313.22,20a10,10,0,0,0,0-20A40.17,40.17,0,0,0,283,13.7,40.17,40.17,0,0,0,252.82,0a10,10,0,0,0,0,20Z"/><path class="cls-2" d="M10,44.9a20.21,20.21,0,0,1,20.2,20.2,10,10,0,0,0,20,0,20.21,20.21,0,0,1,20.2-20.2,10,10,0,0,0,0-20,40.17,40.17,0,0,0-30.2,13.7A40.17,40.17,0,0,0,10,24.9a10,10,0,0,0,0,20Z"/><path class="cls-1" d="M131.72,75.1a20.21,20.21,0,0,1,20.2,20.2,10,10,0,0,0,20,0,20.21,20.21,0,0,1,20.2-20.2,10,10,0,1,0,0-20,40.17,40.17,0,0,0-30.2,13.7,40.17,40.17,0,0,0-30.2-13.7,10,10,0,0,0,0,20Z"/></g></g></svg>