<svg xmlns="http://www.w3.org/2000/svg" viewBox="0 0 512.04 438.24"><defs><style>.cls-1{fill:#fff;}.cls-2{fill:#2ecc71;}.cls-3{fill:#333;}.cls-4{fill:#000333;}</style></defs><title>Ресурс 1</title><g id="Слой_2" data-name="Слой 2"><g id="Capa_1" data-name="Capa 1"><path class="cls-1" d="M286.6,403.34c68.8,39.7,156.6,16.3,196.2-52.3a143.31,143.31,0,0,0,17.2-95.5h.1L474.4,76.94,320,139.14Z"/><path class="cls-2" d="M32.8,336.34C80,418,184.6,445.94,266.5,398.64s110.1-151.9,62.9-233.5a170,170,0,0,0-87.2-74.2h0L42.9,9.94,12.3,222.64h.1A170.17,170.17,0,0,0,32.8,336.34Z"/><path class="cls-3" d="M510.1,255.14a2.77,2.77,0,0,0-.1-.9L484.3,75.64a9.72,9.72,0,0,0-4.9-7.2,9.89,9.89,0,0,0-8.7-.6l-118.1,47.5a10,10,0,1,0,7.5,18.5l106.3-42.7L490,255.84c0,.5.1.9.1,1.4a133.43,133.43,0,0,1-198.6,137.4,4.88,4.88,0,0,0-.7-.3A181.94,181.94,0,0,0,309.5,378l117.1-31.4a10,10,0,0,0-5.1-19.3l-90.1,24.1a181.7,181.7,0,0,0,22.9-48.3l80.4-21.5a10,10,0,0,0-5.1-19.3l-59.1,15.8,22.2-38.5,47-12.6a10,10,0,0,0-5.1-19.3l-27.7,7.4,21.3-36.9a10,10,0,0,0-17.4-10l-21.3,36.9-7.4-27.7a10,10,0,1,0-19.3,5.1l12.6,47-13,22.5A180.43,180.43,0,0,0,246.3,81.64c-.1,0-.1-.1-.2-.1l-45.3-18.4a10,10,0,1,0-7.5,18.5l44.8,18.2.6.3a161.43,161.43,0,0,1,82.1,69.8A161,161,0,0,1,270,384.54l-16.8-29.1,36.4-135.8a10,10,0,0,0-19.3-5.1l-31.2,116.6-37-64.1,25.2-94.2a10,10,0,1,0-19.3-5.1l-20,74.7-29.2-50.6,15.2-56.7a10,10,0,0,0-19.3-5.1l-10,37.4L117,119.54a10,10,0,0,0-17.4,10l27.7,47.9-37.4-10a10,10,0,0,0-5.1,19.3l56.7,15.2,29.2,50.6-74.9-20.1a10,10,0,0,0-5.1,19.3l94.2,25.2,37,64.1-116.5-31.2a10,10,0,0,0-5.1,19.3l135.8,36.4,16.8,29.1c-75.6,37.7-168.6,10.5-211.2-63.3a159.06,159.06,0,0,1-19.4-107.1,7.57,7.57,0,0,0,.1-1.5L51,24l66.3,26.9a10,10,0,1,0,7.5-18.5L46.6.74a9.87,9.87,0,0,0-8.7.6A9.72,9.72,0,0,0,33,8.64L2.4,221.24c0,.3-.1.7-.1,1a180.72,180.72,0,0,0,21.9,119.1c33.4,57.9,94.3,90.2,156.9,90.2a179.6,179.6,0,0,0,81.7-19.6l12.3,21.3a10,10,0,0,0,17.4-10l-4.6-7.9a152.51,152.51,0,0,0,70.6,17.3,154.25,154.25,0,0,0,39.8-5.2,152.93,152.93,0,0,0,111.8-172.3Z"/><path class="cls-4" d="M158.2,66.74a10.52,10.52,0,0,0,7.1-2.9,9.9,9.9,0,0,0,2.9-7.1,10.52,10.52,0,0,0-2.9-7.1,9.9,9.9,0,0,0-7.1-2.9,10.52,10.52,0,0,0-7.1,2.9,9.9,9.9,0,0,0-2.9,7.1,10.52,10.52,0,0,0,2.9,7.1A10.07,10.07,0,0,0,158.2,66.74Z"/><path class="cls-2" d="M427.7,149.24a10,10,0,0,0,8.1,4.1,10.1,10.1,0,0,0,5.9-1.9,10,10,0,0,0,2.2-14l-.1-.1a10,10,0,0,0-14-2.2,10.15,10.15,0,0,0-2.1,14.1Z"/></g></g></svg>