<svg xmlns="http://www.w3.org/2000/svg" viewBox="0 0 511.8 469.3"><defs><style>.cls-1{fill:#fff;}.cls-2{fill:#2ecc71;}.cls-3{fill:#333;}</style></defs><title>Ресурс 4</title><g id="Слой_2" data-name="Слой 2"><g id="Layer_1" data-name="Layer 1"><path class="cls-1" d="M384.5,41.8h0a94.27,94.27,0,0,1,94.3,94.3h0c0,60,8.6,120,8.6,120s-42.8,25.7-102.8,34.3c-60-8.6-102.8-34.3-102.8-34.3s8.6-60,8.6-120h0a94.1,94.1,0,0,1,94.1-94.3Z"/><path class="cls-2" d="M350.3,127.5V101.8A60,60,0,0,1,398.6,43a92.24,92.24,0,0,0-14-1.2h0a94.27,94.27,0,0,0-94.3,94.3c0,60-8.6,120-8.6,120s42.8,25.7,102.8,34.3V161.8Z"/><path class="cls-1" d="M488.3,318.1l-58.7-23.5a17.16,17.16,0,0,1-10.8-15.9V247.5H350.2v31.2a17.16,17.16,0,0,1-10.8,15.9l-58.8,23.5A25.73,25.73,0,0,0,264.4,342v34a8.6,8.6,0,0,0,8.6,8.6h0v77.1H495.8V384.6h8.6V342A25.5,25.5,0,0,0,488.3,318.1Z"/><path class="cls-2" d="M384.5,290.3a102.64,102.64,0,0,0,35.2-6.3,16,16,0,0,1-.9-5.3V247.5H350.2v31.2a16,16,0,0,1-.9,5.3A103.51,103.51,0,0,0,384.5,290.3Z"/><path class="cls-2" d="M273.1,376v25.7h8.6a8.6,8.6,0,0,1,8.6,8.6v51.4H316V376Z"/><path class="cls-1" d="M384.5,264.6h0c-42.6,0-68.6-34.5-68.6-77.1V153.2c24.7,0,27.4-17.7,31.9-27.7a5.05,5.05,0,0,1,7.7-2c36.3,27.4,106.1,6.9,106.1,64h0A77,77,0,0,1,384.5,264.6Z"/><path class="cls-2" d="M350.3,187.5V123.2a4.68,4.68,0,0,0-2.4,2.4c-4.4,10-7.2,27.7-31.9,27.7v31.5c0,35.4,14.2,67.8,48.4,77.1a76.16,76.16,0,0,0,41.6-.3A77.27,77.27,0,0,1,350.3,187.5Z"/><path class="cls-2" d="M488.3,318.1l-36.6-14.6a68.58,68.58,0,0,1-134.6,0l-36.6,14.6A25.73,25.73,0,0,0,264.3,342V461.7H461.4V384.6h42.8V342A25,25,0,0,0,488.3,318.1Z"/><path class="cls-1" d="M461.7,367.4l38.9-38.9a25.32,25.32,0,0,1,3.9,13.5v42.6H461.7V367.4Z"/><path class="cls-1" d="M451.8,303.5a68.58,68.58,0,0,1-134.6,0l-24.1,9.6a94.2,94.2,0,0,0,182.8,0Z"/><rect class="cls-1" x="16.1" y="367.4" width="51.4" height="94.3"/><path class="cls-2" d="M245.6,259.4l-75.3-20.5H101.7L26.4,259.4A25.6,25.6,0,0,0,7.5,284.2v83.2H58.9v94.3H264.6V284.2A25.78,25.78,0,0,0,245.6,259.4Z"/><path class="cls-1" d="M212.2,250.3l-41.9-11.4H101.7L59.8,250.3a77,77,0,0,0,152.4,0Z"/><path class="cls-2" d="M93.2,208.9v30a42.8,42.8,0,0,0,85.6,0v-30Z"/><path class="cls-1" d="M93.2,238a102.14,102.14,0,0,0,85.6,0V208.9H93.2Z"/><path class="cls-1" d="M213.2,110.3V58.9H58.9v51.4a17.15,17.15,0,0,0,0,34.3,77.1,77.1,0,0,0,154.2,0,17.15,17.15,0,0,0,.1-34.3Z"/><path class="cls-2" d="M101.8,144.6V58.9H58.9v51.4a17.15,17.15,0,0,0,0,34.3A77.08,77.08,0,0,0,136,221.7a75.84,75.84,0,0,0,21.4-3.1A76.91,76.91,0,0,1,101.8,144.6Z"/><path class="cls-2" d="M202.8,113.9a16.73,16.73,0,0,1,19-1.2V58.9a34,34,0,0,0-17.5-29.7A25.62,25.62,0,0,0,179,7.5H110.4a60,60,0,0,0-60,60v45.2a16.76,16.76,0,0,1,11.8-2.1c8.3,1.6,16.7-3,18.8-11.2h0L83.1,91a8.53,8.53,0,0,1,8-6.5c17.9-.5,68.5-3.1,96.4-17l5,29.9A24.83,24.83,0,0,0,202.8,113.9Z"/><path class="cls-1" d="M101.8,58.9A51.38,51.38,0,0,1,153.2,7.5H110.4a60,60,0,0,0-60,60v45.2a16.77,16.77,0,0,1,16-.7c5.5,2.8,11.5-.5,13-6.5l3.7-14.6a8.53,8.53,0,0,1,8-6.5c2.8-.1,6.5-.2,10.7-.4V58.9Z"/><path class="cls-1" d="M7.5,284.2v83.2H58.9V339.3a43.13,43.13,0,0,0-9-26.3L14.2,267.1A25.28,25.28,0,0,0,7.5,284.2Z"/><path class="cls-2" d="M324.1,413l-28-9.3a8.59,8.59,0,0,1-5.9-8.1V376.1H238.8v19.5a8.5,8.5,0,0,1-5.9,8.1l-28,9.3a25.71,25.71,0,0,0-17.6,24.4v24.3H341.5V437.4A25.27,25.27,0,0,0,324.1,413Z"/><path class="cls-1" d="M264.6,410.3a84.58,84.58,0,0,0,32.3-6.4l-.8-.3a8.59,8.59,0,0,1-5.9-8.1V376H238.8v19.5a8.5,8.5,0,0,1-5.9,8.1l-.8.3A86,86,0,0,0,264.6,410.3Z"/><path class="cls-1" d="M264.6,196h0a77.08,77.08,0,0,0-77.1,77.1v25.7H341.7V273.1A77.14,77.14,0,0,0,264.6,196Z"/><path class="cls-2" d="M290.3,200.5a75.9,75.9,0,0,0-25.7-4.5,77.08,77.08,0,0,0-77.1,77.1v25.7h51.4V273.1A77,77,0,0,1,290.3,200.5Z"/><path class="cls-2" d="M332.8,281.7h-.6A16.26,16.26,0,0,1,316,265.5h0a6.71,6.71,0,0,0-8.9-6.3c-63.3,22.5-102.5,22.5-102.5,22.5h-8.2a17.36,17.36,0,0,0-17.3,14.6,17.12,17.12,0,0,0,17,19.6h8.6v7.7c0,32.2,25.1,59.4,57.3,60.8a60,60,0,0,0,62.7-59.9v-8.6h8.6a17.17,17.17,0,0,0,17-19.6A17.8,17.8,0,0,0,332.8,281.7Z"/><polygon class="cls-2" points="316 178.9 264.6 200.9 213.2 178.9 213.2 230.3 264.6 208.3 316 230.3 316 178.9"/><path class="cls-1" d="M238.9,324.6V278.2a233.34,233.34,0,0,1-34.3,3.6H196a17.1,17.1,0,1,0,0,34.2h8.6v6.1c0,32.8,25.3,61.5,58.1,62.5a59.77,59.77,0,0,0,19-2.5A60,60,0,0,1,238.9,324.6Z"/><path class="cls-1" d="M324.1,413l-14-4.7a51.38,51.38,0,0,1-91.2,0l-14,4.7a25.71,25.71,0,0,0-17.6,24.4v24.3H341.5V437.4A25.27,25.27,0,0,0,324.1,413Z"/><path class="cls-3" d="M136,186.4a29.87,29.87,0,0,0,23-11.3,7.47,7.47,0,1,0-11.6-9.4,13.91,13.91,0,0,1-22.6,0,7.47,7.47,0,0,0-11.6,9.4A29.19,29.19,0,0,0,136,186.4Z"/><path class="cls-3" d="M101.8,143.6a7.55,7.55,0,0,0,7.5-7.5v-8.6a7.5,7.5,0,0,0-15,0v8.6A7.49,7.49,0,0,0,101.8,143.6Z"/><path class="cls-3" d="M170.3,143.6a7.55,7.55,0,0,0,7.5-7.5v-8.6a7.5,7.5,0,0,0-15,0v8.6A7.55,7.55,0,0,0,170.3,143.6Z"/><path d="M384.5,229.2a29.87,29.87,0,0,0,23-11.3,7.47,7.47,0,1,0-11.6-9.4,13.91,13.91,0,0,1-22.6,0,7.47,7.47,0,0,0-11.6,9.4A29.19,29.19,0,0,0,384.5,229.2Z"/><path d="M350.3,186.4a7.55,7.55,0,0,0,7.5-7.5v-8.6a7.5,7.5,0,0,0-15,0v8.6A7.49,7.49,0,0,0,350.3,186.4Z"/><path d="M418.8,186.4a7.55,7.55,0,0,0,7.5-7.5v-8.6a7.5,7.5,0,0,0-15,0v8.6A7.55,7.55,0,0,0,418.8,186.4Z"/><path class="cls-3" d="M491.1,311.1l-58.7-23.5c-.3-.1-.6-.3-.9-.4,40.6-9.2,59.8-24.7,60.7-25.4a7.87,7.87,0,0,0,2.7-6.9c-.1-.6-8.5-60.1-8.5-118.9a101.8,101.8,0,1,0-203.6,0c0,15.4-.7,34.2-1.8,52l-16.4,8.2-48.1-24c-.1-.1-.3-.1-.4-.2a81.65,81.65,0,0,0,4.3-21,24.59,24.59,0,0,0,8.8-42.2V58.9a41.66,41.66,0,0,0-18.4-34.4A33,33,0,0,0,178.8,0H110.2A67.6,67.6,0,0,0,42.7,67.5v41.3A24.59,24.59,0,0,0,51.5,151a84.6,84.6,0,0,0,34,61.5v20.7l-62,18.6A33.27,33.27,0,0,0,0,283.7v83.7a7.55,7.55,0,0,0,7.5,7.5H8.6v86.8a7.5,7.5,0,0,0,15,0V374.9H51.4v86.8a7.5,7.5,0,0,0,15,0V332.4A32.67,32.67,0,0,0,60.8,314L48,294.7A7.5,7.5,0,0,0,35.5,303l12.8,19.2a18.21,18.21,0,0,1,3.1,10.1v27.6H15V283.7a18,18,0,0,1,13-17.4l25.7-7.7a84.64,84.64,0,0,0,122.4,54.8A24.66,24.66,0,0,0,196,323.5h1.1v1.1a67.44,67.44,0,0,0,34.3,58.7v12.2a1,1,0,0,1-.7,1l-28,9.3A33.12,33.12,0,0,0,180,437.3v24.3a7.5,7.5,0,0,0,15,0V437.3A18.3,18.3,0,0,1,207.4,420l8.2-2.7a58.86,58.86,0,0,0,97.8,0l8.2,2.7A18.2,18.2,0,0,1,334,437.3v24.3a7.5,7.5,0,0,0,15,0V437.3a33.12,33.12,0,0,0-22.7-31.5l-28-9.3a1.09,1.09,0,0,1-.7-1V383.3a68,68,0,0,0,31.8-40.5,76.09,76.09,0,0,0,127.4-29.2l28.6,11.5A18,18,0,0,1,496.8,342v35.1H468.9v-9.6a7.5,7.5,0,0,0-15,0v94.3a7.5,7.5,0,1,0,15,0V392.2h19.3v69.6a7.5,7.5,0,0,0,15,0V392.2h1.1a7.51,7.51,0,0,0,7.5-7.5V342.1A32.68,32.68,0,0,0,491.1,311.1Zm-193.3-175a86.8,86.8,0,1,1,173.6,0c0,50.4,6.1,101.3,8,116.5-6.7,4.4-23.9,14.1-53,20.4V261.1a87.62,87.62,0,0,0,11.4-7.7,84.25,84.25,0,0,0,31.5-65.8c0-42.4-30.7-48.5-60.3-54.4-18.9-3.7-38.4-7.6-53.9-20a7.35,7.35,0,0,0-7.9-.9,7.64,7.64,0,0,0-4.3,6.8c0,.2-.3,19.9-28.6,27a7.52,7.52,0,0,0,3.6,14.6c23.7-5.9,33.3-19.2,37.2-29.2,16.3,9.6,34.5,13.3,50.9,16.5,31.7,6.3,48.2,10.9,48.2,39.6a73.6,73.6,0,0,1-1.7,15.5,69.54,69.54,0,0,1-24.2,38.7,69.65,69.65,0,0,1-84.2,2.4,83.42,83.42,0,0,0-20.5-31.6V179.1a7.42,7.42,0,0,0-3.6-6.4,7.34,7.34,0,0,0-7.3-.3l-16.2,8.1C297.3,164.7,297.8,149.8,297.8,136.1ZM308.5,191v27.1l-27.2-13.5Zm-87.8,0,27.1,13.6-27.1,13.6Zm-15,21.4a85.66,85.66,0,0,0-19.3,28.5c0-.7.1-1.4.1-2.1V212.6a84.8,84.8,0,0,0,19.3-19.9v19.7ZM66.4,144.6a7.55,7.55,0,0,0-7.5-7.5,9.6,9.6,0,0,1,0-19.2H76a7.55,7.55,0,0,0,7.1-5.1L90,92.1c17.2-.4,70.7-2.8,100.8-17.9a7.54,7.54,0,0,0-6.7-13.5C151.8,76.8,85.3,77,84.6,77a7.55,7.55,0,0,0-7.1,5.1l-6.9,20.6H57.8V67.5A52.56,52.56,0,0,1,110.3,15h68.6a18.08,18.08,0,0,1,17.9,15.3,7.72,7.72,0,0,0,3.7,5.4,26.74,26.74,0,0,1,13.7,23.2v43.9h-9.7a7.5,7.5,0,0,0,0,15h8.6a9.6,9.6,0,0,1,0,19.2,7.55,7.55,0,0,0-7.5,7.5,69.6,69.6,0,0,1-139.2.1ZM136,229.2a84.75,84.75,0,0,0,35.3-7.7v17.4a35.3,35.3,0,0,1-70.6.1V221.5A83.56,83.56,0,0,0,136,229.2Zm-67.9,25,18.5-5.6a50.31,50.31,0,0,0,94,13.5,80.23,80.23,0,0,0-.7,11v7.1a24.48,24.48,0,0,0-8.6,18.6A69.65,69.65,0,0,1,68.1,254.2ZM293.8,410.8l4.8,1.6a44,44,0,0,1-68,0l4.8-1.6a16,16,0,0,0,11-15.2v-6a67.5,67.5,0,0,0,36.4,0v6A16.1,16.1,0,0,0,293.8,410.8Zm-29.2-33.7a52.56,52.56,0,0,1-52.5-52.5V316a7.55,7.55,0,0,0-7.5-7.5H196a9.59,9.59,0,0,1-4.8-17.9,6.55,6.55,0,0,0,1.8-1.5c18.5-.5,78.6-4,118.1-26.6a7.48,7.48,0,0,0-7.4-13c-34.6,19.8-89,23.7-108.7,24.5v-.9a69.1,69.1,0,0,1,11.9-38.8,7.85,7.85,0,0,0,2.4,2.4,7.94,7.94,0,0,0,3.9,1.1,8.44,8.44,0,0,0,3.4-.8l48.1-24,48.1,24a8.08,8.08,0,0,0,3.4.8,7.65,7.65,0,0,0,3.9-1.1,6.89,6.89,0,0,0,2.4-2.4,69.34,69.34,0,0,1,11.9,38.8V284a7.55,7.55,0,0,0,3.7,6.5,9.59,9.59,0,0,1-4.8,17.9h-8.6a7.55,7.55,0,0,0-7.5,7.5v8.6A52.79,52.79,0,0,1,264.6,377.1Zm119.9-25.8a61.14,61.14,0,0,1-51.2-27.8,24.54,24.54,0,0,0,15.9-43.2v-7.1c0-3-.2-6-.5-9a84.53,84.53,0,0,0,62.6,3.5v11a24.65,24.65,0,0,0,15.5,22.9l16.2,6.5A61.09,61.09,0,0,1,384.5,351.3Z"/><path class="cls-3" d="M286.4,335.9a7.47,7.47,0,0,0-10.5,1.1,13.91,13.91,0,0,1-22.6,0,7.47,7.47,0,1,0-11.6,9.4,29.06,29.06,0,0,0,46,0A7.68,7.68,0,0,0,286.4,335.9Z"/><circle class="cls-3" cx="239" cy="307.5" r="7.5"/><circle class="cls-3" cx="290" cy="307.5" r="7.5"/></g></g></svg>