<svg xmlns="http://www.w3.org/2000/svg" viewBox="0 0 511.1 424.4"><defs><style>.cls-1{fill:#2ecc71;}.cls-2{fill:#fff;}.cls-3{fill:#333;}</style></defs><title>Ресурс 6</title><g id="Слой_2" data-name="Слой 2"><g id="Layer_1" data-name="Layer 1"><path class="cls-1" d="M467.1,121.1a113.47,113.47,0,0,0-211.6-57,113.47,113.47,0,0,0-211.6,57c0,158.8,211.6,295.6,211.6,295.6S467.1,279.9,467.1,121.1Z"/><path class="cls-2" d="M467.1,121.1c0,158.8-211.7,295.6-211.7,295.6s-21.7-14-51.2-38.3C238,355.2,410.1,229.9,410.1,86.7A113,113,0,0,0,381.2,11,113.41,113.41,0,0,1,467.1,121.1Z"/><path class="cls-2" d="M254.1,328.9a12.94,12.94,0,0,1-12.6-10.4L210.2,152.4,177,231.5a12.66,12.66,0,0,1-11.4,7.8,12.91,12.91,0,0,1-11.9-7l-8.9-17.7H20.3a12.8,12.8,0,1,1,0-25.6H152.7a12.81,12.81,0,0,1,11.4,7l39-92.7a12.8,12.8,0,0,1,24.4,2.6l25.8,137L264,178.8a12.77,12.77,0,0,1,12.6-10.7h41.8a12.76,12.76,0,0,1,10.7,5.8L348.7,204l8.5-10.3a12.71,12.71,0,0,1,9.9-4.7H490.7a12.8,12.8,0,1,1,0,25.6H373.1l-15.7,19.1a12.75,12.75,0,0,1-20.6-1.1l-25.4-38.9h-24L266.7,318.2a12.86,12.86,0,0,1-12.5,10.7Z"/><path class="cls-3" d="M490.7,181.5H465.2a208.5,208.5,0,0,0,9.4-60.4,121.39,121.39,0,0,0-26.7-75.8,7.47,7.47,0,1,0-11.6,9.4,104.87,104.87,0,0,1,23.4,66.4c0,19.5-3.4,39.8-10.1,60.4H425.9a7.5,7.5,0,0,0,0,15h64.9a5.3,5.3,0,1,1,0,10.6H373.1a7.61,7.61,0,0,0-5.8,2.7l-15.7,19.1a5.31,5.31,0,0,1-4.4,1.9,5.56,5.56,0,0,1-4.2-2.4l-25.4-38.9a7.52,7.52,0,0,0-6.3-3.4h-24a7.43,7.43,0,0,0-7.4,6.3L259.2,317a5.24,5.24,0,0,1-5.1,4.4H254a5.18,5.18,0,0,1-5.2-4.3L217.5,151a7.65,7.65,0,0,0-6.6-6.1,7.46,7.46,0,0,0-7.7,4.5l-33.3,79.1a5.49,5.49,0,0,1-4.7,3.3,5.23,5.23,0,0,1-4.9-2.9l-8.9-17.7a7.6,7.6,0,0,0-6.7-4.1H20.3a5.3,5.3,0,1,1,0-10.6H152.7a5.22,5.22,0,0,1,4.7,2.9,7.42,7.42,0,0,0,13.5-.5l39-92.7a5.38,5.38,0,0,1,5.5-3.2,5.31,5.31,0,0,1,4.7,4.3L246,244.2a7.6,7.6,0,0,0,7.4,6.1h.1a7.49,7.49,0,0,0,7.3-6.3l10.7-64.1a5.18,5.18,0,0,1,5.2-4.4h41.8a5.42,5.42,0,0,1,4.5,2.4L342.6,208a7.45,7.45,0,0,0,5.9,3.4,7.65,7.65,0,0,0,6.2-2.7l8.5-10.3a5.33,5.33,0,0,1,4.1-1.9h24.6a7.5,7.5,0,0,0,0-15H367.3a20.32,20.32,0,0,0-15.7,7.4l-2,2.4-14-21.6a20.17,20.17,0,0,0-17-9.2H276.8a20.12,20.12,0,0,0-20,17l-3.7,22.4-18-95.5A20.06,20.06,0,0,0,217.3,88a20.38,20.38,0,0,0-20.8,12.3l-34.9,83a20.44,20.44,0,0,0-8.6-1.9H61.5A194.61,194.61,0,0,1,51.4,121,106,106,0,0,1,249.1,67.8a7.43,7.43,0,0,0,6.5,3.7,7.55,7.55,0,0,0,6.5-3.7A106.48,106.48,0,0,1,353.8,15a105.2,105.2,0,0,1,59.1,18,7.49,7.49,0,1,0,8.4-12.4A120.08,120.08,0,0,0,353.8,0a121.42,121.42,0,0,0-98.1,50.3A120.94,120.94,0,0,0,36.6,121,209,209,0,0,0,46,181.4H20.3a20.35,20.35,0,0,0,0,40.7H62c16.1,32.6,39.8,66,70.4,99.1a7.51,7.51,0,0,0,5.5,2.4,7.82,7.82,0,0,0,5.1-2,7.55,7.55,0,0,0,.4-10.6c-27.6-29.8-49.2-59.7-64.6-88.9h61.4l6.8,13.6a20.5,20.5,0,0,0,18.8,11.2,20.24,20.24,0,0,0,18-12.4l23.6-56.1L234.1,320A20.25,20.25,0,0,0,254,336.5h.2a20.18,20.18,0,0,0,19.8-17l19.7-118.3h13.6l23.2,35.5a20.54,20.54,0,0,0,15.9,9.2,20.24,20.24,0,0,0,16.8-7.4l13.5-16.4h55.5C403.7,276.4,358,323.5,323.8,354a685.5,685.5,0,0,1-68.3,53.8A696.76,696.76,0,0,1,167,335.2,7.5,7.5,0,1,0,156.6,346c48.6,47,93,75.9,94.9,77.2a7.3,7.3,0,0,0,4.1,1.2,7.79,7.79,0,0,0,4.1-1.2c1.4-.9,34-22.1,74-57.7,36.6-32.6,86.2-83.9,115.4-143.2h41.7a20.4,20.4,0,0,0-.1-40.8Z"/></g></g></svg>