<svg xmlns="http://www.w3.org/2000/svg" viewBox="0 0 454.03 511.8"><defs><style>.cls-1{fill:#2ecc71;}.cls-2{fill:#d0d1d2;}.cls-3{fill:#fff;}.cls-4{fill:#333;}</style></defs><title>Ресурс 5</title><g id="Слой_2" data-name="Слой 2"><g id="Capa_1" data-name="Capa 1"><path class="cls-1" d="M252.32,233.9v69.7c0,10.3,7.3,22.1,17.4,24.1l18.1,5.2,26.6-25-21-3.9c-10.1-2-17.4-13.8-17.4-24.1v-46Z"/><path class="cls-2" d="M154.42,299.4l-17.7,5.3,39,54.6a11.24,11.24,0,0,0,13.6,3.8l37.7-16h0l-61.2-45.7A12.92,12.92,0,0,0,154.42,299.4Z"/><path class="cls-2" d="M264.72,363.2a11.24,11.24,0,0,0,13.6-3.8l39-54.6h-.1l-17.6-5.3a13.13,13.13,0,0,0-11.5,2L227,347.1h0Z"/><polygon class="cls-3" points="227.02 347.1 197.32 359.7 214.72 379.9 239.32 379.9 256.72 359.7 227.02 347.1"/><polygon class="cls-3" points="239.32 379.9 227.02 379.9 214.72 379.9 191.92 504.5 262.12 504.5 239.32 379.9"/><path class="cls-1" d="M289.92,42.6a44.69,44.69,0,0,0-20.5-9.6V180c0,21.2-22.8,72.3-67.2,86.8a78.91,78.91,0,0,0,24.7,3.9c60.7,0,91.9-65.9,91.9-90.7V107.8C318.92,82.9,308.72,58.8,289.92,42.6Z"/><path class="cls-1" d="M227,481.4s-68.7-183.2-72.6-182l-102.8,31a30.18,30.18,0,0,0-21.2,24L7.72,487a15,15,0,0,0,14.7,17.5h409.2a14.88,14.88,0,0,0,14.7-17.5l-22.6-132.6a30.34,30.34,0,0,0-21.2-24l-102.8-31C295.72,298.2,227,481.4,227,481.4Z"/><path class="cls-3" d="M446.32,487l-22.6-132.6a30.34,30.34,0,0,0-21.2-24l-102.8-31c-1.1-.3-6.9,13-14.9,32.5l74.6,22.5a15.52,15.52,0,0,1,10.8,12.2l23.5,137.9h37.9A14.88,14.88,0,0,0,446.32,487Z"/><path class="cls-1" d="M282.32,7.5H171.72A51.49,51.49,0,0,0,120.22,59v84.6s14.2-.3,23.3,8.7a3,3,0,0,0,5.1-2.2V80.9a22.79,22.79,0,0,1,22.8-22.8h20.7A23.8,23.8,0,0,1,207,63.4l2,1.7a28.11,28.11,0,0,0,18,6.4,28.68,28.68,0,0,0,18-6.4l2-1.7a23.8,23.8,0,0,1,14.9-5.3h20.7a22.79,22.79,0,0,1,22.8,22.8v69.2a3,3,0,0,0,5.1,2.2c9.1-9,23.3-8.7,23.3-8.7V59A51.49,51.49,0,0,0,282.32,7.5Z"/><circle class="cls-3" cx="336.22" cy="398.4" r="31.3"/><circle class="cls-1" cx="336.22" cy="398.4" r="13.8"/><path class="cls-4" d="M453.72,485.8l-22.6-132.6a37.76,37.76,0,0,0-26.5-30l-61.1-18.4a68.2,68.2,0,0,0-47.3-59.2c1.9-2.1,3.7-4.3,5.4-6.4,14.5-18.5,22.3-38.8,24.3-52.7h4.7a22.21,22.21,0,0,0,22.2-22.2V152.9a22.26,22.26,0,0,0-11.5-19.4V106.1a7.5,7.5,0,1,0-15,0v30.8a47.13,47.13,0,0,0-10,2.9,5.36,5.36,0,0,0-1.1.5l-2.4,1.2V80.9a30.34,30.34,0,0,0-30.3-30.3h-20.7a31.13,31.13,0,0,0-19.6,7l-2,1.7a21.17,21.17,0,0,1-26.6,0l-2-1.7a31.13,31.13,0,0,0-19.6-7h-20.7A30.34,30.34,0,0,0,141,80.9v60.4l-2.4-1.2a11.73,11.73,0,0,0-1.1-.5,45.53,45.53,0,0,0-10-2.9V59a44.06,44.06,0,0,1,44-44h110.6a44.06,44.06,0,0,1,44,44V70.8a7.5,7.5,0,1,0,15,0V59a59.11,59.11,0,0,0-59-59H171.72a59.11,59.11,0,0,0-59,59v74.4a22.38,22.38,0,0,0-11.5,19.4v11.4a22.21,22.21,0,0,0,22.2,22.2h4.7c2,13.9,9.8,34.2,24.3,52.7,1.6,2.1,3.4,4.2,5.4,6.4a68.5,68.5,0,0,0-47.3,59.2l-61.1,18.4a37.92,37.92,0,0,0-26.5,30L13.72,407a7.51,7.51,0,0,0,14.8,2.6l9.2-53.8a22.85,22.85,0,0,1,16-18.1l56.5-17v14.8a37.43,37.43,0,0,0-28.5,23.6,35.78,35.78,0,0,0-2.2,10.2L74,439.4a19,19,0,0,0,19,20.5h9.3a7.5,7.5,0,1,0,0-15H93a4.34,4.34,0,0,1-3-1.3,3.86,3.86,0,0,1-1.1-3.1l5.5-70.1a26.33,26.33,0,0,1,1.3-6.2,22.55,22.55,0,0,1,21.2-14.4h1.4A22.35,22.35,0,0,1,141,370.4l5.5,70.1a4.11,4.11,0,0,1-1.1,3.1,4.34,4.34,0,0,1-3,1.3h-9.3a7.5,7.5,0,0,0,0,15h9.3a19,19,0,0,0,19-20.5l-5.5-70.1a37.73,37.73,0,0,0-2.9-11.9,37,37,0,0,0-27.9-22V316l25.8-7.8c2.3,4.9,7,15.6,16.2,38.6,9.3,23.2,20.8,53,31.9,81.9.1.2.2.5.3.7,7.4,19.3,14.5,38.2,20.7,54.5a7.57,7.57,0,0,0,7,4.9,7.43,7.43,0,0,0,7-4.9c6.1-16.3,13.3-35.2,20.7-54.5.1-.2.2-.5.3-.7,11.1-28.9,22.6-58.6,31.8-81.9,9.2-23,13.9-33.7,16.2-38.7l25.8,7.8v44.3a39,39,0,1,0,15,.1V320.5l56.5,17a22.85,22.85,0,0,1,16,18.1l22.6,132.6a7.54,7.54,0,0,1-1.6,6.1,7.32,7.32,0,0,1-5.7,2.6H22.42a7.32,7.32,0,0,1-5.7-2.6,7.45,7.45,0,0,1-1.6-6.1l7.5-43.8a7.51,7.51,0,1,0-14.8-2.6L.32,485.6a22.52,22.52,0,0,0,22.2,26.2h409.2a22.49,22.49,0,0,0,17.2-8A22.2,22.2,0,0,0,453.72,485.8ZM326.42,152.1a33,33,0,0,1,7.2-1,8.08,8.08,0,0,0,3.7-.9,7.63,7.63,0,0,1,.5,2.7v11.4a7.17,7.17,0,0,1-7.2,7.2h-4.2V152.1Zm-198.8,19.4h-4.2a7.17,7.17,0,0,1-7.2-7.2V152.9a8.57,8.57,0,0,1,.5-2.7,7.79,7.79,0,0,0,3.7.9,31.68,31.68,0,0,1,7.2,1v19.4Zm15,8.4V160.2a10.25,10.25,0,0,0,7.1-.4,10.57,10.57,0,0,0,6.5-9.7V80.9a15.36,15.36,0,0,1,15.3-15.3h20.7a16,16,0,0,1,10.1,3.6l2,1.7a35.86,35.86,0,0,0,45.4,0l2-1.7a16.41,16.41,0,0,1,10.1-3.6h20.7a15.36,15.36,0,0,1,15.3,15.3v69.2a10.32,10.32,0,0,0,6.5,9.7,11.5,11.5,0,0,0,4.1.8,10.32,10.32,0,0,0,3-.4v19.7c0,10.9-7.6,32.2-21.6,50a95,95,0,0,1-18,17.8c-.2.2-.5.3-.7.5-11.4,8.4-26,14.9-44.2,14.9s-32.8-6.5-44.2-14.9a4.23,4.23,0,0,0-.7-.5,98,98,0,0,1-18-17.8C150.12,212.1,142.62,190.9,142.62,179.9Zm133.5,121.2L227,337.8l-49.1-36.7a35.29,35.29,0,0,0,7.6-21.2V267.8a88,88,0,0,0,83,0v12.1A35.51,35.51,0,0,0,276.12,301.1Zm-110.7-8.4a20.1,20.1,0,0,0-12.6-.6,4.33,4.33,0,0,0-.5.1l-25.9,7.8a53.34,53.34,0,0,1,44.2-42v21.8A20.67,20.67,0,0,1,165.42,292.7Zm20.3,60.2v-.1c-.4-1-.8-1.9-1.1-2.8-.1-.2-.1-.3-.2-.5-.4-.9-.7-1.8-1.1-2.7,0-.1-.1-.1-.1-.2-1.1-2.8-2.2-5.5-3.2-8-.1-.2-.1-.4-.2-.6-.3-.7-.6-1.5-.9-2.2-.1-.3-.2-.5-.3-.8a18,18,0,0,1-.8-2.1,1.42,1.42,0,0,1-.2-.6l-1.5-3.6c-.1-.3-.3-.6-.4-.9a11.22,11.22,0,0,1-.5-1.3c-.2-.5-.4-1-.6-1.4-.1-.2-.1-.4-.2-.5s-.1-.3-.2-.4c-.9-2.1-1.7-4.1-2.5-6h0c-.4-1-.8-2-1.2-2.9-.2-.5-.4-1-.6-1.4l42.2,31.6-17.7,7.5h-.1l-7.3,3C186.52,355,186.12,353.9,185.72,352.9Zm17.9,45.9c-1.5-3.8-3-7.7-4.5-11.6-2.3-6-4.6-11.8-6.7-17.3l2.8-1.2,11.4,13.3Zm23.5,60.9a9.13,9.13,0,0,0-.8-1.3c-3.4-9-7.7-20.3-12.4-32.8l7-38.3H233l7,38.3C235.12,438.8,230.62,450.6,227.12,459.7Zm8.8-87.3h-17.8l-8.4-9.8,17.3-7.3,17.3,7.3Zm19,14.8c-1.5,3.9-3,7.7-4.5,11.6l-3.1-16.7,11.4-13.3,2.8,1.2C259.42,375.4,257.22,381.2,254.92,387.2Zm28.7-72c-.4.9-.8,1.8-1.1,2.7-.1.1-.1.2-.2.4-.4.9-.8,1.9-1.2,2.9,0,.1-.1.1-.1.2-.4.9-.7,1.7-1.1,2.6-.1.2-.1.3-.2.5l-.3.6c-.2.4-.3.8-.5,1.2l-.6,1.5c-.1.2-.1.3-.2.5-.5,1.3-1.1,2.6-1.6,4l-.3.6c-.3.7-.5,1.4-.8,2-.1.3-.2.5-.3.8-.3.7-.6,1.4-.9,2.2a1.42,1.42,0,0,0-.2.6c-1,2.5-2.1,5.2-3.2,7.9,0,.1-.1.2-.1.3-.4.9-.7,1.8-1.1,2.7-.1.2-.1.3-.2.5a24.88,24.88,0,0,0-1.1,2.9v.1c-.4,1-.8,2.1-1.2,3.2l-7.4-3.1h-.1l-17.7-7.5,42.2-31.6C284,314.2,283.82,314.7,283.62,315.2Zm18.2-23h0a20.56,20.56,0,0,0-13.2.5,20,20,0,0,1-5.1-12.9V258a52.74,52.74,0,0,1,44.2,42ZM360,398.4a23.8,23.8,0,1,1-23.8-23.8A23.86,23.86,0,0,1,360,398.4Z"/></g></g></svg>