<svg xmlns="http://www.w3.org/2000/svg" viewBox="0 0 512.15 512.15"><defs><style>.cls-1{fill:#2ecc71;}.cls-2{fill:#333;}</style></defs><title>Ресурс 1</title><g id="Слой_2" data-name="Слой 2"><g id="Layer_1" data-name="Layer 1"><path class="cls-1" d="M483.85,93.15H468a18.16,18.16,0,0,0,16.8-20.1c-1-9.3-9.1-16.1-18.5-16.1h-93a2.68,2.68,0,0,1-.6-5.3l19.6-4.8c9.5-2.3,16-11.6,14.3-21.3a18.63,18.63,0,0,0-21.9-15.1L336.45,20a89,89,0,0,0-45.8,24.5l-19.6,19.6h-27.3v13.6a45.58,45.58,0,0,0,45.6,45.6h5.5a43.3,43.3,0,0,1,30.6,12.7,88.91,88.91,0,0,0,63.1,26.2h89.1a17.93,17.93,0,0,0,7.2-12,18.23,18.23,0,0,0-16.7-20.6h15.5c9.2,0,17.7-7.4,18.5-16.5A18.41,18.41,0,0,0,483.85,93.15Z"/><path class="cls-1" d="M419,485.75v-15.9a18.2,18.2,0,0,0,20.2,16.8c9.3-1,16.1-9.1,16.1-18.5v-93a2.68,2.68,0,0,1,5.3-.6l4.8,19.6c2.3,9.5,11.6,16,21.3,14.3a18.63,18.63,0,0,0,15.1-21.9l-9.5-48.3a88.23,88.23,0,0,0-24.5-45.8l-19.7-19.6v-27.3h-13.6a45.58,45.58,0,0,0-45.6,45.6v5.5a43.3,43.3,0,0,1-12.7,30.6,88.91,88.91,0,0,0-26.2,63.1v89.1a17.93,17.93,0,0,0,12,7.2,18.23,18.23,0,0,0,20.6-16.7v15.5c0,9.2,7.4,17.7,16.5,18.5A18.39,18.39,0,0,0,419,485.75Z"/><path class="cls-1" d="M27.85,418.35h15.9A18.16,18.16,0,0,0,27,438.45c1,9.3,9.1,16.1,18.5,16.1h93a2.68,2.68,0,0,1,.6,5.3l-19.6,4.8c-9.5,2.3-16,11.6-14.3,21.3a18.63,18.63,0,0,0,21.9,15.1l48.3-9.5a89,89,0,0,0,45.8-24.5l19.6-19.6h27.3v-13.6a45.58,45.58,0,0,0-45.6-45.6H217a43.3,43.3,0,0,1-30.6-12.7,88.91,88.91,0,0,0-63.1-26.2H34.15a17.93,17.93,0,0,0-7.2,12A18.23,18.23,0,0,0,43.65,382H28.25c-9.2,0-17.7,7.4-18.5,16.5A18.25,18.25,0,0,0,27.85,418.35Z"/><path class="cls-1" d="M92.65,28.55v15.9a18.2,18.2,0,0,0-20.2-16.8c-9.3,1-16.1,9.1-16.1,18.5v93a2.68,2.68,0,0,1-5.3.6l-4.8-19.6c-2.3-9.5-11.6-16-21.3-14.3a18.63,18.63,0,0,0-15.1,21.9l9.5,48.3a88.23,88.23,0,0,0,24.5,45.8l19.6,19.6v27.3h13.6a45.58,45.58,0,0,0,45.6-45.6v-5.5a43.3,43.3,0,0,1,12.7-30.6,88.91,88.91,0,0,0,26.2-63.1V35a17.93,17.93,0,0,0-12-7.2A18.23,18.23,0,0,0,129,44.45V29.05c0-9.2-7.4-17.7-16.5-18.5A18.09,18.09,0,0,0,92.65,28.55Z"/><path class="cls-2" d="M511.45,382.75l-9.5-48.3a98.65,98.65,0,0,0-27.2-51l-16.7-16.6v-56.8a28.29,28.29,0,0,0,16.4-35.4,28.23,28.23,0,0,0,18.8-36.8,28.17,28.17,0,0,0,0-53.2,28.25,28.25,0,0,0-26.5-37.9h-56.5a28.36,28.36,0,0,0-5.8-41.7,28.32,28.32,0,0,0-21.7-4.5l-48.3,9.5a98.65,98.65,0,0,0-51,27.2l-16.6,16.8h-56.8a28.27,28.27,0,0,0-26.2-17.9,31.1,31.1,0,0,0-9.2,1.5,28.23,28.23,0,0,0-36.8-18.8,28.12,28.12,0,0,0-53.1.1,28.25,28.25,0,0,0-37.9,26.5V102a28.62,28.62,0,0,0-23.2-6.2,28.5,28.5,0,0,0-23.1,33.6l9.5,48.3a98.65,98.65,0,0,0,27.2,51l16.8,16.6v56.8a28.29,28.29,0,0,0-16.4,35.4,28.23,28.23,0,0,0-18.8,36.8,28.12,28.12,0,0,0,.1,53.1,28.25,28.25,0,0,0,26.5,37.9H102a28.62,28.62,0,0,0-6.2,23.2,28.59,28.59,0,0,0,28.1,23.6,26.66,26.66,0,0,0,5.6-.6l48.3-9.5a98.65,98.65,0,0,0,51-27.2l16.7-16.7h56.6a28.29,28.29,0,0,0,35.4,16.4,28.23,28.23,0,0,0,36.8,18.8,28.17,28.17,0,0,0,53.2,0,28.25,28.25,0,0,0,37.9-26.5v-56.5a28.62,28.62,0,0,0,23.2,6.2,28.26,28.26,0,0,0,18.6-12A28.65,28.65,0,0,0,511.45,382.75ZM271.05,74.05a10.33,10.33,0,0,0,7.1-2.9l19.6-19.6a78,78,0,0,1,40.7-21.7l48.3-9.5a8.72,8.72,0,0,1,6.5,1.3,8.57,8.57,0,0,1-2.8,15.4L370.35,42a12.68,12.68,0,0,0,3,25h93.4a8.24,8.24,0,0,1,8.2,8.2,8.12,8.12,0,0,1-7.2,8.1l-55.3.1a10,10,0,0,0,0,20l71.5-.1a8.2,8.2,0,0,1,0,16.4h-71.5a10,10,0,0,0,0,20h55.4a8.18,8.18,0,0,1-1,16.3h-54.4a10,10,0,0,0,0,20h36.4a8.18,8.18,0,0,1-1,16.3h-101a78.5,78.5,0,0,1-56-23.2l-12.7-12.7a9.9,9.9,0,0,0-7.1-2.9h-59V74.05ZM300.35,339h-55.1l-9.7-9.8a98.39,98.39,0,0,0-62.3-28.8v-55.1l9.8-9.7a100.23,100.23,0,0,0,28.8-62.3H267l9.7,9.8a98.39,98.39,0,0,0,62.3,28.8V267l-9.8,9.7A97.93,97.93,0,0,0,300.35,339ZM51.45,214.45a78,78,0,0,1-21.7-40.7l-9.5-48.3a8.72,8.72,0,0,1,1.3-6.5,8.57,8.57,0,0,1,15.4,2.8l4.9,20.1a12.68,12.68,0,0,0,25-3V45.35a8.24,8.24,0,0,1,8.2-8.2,8.12,8.12,0,0,1,8.1,7.2l.1,55.3a10,10,0,0,0,20,0V45.35a10.87,10.87,0,0,0-.1-1.8V28.25a8.2,8.2,0,0,1,16.4,0v15.4c0,.6-.1,1.2-.1,1.8l.1,54.4a10,10,0,1,0,20,0V44.45a8.18,8.18,0,0,1,16.3,1v54.4a10,10,0,0,0,20,0V63.45a8.18,8.18,0,0,1,16.3,1v101a79.76,79.76,0,0,1-23.2,56l-12.8,12.6a9.9,9.9,0,0,0-2.9,7.1v59h-20v-26.6a10,10,0,0,0-20,0v26.5H74.05v-59a10.33,10.33,0,0,0-2.9-7.1Zm189.6,223.6A10.33,10.33,0,0,0,234,441l-19.6,19.6a78,78,0,0,1-40.7,21.7l-48.3,9.5a8.72,8.72,0,0,1-6.5-1.3,8.57,8.57,0,0,1,2.8-15.4l20.1-4.9a12.68,12.68,0,0,0-3-25H45.35a8.18,8.18,0,0,1-1-16.3l55.3-.1a10,10,0,0,0,0-20l-71.5.1a8.2,8.2,0,1,1,0-16.4h71.5a10,10,0,1,0,0-20H44.45a8.18,8.18,0,0,1,1-16.3h54.4a10,10,0,1,0,0-20H63.45a8.18,8.18,0,0,1,1-16.3h101a78.5,78.5,0,0,1,56,23.2l12.7,12.7a9.9,9.9,0,0,0,7.1,2.9h59v79.4Zm249.5-44.9a8.57,8.57,0,0,1-15.4-2.8l-4.9-20.1a12.68,12.68,0,0,0-25,3v93.4a8.18,8.18,0,0,1-16.3,1l-.1-55.3a10,10,0,0,0-20,0l.1,71.5a8.2,8.2,0,0,1-16.4,0v-71.5a10,10,0,0,0-20,0v55.3a8.18,8.18,0,0,1-16.3-1v-54.4a10,10,0,0,0-20,0v36.4a8.18,8.18,0,0,1-16.3-1v-101a78.92,78.92,0,0,1,23.2-56l12.7-12.7a9.9,9.9,0,0,0,2.9-7.1v-59h38.6v30.3a10,10,0,0,0,20,0v-30.1h20.7v59a10.33,10.33,0,0,0,2.9,7.1l19.6,19.6a78,78,0,0,1,21.7,40.7l9.5,48.3A7.71,7.71,0,0,1,490.55,393.15Z"/><path class="cls-2" d="M407.45,270a10.52,10.52,0,0,0-7.1,2.9,9.9,9.9,0,0,0-2.9,7.1,10.52,10.52,0,0,0,2.9,7.1,9.9,9.9,0,0,0,7.1,2.9,10.52,10.52,0,0,0,7.1-2.9,9.9,9.9,0,0,0,2.9-7.1,10.52,10.52,0,0,0-2.9-7.1A10.33,10.33,0,0,0,407.45,270Z"/><path class="cls-2" d="M123.15,245.85a10.52,10.52,0,0,0,7.1-2.9,9.9,9.9,0,0,0,2.9-7.1,10.52,10.52,0,0,0-2.9-7.1,9.9,9.9,0,0,0-7.1-2.9,10.33,10.33,0,0,0-7.1,2.9,9.9,9.9,0,0,0-2.9,7.1,10.52,10.52,0,0,0,2.9,7.1A10.07,10.07,0,0,0,123.15,245.85Z"/></g></g></svg>