<svg width="18" height="18" viewBox="0 0 18 18" fill="none" xmlns="http://www.w3.org/2000/svg">
<g clip-path="url(#clip0)">
<path d="M17.7718 2.77714C17.5932 2.57236 17.3361 2.45454 17.0649 2.45454H4.14327L3.96094 1.36613C3.88613 0.915425 3.49621 0.584412 3.03896 0.584412H0.935065C0.417974 0.584412 0 1.00239 0 1.51948C0 2.03657 0.417974 2.45454 0.935065 2.45454H2.24696L3.98618 12.8936C3.99366 12.9357 4.01517 12.9703 4.02826 13.0096C4.04322 13.0591 4.05538 13.1059 4.07875 13.1508C4.10868 13.2125 4.14888 13.2648 4.19096 13.3181C4.21995 13.3546 4.24613 13.3911 4.27979 13.4229C4.33403 13.4733 4.39668 13.5089 4.46026 13.5444C4.49579 13.564 4.52665 13.5902 4.56499 13.6052C4.67345 13.6491 4.78753 13.6753 4.90816 13.6753C4.90909 13.6753 15.1948 13.6753 15.1948 13.6753C15.7119 13.6753 16.1299 13.2573 16.1299 12.7403C16.1299 12.2232 15.7119 11.8052 15.1948 11.8052H5.70109L5.54587 10.8701H16.1299C16.5955 10.8701 16.9901 10.5279 17.0556 10.0678L17.9906 3.52239C18.029 3.25309 17.9486 2.98098 17.7718 2.77714ZM15.9868 4.32467L15.7203 6.1948H12.3896V4.32467H15.9868ZM11.4545 4.32467V6.1948H8.64935V4.32467H11.4545ZM11.4545 7.12987V9H8.64935V7.12987H11.4545ZM7.71429 4.32467V6.1948H4.90909C4.85953 6.1948 4.81465 6.20883 4.7707 6.22285L4.45465 4.32467H7.71429ZM4.92218 7.12987H7.71429V9H5.23356L4.92218 7.12987ZM12.3896 9V7.12987H15.5857L15.3192 9H12.3896Z" fill="#FF6E0D"/>
<path d="M6.31178 17.4156C7.08641 17.4156 7.71437 16.7876 7.71437 16.013C7.71437 15.2383 7.08641 14.6104 6.31178 14.6104C5.53714 14.6104 4.90918 15.2383 4.90918 16.013C4.90918 16.7876 5.53714 17.4156 6.31178 17.4156Z" fill="#FF6E0D"/>
<path d="M14.7273 17.4156C15.5019 17.4156 16.1299 16.7876 16.1299 16.013C16.1299 15.2383 15.5019 14.6104 14.7273 14.6104C13.9527 14.6104 13.3247 15.2383 13.3247 16.013C13.3247 16.7876 13.9527 17.4156 14.7273 17.4156Z" fill="#FF6E0D"/>
</g>
<defs>
<clipPath id="clip0">
<rect width="18" height="18" fill="white"/>
</clipPath>
</defs>
</svg>
