<svg width="16" height="16" viewBox="0 0 16 16" fill="none" xmlns="http://www.w3.org/2000/svg">
<path d="M8 0C3.58892 0 0 3.58868 0 8C0 12.4113 3.58892 16 8 16C12.4111 16 16 12.4113 16 8C16 3.58868 12.4111 0 8 0ZM8 15.0154C4.13169 15.0154 0.984615 11.8683 0.984615 8C0.984615 4.13169 4.13169 0.984615 8 0.984615C11.8683 0.984615 15.0154 4.13169 15.0154 8C15.0154 11.8683 11.8683 15.0154 8 15.0154Z" fill="#212121"/>
<path d="M8.12807 5.63348C8.58281 5.63348 8.95146 5.26484 8.95146 4.81009C8.95146 4.35535 8.58281 3.98671 8.12807 3.98671C7.67333 3.98671 7.30469 4.35535 7.30469 4.81009C7.30469 5.26484 7.67333 5.63348 8.12807 5.63348Z" fill="#212121"/>
<path d="M7.91125 6.9765C7.6395 6.9765 7.41895 7.19706 7.41895 7.46881V11.6534C7.41895 11.9252 7.6395 12.1457 7.91125 12.1457C8.18301 12.1457 8.40356 11.9252 8.40356 11.6534V7.46881C8.40356 7.19681 8.18301 6.9765 7.91125 6.9765Z" fill="#212121"/>
</svg>
