<svg width="22" height="22" viewBox="0 0 22 22" fill="none" xmlns="http://www.w3.org/2000/svg">
<path d="M19.4219 2.92188H2.57812C1.15655 2.92188 0 4.07842 0 5.5V16.5C0 17.9216 1.15655 19.0781 2.57812 19.0781H19.4219C20.8435 19.0781 22 17.9216 22 16.5V5.5C22 4.07842 20.8435 2.92188 19.4219 2.92188ZM20.2812 16.5C20.2812 16.9739 19.8957 17.3594 19.4219 17.3594H2.57812C2.10427 17.3594 1.71875 16.9739 1.71875 16.5V5.5C1.71875 5.02614 2.10427 4.64062 2.57812 4.64062H19.4219C19.8957 4.64062 20.2812 5.02614 20.2812 5.5V16.5Z" fill="#FF6E0D"/>
<path d="M20.1354 3.99338L11 10.7883L1.8647 3.99338L0.838867 5.37246L11 12.9304L21.1612 5.37246L20.1354 3.99338Z" fill="#FF6E0D"/>
</svg>
