<svg width="22" height="22" viewBox="0 0 22 22" fill="none" xmlns="http://www.w3.org/2000/svg">
<g clip-path="url(#clip0)">
<path d="M19.1299 20.9301L22.0002 18.0469L16.0233 12.0614L13.6256 14.3817C12.9338 13.995 11.6147 13.1485 10.1752 11.709C8.73575 10.2696 7.88497 8.93754 7.48966 8.24144L9.80997 5.89105L3.95333 0.0043335L1.07013 2.87035C-0.0255766 3.96605 -0.30917 5.63324 0.361142 7.01683C1.3881 9.1309 3.28302 12.3235 6.47989 15.5161C9.67677 18.7129 12.865 20.6078 14.9791 21.6348C15.4818 21.8797 16.019 21.9957 16.5518 21.9957C17.4971 21.9957 18.4295 21.6305 19.1299 20.9301ZM15.7311 20.0922C13.733 19.1211 10.7209 17.3336 7.69591 14.3043C4.67091 11.2793 2.87911 8.26293 1.90802 6.26918C1.55567 5.543 1.70606 4.66215 2.28185 4.08636L3.94903 2.43207L7.39513 5.89965L5.41856 7.90199L5.65489 8.4391C5.69356 8.52504 6.63028 10.5961 8.96349 12.9293C11.2967 15.2625 13.3506 16.1821 13.4365 16.2164L13.965 16.4485L16.0061 14.4719L19.5768 18.0469L17.9139 19.7141C17.3338 20.2942 16.4572 20.4446 15.7311 20.0922Z" fill="#FF6E0D"/>
</g>
<defs>
<clipPath id="clip0">
<rect width="22" height="22" fill="white"/>
</clipPath>
</defs>
</svg>
