<svg width="38" height="38" viewBox="0 0 38 38" fill="none" xmlns="http://www.w3.org/2000/svg">
<g clip-path="url(#clip0)">
<path d="M21.375 21.375L21.375 4.75L38 4.75L38 21.6125C38 33.0125 27.3125 34.4375 27.3125 34.4375L25.8875 31.1125C25.8875 31.1125 30.6375 30.4 31.5875 26.6C32.5375 23.75 30.6375 21.375 30.6375 21.375L21.375 21.375Z" fill="#0061C3"/>
<path d="M1.14196e-06 21.375L2.59536e-06 4.75L16.625 4.75L16.625 21.6125C16.625 33.0125 5.9375 34.4375 5.9375 34.4375L4.5125 31.1125C4.5125 31.1125 9.2625 30.4 10.2125 26.6C11.1625 23.75 9.2625 21.375 9.2625 21.375L1.14196e-06 21.375Z" fill="#0061C3"/>
</g>
<defs>
<clipPath id="clip0">
<rect width="38" height="38" fill="white" transform="translate(38 38) rotate(-180)"/>
</clipPath>
</defs>
</svg>
