<svg width="10" height="10" viewBox="0 0 10 10" fill="none" xmlns="http://www.w3.org/2000/svg">
<path d="M0.681437 8.40895H2.27237V9.77276C2.27237 9.83912 2.2936 9.89344 2.33632 9.9359C2.37892 9.97863 2.43337 10 2.49971 10H3.68573C3.74728 10 3.80054 9.97863 3.84553 9.9359C3.89052 9.89344 3.91295 9.8391 3.91295 9.77276V8.40895H7.49958C7.56578 8.40895 7.62026 8.38785 7.66295 8.34512C7.70569 8.30242 7.7269 8.24806 7.7269 8.18171V7.27258C7.7269 7.20662 7.70569 7.15191 7.66295 7.10945C7.62037 7.06671 7.56578 7.04534 7.49958 7.04534H3.91283V6.20724H6.3276C7.27452 6.20724 8.04737 5.9187 8.64649 5.34081C9.24538 4.76352 9.54497 4.0178 9.54497 3.10362C9.54497 2.19004 9.24538 1.44431 8.64649 0.866431C8.04748 0.289124 7.2745 0 6.3276 0H2.49959C2.43324 0 2.3789 0.0213476 2.3362 0.0638272C2.2936 0.106542 2.27226 0.161234 2.27226 0.227218V4.69465H0.681437C0.615101 4.69465 0.560742 4.7171 0.518046 4.76207C0.475469 4.80706 0.454102 4.86032 0.454102 4.92185V5.97998C0.454102 6.04634 0.475332 6.1007 0.518046 6.14339C0.560761 6.18613 0.614983 6.20722 0.681437 6.20722H2.27237V7.04532H0.681437C0.615101 7.04532 0.560742 7.06669 0.518046 7.10943C0.475469 7.15189 0.454102 7.20648 0.454102 7.27256V8.18169C0.454102 8.24804 0.475332 8.3024 0.518046 8.3451C0.560742 8.38785 0.615081 8.40895 0.681437 8.40895ZM3.91283 1.51294H6.18556C6.68739 1.51294 7.09215 1.65967 7.40002 1.95322C7.70773 2.24679 7.86165 2.63044 7.86165 3.10374C7.86165 3.57727 7.70773 3.96103 7.40002 4.25425C7.09215 4.54806 6.68737 4.69479 6.18556 4.69479H3.91283V1.51294Z" fill="#212121"/>
</svg>
