<svg width="16" height="13" viewBox="0 0 16 13" fill="none" xmlns="http://www.w3.org/2000/svg">
<path d="M0.269615 5.88565L3.78684 7.09807L5.14823 11.1417C5.23534 11.4007 5.57823 11.4964 5.80582 11.3246L7.76638 9.8484C7.97189 9.69375 8.26461 9.68604 8.47938 9.83003L12.0155 12.2012C12.259 12.3646 12.6039 12.2414 12.665 11.9697L15.2554 0.461449C15.3221 0.164639 15.0063 -0.0829684 14.7003 0.026338L0.265493 5.16933C-0.0907274 5.29621 -0.0876236 5.76201 0.269615 5.88565ZM4.92883 6.45267L11.8028 2.5425C11.9263 2.47243 12.0534 2.62671 11.9474 2.7176L6.27433 7.58798C6.07493 7.75941 5.9463 7.98883 5.90987 8.23785L5.71662 9.56052C5.69103 9.73712 5.42243 9.75465 5.36966 9.58374L4.62644 7.17181C4.54131 6.89671 4.66536 6.60286 4.92883 6.45267Z" fill="#0214EF"/>
</svg>
