<svg width="16" height="16" viewBox="0 0 16 16" fill="none" xmlns="http://www.w3.org/2000/svg">
<g clip-path="url(#clip0)">
<path d="M13.4834 6.94569C13.5018 4.79361 11.6688 2.82071 9.39751 2.5479C9.35233 2.54254 9.30313 2.53439 9.25103 2.52576C9.13859 2.50713 9.0223 2.48798 8.90497 2.48798C8.43946 2.48798 8.31502 2.81497 8.28226 3.01C8.25041 3.19962 8.28079 3.35885 8.37243 3.48348C8.52659 3.6931 8.79784 3.73031 9.01571 3.76013C9.07957 3.76895 9.13982 3.77715 9.19026 3.78848C11.2309 4.24447 11.9181 4.96137 12.2539 6.9847C12.2621 7.03415 12.2658 7.09506 12.2697 7.15968C12.2844 7.40153 12.3149 7.90474 12.8559 7.90474H12.8559C12.901 7.90474 12.9494 7.90085 12.9998 7.89317C13.5035 7.81661 13.4877 7.35664 13.4802 7.13564C13.478 7.0734 13.476 7.01452 13.4812 6.97537C13.4827 6.96551 13.4834 6.9556 13.4834 6.94569Z" fill="#0214EF"/>
<path d="M8.77304 1.75796C8.83348 1.76232 8.8907 1.76649 8.93834 1.77379C12.2893 2.28913 13.8304 3.87681 14.2575 7.25403C14.2648 7.31144 14.2659 7.38145 14.2671 7.4556C14.2713 7.71945 14.2801 8.26835 14.8696 8.27973L14.8879 8.27992C15.0728 8.27992 15.2198 8.22417 15.325 8.1141C15.5085 7.92215 15.4957 7.63701 15.4854 7.40786C15.4829 7.35164 15.4805 7.29869 15.4811 7.25232C15.5237 3.79831 12.5339 0.666224 9.08293 0.549751C9.06861 0.549276 9.05496 0.550035 9.04116 0.551979C9.03438 0.552974 9.02182 0.554207 9.0003 0.554207C8.96588 0.554207 8.92355 0.55122 8.87866 0.548186C8.82438 0.544489 8.76285 0.540222 8.70046 0.540222C8.1509 0.540222 8.04642 0.930838 8.03305 1.16369C8.00223 1.70183 8.52284 1.73971 8.77304 1.75796Z" fill="#0214EF"/>
<path d="M14.0956 11.6189C14.0244 11.5645 13.9507 11.5081 13.8818 11.4526C13.5159 11.1581 13.1266 10.8868 12.7502 10.6243C12.6721 10.5699 12.594 10.5154 12.5161 10.4608C12.0339 10.1221 11.6004 9.95747 11.1908 9.95747C10.6392 9.95747 10.1582 10.2623 9.76123 10.8633C9.58536 11.1298 9.37199 11.2594 9.10904 11.2594C8.95355 11.2594 8.77687 11.215 8.58398 11.1274C7.02754 10.4216 5.91613 9.33946 5.28057 7.91101C4.97334 7.2206 5.07294 6.76931 5.61364 6.40202C5.92068 6.19362 6.49219 5.80566 6.45171 5.06273C6.40587 4.21907 4.54437 1.68059 3.76006 1.39227C3.42799 1.27016 3.07909 1.26902 2.72118 1.38943C1.81954 1.69253 1.17251 2.22484 0.849876 2.92871C0.538094 3.60883 0.552174 4.40741 0.890597 5.23813C1.86894 7.63995 3.24444 9.73401 4.97903 11.4621C6.67688 13.1537 8.76369 14.5393 11.1814 15.5804C11.3994 15.6741 11.6279 15.7253 11.7949 15.7626C11.8517 15.7754 11.9009 15.7863 11.9366 15.7961C11.9563 15.8015 11.9766 15.8043 11.9969 15.8045L12.016 15.8046C12.0161 15.8046 12.016 15.8046 12.0161 15.8046C13.1533 15.8046 14.5187 14.7655 14.938 13.5809C15.3054 12.5436 14.6346 12.0308 14.0956 11.6189Z" fill="#0214EF"/>
<path d="M9.27585 4.50157C9.08116 4.5065 8.67599 4.51655 8.53382 4.92921C8.46731 5.12206 8.47528 5.28949 8.55752 5.42687C8.67822 5.62843 8.90946 5.6902 9.11979 5.7241C9.88258 5.8465 10.2743 6.26831 10.3527 7.05143C10.3891 7.41659 10.635 7.67158 10.9507 7.67158H10.9508C10.9741 7.67158 10.9979 7.67021 11.0217 7.66732C11.4014 7.62214 11.5855 7.34316 11.5688 6.83821C11.5749 6.31121 11.2991 5.71291 10.83 5.23635C10.3593 4.75832 9.79195 4.48911 9.27585 4.50157Z" fill="#0214EF"/>
</g>
<defs>
<clipPath id="clip0">
<rect width="15.2644" height="15.2644" fill="white" transform="translate(0.425781 0.540222)"/>
</clipPath>
</defs>
</svg>
