<svg width="16" height="10" viewBox="0 0 16 10" fill="none" xmlns="http://www.w3.org/2000/svg">
<path d="M15.1857 8.15394C15.1673 8.11338 15.15 8.07973 15.134 8.05278C14.8691 7.56711 14.363 6.97099 13.6158 6.26425L13.6 6.24806L13.5921 6.24012L13.5841 6.23199H13.5761C13.237 5.90289 13.0223 5.68161 12.9323 5.56833C12.7678 5.35252 12.7309 5.13407 12.8209 4.91274C12.8844 4.74551 13.123 4.39235 13.5363 3.85277C13.7536 3.56682 13.9258 3.33763 14.0529 3.16496C14.9697 1.92408 15.3672 1.13114 15.2452 0.785833L15.1979 0.705139C15.1661 0.656558 15.0839 0.612115 14.9516 0.571584C14.819 0.531137 14.6494 0.524448 14.4427 0.551403L12.1536 0.567502C12.1165 0.554124 12.0635 0.555371 11.9945 0.571584C11.9256 0.587796 11.8912 0.595931 11.8912 0.595931L11.8513 0.616196L11.8197 0.640543C11.7932 0.656642 11.764 0.684958 11.7322 0.725433C11.7006 0.765765 11.6741 0.813099 11.6529 0.867037C11.4037 1.51982 11.1203 2.12674 10.8023 2.68777C10.6062 3.02231 10.4261 3.31224 10.2617 3.55772C10.0975 3.80312 9.95968 3.98392 9.84848 4.09982C9.73712 4.21583 9.63661 4.30877 9.54635 4.37897C9.45623 4.44921 9.38744 4.47888 9.3398 4.46803C9.29206 4.45717 9.24709 4.4464 9.20453 4.43563C9.13039 4.38705 9.07075 4.32098 9.02579 4.23737C8.98063 4.15376 8.95023 4.04852 8.93433 3.92173C8.91852 3.79487 8.90916 3.68575 8.90649 3.594C8.90401 3.50236 8.90515 3.37275 8.91053 3.20552C8.91604 3.03821 8.91852 2.92501 8.91852 2.86565C8.91852 2.66062 8.92244 2.43809 8.93032 2.19802C8.93834 1.95795 8.94483 1.76774 8.95026 1.62761C8.95566 1.48734 8.95816 1.33893 8.95816 1.18247C8.95816 1.02602 8.94881 0.903316 8.93032 0.814261C8.91206 0.725319 8.88402 0.638985 8.84708 0.555286C8.80991 0.471673 8.75551 0.406993 8.68413 0.361076C8.6126 0.315216 8.52368 0.278823 8.41786 0.251783C8.13697 0.187075 7.7793 0.152071 7.34468 0.146629C6.35909 0.135858 5.7258 0.200651 5.44495 0.340924C5.33367 0.40019 5.23297 0.481167 5.14293 0.583601C5.04752 0.702332 5.03421 0.767126 5.10309 0.777783C5.42109 0.826279 5.64621 0.942289 5.7787 1.1257L5.82645 1.22289C5.86359 1.29301 5.90067 1.41716 5.93778 1.59515C5.97484 1.77315 5.99875 1.97005 6.00928 2.18575C6.03573 2.57964 6.03573 2.91681 6.00928 3.1973C5.98274 3.4779 5.95769 3.69635 5.93377 3.8528C5.90986 4.00926 5.87411 4.13604 5.82645 4.23312C5.7787 4.33022 5.74693 4.38957 5.73101 4.41111C5.71511 4.43266 5.70186 4.44623 5.69134 4.45156C5.62246 4.47843 5.55082 4.49212 5.47668 4.49212C5.40243 4.49212 5.3124 4.45431 5.20643 4.37875C5.1005 4.30318 4.99056 4.19939 4.87661 4.06719C4.76265 3.93497 4.63414 3.7502 4.49101 3.51285C4.34799 3.2755 4.1996 2.99499 4.04592 2.6713L3.91877 2.43656C3.83929 2.28555 3.73071 2.06566 3.59293 1.77709C3.45506 1.48841 3.3332 1.20917 3.22727 0.939426C3.18492 0.826137 3.1213 0.739888 3.03653 0.680536L2.99675 0.656189C2.9703 0.634648 2.92784 0.611775 2.8696 0.587399C2.81127 0.563052 2.75041 0.545592 2.68677 0.53485L0.508817 0.55095C0.286258 0.55095 0.13525 0.60228 0.0557371 0.704798L0.0239152 0.753294C0.00801812 0.780305 0 0.823444 0 0.882824C0 0.942176 0.015897 1.01502 0.047719 1.10127C0.36566 1.86201 0.711413 2.59568 1.08498 3.3024C1.45855 4.00912 1.78317 4.5784 2.05865 5.00973C2.33419 5.44137 2.61505 5.84876 2.90122 6.23168C3.1874 6.61474 3.37683 6.86023 3.46951 6.96807C3.5623 7.07612 3.63519 7.1569 3.68817 7.21083L3.88692 7.40502C4.0141 7.53452 4.20086 7.68961 4.44727 7.8703C4.69375 8.05111 4.96661 8.2291 5.26601 8.40458C5.56547 8.57977 5.91384 8.72274 6.31132 8.8333C6.70875 8.94399 7.09556 8.9884 7.47183 8.96697H8.38595C8.57135 8.95068 8.7118 8.89132 8.80727 8.78889L8.83889 8.74833C8.86016 8.71613 8.88007 8.66611 8.89845 8.59879C8.91704 8.53136 8.92629 8.45707 8.92629 8.37626C8.92086 8.14433 8.9382 7.9353 8.97785 7.74919C9.01746 7.56314 9.06262 7.42287 9.11312 7.3284C9.1636 7.23402 9.22056 7.15437 9.28396 7.08981C9.34749 7.0251 9.39276 6.9859 9.41932 6.97241C9.44571 6.95883 9.46679 6.94962 9.48268 6.94409C9.60986 6.90095 9.75953 6.94273 9.93192 7.06963C10.1042 7.19641 10.2657 7.35295 10.4168 7.539C10.5679 7.72521 10.7494 7.93413 10.9613 8.16607C11.1733 8.39809 11.3588 8.57056 11.5177 8.68402L11.6766 8.78112C11.7827 8.84592 11.9205 8.90527 12.0901 8.95921C12.2594 9.01312 12.4077 9.02661 12.5351 8.99965L14.5699 8.96734C14.7712 8.96734 14.9278 8.93341 15.0389 8.8661C15.1502 8.79867 15.2163 8.72438 15.2376 8.64357C15.2589 8.56268 15.26 8.4709 15.2416 8.3683C15.2228 8.26595 15.2042 8.19438 15.1857 8.15394Z" fill="#0214EF"/>
</svg>
