<svg width="16" height="16" viewBox="0 0 16 16" fill="none" xmlns="http://www.w3.org/2000/svg">
<g clip-path="url(#clip0)">
<path d="M7.8275 0.540222C3.63548 0.540222 0.195312 3.98039 0.195312 8.17241C0.195312 9.55592 0.568327 10.9028 1.27569 12.0811L0.195312 15.8046L3.91882 14.7242C5.09714 15.4316 6.44398 15.8046 7.8275 15.8046C12.0195 15.8046 15.4597 12.3644 15.4597 8.17241C15.4597 3.98039 12.0195 0.540222 7.8275 0.540222ZM12.5992 11.3972L12.2442 11.7523C11.7418 12.2547 10.5864 12.2149 9.84396 12.0715C7.37541 11.5948 4.49738 8.80512 3.94234 6.38932C3.6675 5.1926 3.81925 4.15216 4.21614 3.75516L4.57122 3.40008C4.76722 3.2042 5.08561 3.20443 5.28138 3.40008L6.70193 4.82075C6.79673 4.91554 6.84867 5.0412 6.84867 5.17571C6.84867 5.31022 6.79673 5.43599 6.70193 5.53044L6.34697 5.88587C5.95567 6.2781 5.95567 6.91524 6.34697 7.30654L8.69278 9.62149C9.08524 10.014 9.7204 10.0144 10.1134 9.62149L10.4685 9.26653C10.6518 9.08217 10.9942 9.08159 11.179 9.26653L12.5992 10.6867C12.7921 10.8788 12.7994 11.1969 12.5992 11.3972Z" fill="#0214EF"/>
</g>
<defs>
<clipPath id="clip0">
<rect width="15.2644" height="15.2644" fill="white" transform="translate(0.195312 0.540222)"/>
</clipPath>
</defs>
</svg>
