<svg width="72" height="70" viewBox="0 0 72 70" fill="none" xmlns="http://www.w3.org/2000/svg">
<path d="M59.4 47.6C69.7716 47.6 71.7456 37.2596 71.934 36.092C72.1551 34.7741 71.7844 33.4258 70.9208 32.4061C70.0572 31.3864 68.7883 30.7989 67.452 30.8H59.772C59.9195 29.8389 59.9957 28.8683 60 27.896V22.4C60 20.4118 58.3882 18.8 56.4 18.8H15.6C13.6118 18.8 12 20.4118 12 22.4V27.896C12.0068 29.8407 12.2941 31.7742 12.8532 33.6368C13.0414 34.2724 13.7092 34.635 14.3448 34.4468C14.9804 34.2586 15.343 33.5908 15.1548 32.9552C14.7137 31.4733 14.4664 29.9406 14.4192 28.3952H20.4C21.0627 28.3952 21.6 27.8579 21.6 27.1952C21.6 26.5324 21.0627 25.9952 20.4 25.9952H14.4V22.4C14.4 21.7372 14.9373 21.2 15.6 21.2H56.4C57.0627 21.2 57.6 21.7372 57.6 22.4V26H27.6C26.9373 26 26.4 26.5372 26.4 27.2C26.4 27.8627 26.9373 28.4 27.6 28.4H57.5784C57.4447 32.1759 56.1452 35.8179 53.8584 38.8256C51.7368 41.6432 48.9384 46.6784 47.3784 54.8H44.208C43.5453 54.8 43.008 55.3372 43.008 56C43.008 56.6627 43.5453 57.2 44.208 57.2H60.06C60.6893 57.2006 61.1993 57.7107 61.2 58.34V58.472C61.2018 58.8204 61.0456 59.151 60.7752 59.3708L56.3004 62.9468C56.096 63.1102 55.8421 63.1995 55.5804 63.2H40.608C39.9453 63.2 39.408 63.7372 39.408 64.4C39.408 65.0627 39.9453 65.6 40.608 65.6H55.584C56.3882 65.5979 57.1681 65.3238 57.7968 64.8224L62.28 61.2428C63.1185 60.568 63.6042 59.5483 63.6 58.472V58.34C63.598 56.3857 62.0143 54.802 60.06 54.8H49.83C51.0084 51.4832 53.6196 47.6 59.4 47.6ZM55.7784 40.2644C57.3667 38.1456 58.5475 35.7501 59.2608 33.2H67.452C68.0873 33.1991 68.6903 33.4799 69.0984 33.9668C69.5035 34.4451 69.6754 35.0785 69.5676 35.696C69.3108 37.28 67.6116 45.2 59.4 45.2C56.6532 45.1219 53.9667 46.0142 51.8124 47.72C52.774 45.0592 54.1094 42.5489 55.7784 40.2644Z" fill="#14AEAA"/>
<path d="M25.1242 69.176C29.2185 69.0336 33.0946 67.2953 35.9242 64.3328C38.8955 61.5311 40.6466 57.6738 40.7998 53.5928C40.8752 51.0916 39.933 48.6668 38.1886 46.8728C33.973 42.686 26.1202 43.7 20.689 49.1336C17.7176 51.9358 15.9662 55.7934 15.8122 59.8748C15.6937 62.3783 16.6369 64.8156 18.4098 66.5872C20.1827 68.3587 22.6208 69.3001 25.1242 69.1796V69.176ZM34.2298 62.6312C29.7286 67.1336 23.3986 68.1512 20.119 64.8932C20.0554 64.8284 20.011 64.7492 19.9498 64.682C20.7187 64.2407 21.5781 63.9805 22.4626 63.9212C26.2141 63.6287 29.1962 60.6521 29.4958 56.9012C29.6447 54.2092 31.7978 52.0617 34.4902 51.92C35.704 51.8179 36.8789 51.4425 37.927 50.822C38.2498 51.7084 38.4099 52.6459 38.3998 53.5892C38.2281 57.0282 36.7341 60.2679 34.2298 62.6312ZM22.3834 50.8292C24.7587 48.3143 28.0177 46.82 31.4734 46.6616C33.3349 46.6002 35.1433 47.2874 36.4942 48.5696C36.5578 48.6332 36.6022 48.7124 36.6634 48.7796C35.8946 49.2212 35.0352 49.4818 34.1506 49.5416C30.3996 49.8347 27.4181 52.8111 27.1186 56.5616C26.9714 59.2559 24.8164 61.4057 22.1218 61.5464C20.9079 61.6476 19.7328 62.023 18.685 62.6444C18.3613 61.7574 18.2011 60.819 18.2122 59.8748C18.3841 56.4345 19.8786 53.1937 22.3834 50.8292Z" fill="#14AEAA"/>
<path d="M20.5104 44.72C20.7109 45.106 21.1045 45.3532 21.5393 45.3663C21.974 45.3794 22.3818 45.1562 22.6051 44.783C22.8284 44.4097 22.8323 43.9449 22.6152 43.568C20.298 39.3392 16.5072 36.8084 12.4716 36.7952C11.749 36.7963 11.0287 36.8768 10.3236 37.0352C4.32963 38.384 -0.0119752 45.0956 2.48141e-05 53C-0.0119752 61.9196 5.58122 69.1868 12.4716 69.2C13.199 69.2037 13.9242 69.1199 14.6316 68.9504C15.1826 68.8174 15.5654 68.317 15.5496 67.7504C15.5134 65.7264 14.7609 63.7808 13.4256 62.2592C12.3539 61.1008 11.7688 59.5747 11.7912 57.9968C11.7758 56.4154 12.3608 54.887 13.428 53.72C16.2523 50.4338 16.2523 45.5774 13.428 42.2912C12.6581 41.419 12.1262 40.363 11.8836 39.2252C12.0828 39.2084 12.2776 39.2 12.468 39.2C15.66 39.2108 18.5916 41.2244 20.5104 44.72ZM13.1484 47.996C13.1657 49.5803 12.5797 51.1119 11.5092 52.28C8.68702 55.5669 8.68702 60.4219 11.5092 63.7088C12.2808 64.5817 12.8129 65.6397 13.0536 66.7796C12.8664 66.7952 12.6756 66.8024 12.4788 66.8024C6.90843 66.7892 2.39042 60.5996 2.40002 53C2.39042 46.9316 5.38683 41.546 9.55322 39.8C9.87618 41.2527 10.5516 42.6036 11.52 43.7336C12.5895 44.8929 13.1725 46.4189 13.1484 47.996Z" fill="#14AEAA"/>
<path d="M29.6111 5.0816C30.5902 4.35663 31.1772 3.2181 31.1999 2C31.1999 1.33725 30.6626 0.799995 29.9999 0.799995C29.3372 0.799995 28.7999 1.33725 28.7999 2C28.7999 2.5484 28.5599 2.7836 27.9899 3.3128C27.0097 4.03753 26.4221 5.17676 26.3999 6.3956C26.4218 7.61488 27.0089 8.75482 27.9887 9.4808C28.5659 10.01 28.7999 10.2464 28.7999 10.8008C28.7999 11.3552 28.5599 11.5892 27.9887 12.1208C27.0108 12.8457 26.424 13.9829 26.3999 15.2C26.3999 15.8627 26.9372 16.4 27.5999 16.4C28.2626 16.4 28.7999 15.8627 28.7999 15.2C28.7999 14.6492 29.0399 14.4128 29.6111 13.88C30.5896 13.1539 31.1763 12.0154 31.1999 10.7972C31.1776 9.578 30.5907 8.43822 29.6111 7.712C29.0399 7.1828 28.7999 6.9464 28.7999 6.3956C28.7999 5.8448 29.0399 5.6108 29.6111 5.0816Z" fill="#14AEAA"/>
<path d="M36.8113 5.0816C37.7904 4.35663 38.3774 3.2181 38.4001 2C38.4001 1.33725 37.8628 0.799995 37.2001 0.799995C36.5374 0.799995 36.0001 1.33725 36.0001 2C36.0001 2.5484 35.7601 2.7836 35.1901 3.3128C34.2099 4.03753 33.6223 5.17676 33.6001 6.3956C33.622 7.61488 34.2091 8.75482 35.1889 9.4808C35.7661 10.01 36.0001 10.2464 36.0001 10.8008C36.0001 11.3552 35.7601 11.5892 35.1889 12.1208C34.211 12.8457 33.6242 13.9829 33.6001 15.2C33.6001 15.8627 34.1374 16.4 34.8001 16.4C35.4628 16.4 36.0001 15.8627 36.0001 15.2C36.0001 14.6492 36.2401 14.4128 36.8113 13.88C37.7898 13.1539 38.3765 12.0154 38.4001 10.7972C38.3778 9.578 37.7909 8.43822 36.8113 7.712C36.2401 7.1828 36.0001 6.9464 36.0001 6.3956C36.0001 5.8448 36.2401 5.6108 36.8113 5.0816Z" fill="#14AEAA"/>
<path d="M44.011 5.0816C44.9901 4.35663 45.5771 3.2181 45.5998 2C45.5998 1.33725 45.0625 0.799995 44.3998 0.799995C43.7371 0.799995 43.1998 1.33725 43.1998 2C43.1998 2.5484 42.9598 2.7836 42.3898 3.3128C41.4096 4.03753 40.822 5.17676 40.7998 6.3956C40.8217 7.61488 41.4088 8.75482 42.3886 9.4808C42.9658 10.01 43.1998 10.2464 43.1998 10.8008C43.1998 11.3552 42.9598 11.5892 42.3886 12.1208C41.4107 12.8457 40.8239 13.9829 40.7998 15.2C40.7998 15.8627 41.3371 16.4 41.9998 16.4C42.6625 16.4 43.1998 15.8627 43.1998 15.2C43.1998 14.6492 43.4398 14.4128 44.011 13.88C44.9895 13.1539 45.5762 12.0154 45.5998 10.7972C45.5775 9.578 44.9906 8.43822 44.011 7.712C43.4398 7.1828 43.1998 6.9464 43.1998 6.3956C43.1998 5.8448 43.4398 5.6108 44.011 5.0816Z" fill="#14AEAA"/>
</svg>
