<svg width="72" height="72" viewBox="0 0 72 72" fill="none" xmlns="http://www.w3.org/2000/svg">
<path d="M68.3423 12.8911C65.1565 7.37307 60.3147 3.2401 54.709 1.25341C49.0244 -0.761116 43.2361 -0.336472 38.4108 2.44959C33.5855 5.23551 30.3234 10.0358 29.2258 15.9661C28.5224 19.7668 28.7665 23.741 29.8973 27.5728C26.6909 26.922 23.2649 27.0368 19.8412 27.9311C15.3746 29.098 11.2056 31.5227 7.78523 34.943C3.27978 39.4485 0.540688 45.195 0.0727355 51.1238C-0.401966 57.1362 1.5064 62.6172 5.44646 66.5571C8.71298 69.8236 13.0206 71.6943 17.9037 71.9671C18.2988 71.9892 18.6952 72.0002 19.0937 72C23.4026 71.9999 27.8771 70.7177 31.8179 68.3353C32.4825 67.9336 32.6955 67.0691 32.2937 66.4046C31.8921 65.7399 31.0276 65.5271 30.363 65.9287C22.6451 70.5945 13.4891 70.176 7.85976 64.9729C8.17051 57.2082 14.5833 50.9869 22.4229 50.9869C26.239 50.9869 29.8613 49.7738 32.8979 47.4788C35.2451 45.7048 37.1171 43.3326 38.3117 40.6606C39.3999 41.5977 40.5561 42.4359 41.7683 43.1662C42.5659 47.8302 41.4886 53.0247 38.7712 57.5205C38.3695 58.185 38.5826 59.0495 39.2472 59.4512C39.4747 59.5887 39.7255 59.6541 39.9733 59.6541C40.4492 59.6541 40.9137 59.4123 41.1779 58.9752C43.8593 54.5393 45.1193 49.4715 44.7823 44.7065C45.2234 44.8939 45.6694 45.0694 46.1209 45.2294C48.484 46.0669 50.865 46.4828 53.1873 46.4828C56.4515 46.4828 59.5997 45.6611 62.4191 44.0332C67.2446 41.2473 70.5065 36.447 71.6041 30.5168C72.6866 24.6686 71.5282 18.409 68.3423 12.8911ZM22.4229 48.1745C14.043 48.1745 7.02903 54.1332 5.39443 62.0359C0.786335 54.87 2.43443 44.271 9.77389 36.9316C15.7681 30.9372 24.0574 28.5595 31.0643 30.7717C31.4821 31.7287 31.9561 32.6706 32.4877 33.5916C33.5341 35.4042 34.7604 37.0661 36.1325 38.5528C34.0671 44.2558 28.5433 48.1745 22.4229 48.1745ZM47.0603 42.5786C42.085 40.8154 37.7745 37.1243 34.9231 32.1855C29.196 22.2657 31.1913 10.3058 39.3141 5.18981C46.7352 7.49878 51.086 15.3041 49.0567 22.8774C47.8546 27.3637 48.4715 32.0496 50.7938 36.0719C52.5165 39.0556 55.0251 41.4085 58.0367 42.9155C54.6193 44.0137 50.8227 43.9119 47.0603 42.5786ZM61.5157 41.2929C58.0055 40.2024 55.0778 37.8673 53.2295 34.6659C51.2827 31.2941 50.7656 27.366 51.7733 23.6053C53.9423 15.5109 50.0021 7.19366 42.7917 3.56941C50.9059 0.973176 60.7173 5.30821 65.9071 14.2972C71.634 24.217 69.6388 36.1772 61.5157 41.2929Z" fill="#14AEAA"/>
</svg>
