<svg width="72" height="72" viewBox="0 0 72 72" fill="none" xmlns="http://www.w3.org/2000/svg">
<g clip-path="url(#clip0)">
<path d="M60.1875 49.2069C66.7008 49.2069 72 43.9079 72 37.3944C72 30.8809 66.7008 25.5819 60.1875 25.5819H39.2342C38.4577 25.5819 37.828 26.2115 37.828 26.9882C37.828 27.7648 38.4577 28.3944 39.2342 28.3944H55.9271V35.521C55.9271 43.6611 52.4685 51.3901 46.4224 56.8125H19.2617C19.3032 56.7723 19.3456 56.7333 19.3867 56.6924C21.014 55.0651 22.038 53.0111 22.2701 50.9086C22.5148 48.69 21.8614 46.6799 20.4301 45.2486C18.164 42.9827 14.4835 42.8014 11.34 44.5233C10.3753 41.62 9.88538 38.6 9.88538 35.521V28.3944H26.5781C27.3548 28.3944 27.9844 27.7648 27.9844 26.9882C27.9844 26.2115 27.3548 25.5819 26.5781 25.5819H8.47898C7.70245 25.5819 7.07273 26.2115 7.07273 26.9882V35.521C7.07273 39.2183 7.71539 42.8383 8.98059 46.2978C7.35666 47.9243 6.33459 49.9758 6.10298 52.0757C5.90695 53.8519 6.28805 55.4935 7.18186 56.8125H1.40625C0.629578 56.8125 0 57.442 0 58.2187C0 62.716 3.65892 66.375 8.15625 66.375H12.5163C13.1697 69.5804 16.0109 72 19.4062 72H46.4061C49.8016 72 52.6428 69.5804 53.296 66.375H57.6561C62.1536 66.375 65.8124 62.716 65.8124 58.2187C65.8124 57.442 65.1828 56.8125 64.4061 56.8125H50.4245C52.5284 54.531 54.2682 51.9658 55.6033 49.207H60.1875V49.2069ZM19.4743 50.6002C19.3123 52.0695 18.5749 53.5268 17.3977 54.7037V54.7038C16.2208 55.8807 14.7637 56.6181 13.2943 56.7803C12.7661 56.8386 12.2626 56.8171 11.796 56.7222C11.6502 54.9703 12.7817 53.3102 14.5398 52.8533C16.8608 52.2503 18.5619 50.4576 19.1637 48.2988C19.4587 48.9674 19.5678 49.7527 19.4743 50.6002ZM8.89833 52.3842C9.06047 50.9149 9.79791 49.4576 10.9749 48.2808C12.3616 46.894 14.0988 46.1635 15.6535 46.1635C15.9702 46.1635 16.2792 46.1947 16.5762 46.256C16.7252 48.0103 15.5931 49.6739 13.8327 50.1312C11.5118 50.7342 9.8107 52.5269 9.20897 54.6859C8.91408 54.0168 8.80481 53.2317 8.89833 52.3842ZM57.6561 63.5625H52.0311C51.2546 63.5625 50.6249 64.192 50.6249 64.9687C50.6249 67.2949 48.7323 69.1875 46.4061 69.1875H19.4062C17.08 69.1875 15.1875 67.2949 15.1875 64.9687C15.1875 64.192 14.5578 63.5625 13.7812 63.5625H8.15625C5.69616 63.5625 3.61898 61.8916 3.00023 59.625H62.8121C62.1934 61.8916 60.1162 63.5625 57.6561 63.5625ZM60.1875 28.3944C65.1502 28.3944 69.1875 32.4318 69.1875 37.3944C69.1875 42.3571 65.1502 46.3944 60.1875 46.3944H56.799C57.2057 45.2916 57.5516 44.1652 57.833 43.0194H60.1875C63.2891 43.0194 65.8125 40.496 65.8125 37.3944C65.8125 34.2928 63.2891 31.7694 60.1875 31.7694H58.7396V28.3944H60.1875ZM58.7396 34.5819H60.1875C61.7383 34.5819 63 35.8436 63 37.3944C63 38.9452 61.7383 40.2069 60.1875 40.2069H58.3864C58.6183 38.6665 58.7396 37.1011 58.7396 35.521V34.5819Z" fill="#14AEAA"/>
<path d="M43.2558 19.6775C42.7067 20.2267 42.7067 21.1171 43.2558 21.6664C43.5304 21.941 43.8903 22.0783 44.2502 22.0783C44.6102 22.0783 44.9699 21.941 45.2445 21.6664C47.7277 19.1831 47.7277 15.1427 45.2445 12.6595C44.5728 11.9879 44.2028 11.0948 44.2028 10.1448C44.2028 9.19492 44.5728 8.30195 45.2445 7.63019C45.7937 7.08105 45.7937 6.19061 45.2445 5.64147C44.6955 5.09233 43.8054 5.09233 43.2557 5.64147C42.0528 6.84438 41.3901 8.4437 41.3901 10.1448C41.3901 11.846 42.0528 13.4453 43.2557 14.6482C44.6424 16.0348 44.6424 18.2908 43.2558 19.6775Z" fill="#14AEAA"/>
<path d="M20.5676 19.6774C20.0184 20.2266 20.0184 21.117 20.5676 21.6663C20.8422 21.9409 21.2021 22.0782 21.5619 22.0782C21.9218 22.0782 22.2817 21.9409 22.5563 21.6663C25.0395 19.183 25.0395 15.1426 22.5563 12.6594C21.1697 11.2728 21.1697 9.01665 22.5563 7.63009C23.1054 7.08094 23.1054 6.19051 22.5563 5.64123C22.007 5.09208 21.1169 5.09208 20.5674 5.64123C18.0843 8.12438 18.0843 12.165 20.5674 14.6481C21.9541 16.0347 21.9541 18.2907 20.5676 19.6774Z" fill="#14AEAA"/>
<path d="M31.9118 19.6775C31.3627 20.2266 31.3627 21.1171 31.9118 21.6662C32.1865 21.9408 32.5462 22.0781 32.9062 22.0781C33.2662 22.0781 33.6259 21.9407 33.9005 21.6662C37.1045 18.4622 37.1045 13.2488 33.9005 10.0447C32.8796 9.02373 32.3174 7.66642 32.3174 6.22262C32.3174 4.77882 32.8796 3.42151 33.9005 2.40057C34.4497 1.85143 34.4497 0.960996 33.9005 0.411855C33.3514 -0.137285 32.4612 -0.137285 31.9117 0.411855C30.3596 1.96393 29.5049 4.02761 29.5049 6.22262C29.5049 8.41764 30.3596 10.4813 31.9117 12.0334C34.0192 14.1409 34.0192 17.5699 31.9118 19.6775Z" fill="#14AEAA"/>
<path d="M32.9062 25.5825C32.5364 25.5825 32.1736 25.7316 31.912 25.9931C31.6505 26.2561 31.5 26.6175 31.5 26.9888C31.5 27.3586 31.6503 27.7214 31.912 27.983C32.1736 28.2446 32.5364 28.395 32.9062 28.395C33.2761 28.395 33.6389 28.2446 33.9003 27.983C34.1619 27.7214 34.3125 27.3586 34.3125 26.9888C34.3125 26.6175 34.162 26.2561 33.9003 25.9931C33.6389 25.7316 33.2761 25.5825 32.9062 25.5825Z" fill="#14AEAA"/>
</g>
<defs>
<clipPath id="clip0">
<rect width="72" height="72" fill="white"/>
</clipPath>
</defs>
</svg>
