<svg width="72" height="72" viewBox="0 0 72 72" fill="none" xmlns="http://www.w3.org/2000/svg">
<path d="M50.9857 24.2664L50.2153 21.7308C49.2367 18.8505 46.1084 17.309 43.2281 18.2876C41.6078 18.8381 40.3354 20.1105 39.7849 21.7308L39.0145 24.2664C38.3662 26.4048 38.2301 28.6658 38.6173 30.8664C38.9704 32.7192 40.1467 34.311 41.8141 35.1924L40.9513 54.48C40.8358 55.5566 41.185 56.6313 41.9113 57.4344C43.4732 59.1429 46.1246 59.2617 47.8331 57.6998C47.9255 57.6153 48.014 57.5268 48.0985 57.4344C48.8086 56.6541 49.1572 55.6109 49.0585 54.5604L48.1909 35.19C49.856 34.3082 51.0304 32.7174 51.3829 30.8664C51.77 28.6658 51.634 26.4048 50.9857 24.2664ZM49.0189 30.4488C48.7591 31.7799 47.8105 32.8721 46.5289 33.3156C46.0424 33.4985 45.7291 33.9737 45.7525 34.4928L46.6645 54.75C46.7065 55.1474 46.5754 55.5435 46.3045 55.8372C45.5819 56.5526 44.4182 56.5526 43.6957 55.8372C43.4113 55.5198 43.2821 55.0926 43.3429 54.6708L44.2477 34.4928C44.2711 33.9737 43.9577 33.4985 43.4713 33.3156C42.1897 32.8721 41.2411 31.7799 40.9813 30.4488C40.6603 28.6218 40.7734 26.7449 41.3113 24.9696L42.0817 22.4328C42.6778 20.8211 44.4676 19.9977 46.0795 20.5938C46.9316 20.909 47.6033 21.5808 47.9185 22.4328L48.6889 24.9696C49.2262 26.745 49.3393 28.6218 49.0189 30.4488Z" fill="#14AEAA"/>
<path d="M32.3999 18C31.7372 18 31.1999 18.5373 31.1999 19.2V29.5032L27.9515 32.7516C27.7112 32.991 27.5834 33.3211 27.5999 33.66L28.6499 54.66C28.675 55.1129 28.5106 55.5558 28.1963 55.8828C27.5395 56.5455 26.4697 56.5503 25.8068 55.8933C25.8032 55.8899 25.7998 55.8863 25.7963 55.8828C25.4819 55.5558 25.3177 55.1129 25.3427 54.66L26.3999 33.66C26.4167 33.3213 26.2894 32.9913 26.0495 32.7516L22.7999 29.5032V19.2C22.7999 18.5373 22.2626 18 21.5999 18C20.9372 18 20.3999 18.5373 20.3999 19.2V30C20.3999 30.3183 20.5265 30.6234 20.7515 30.8484L23.9747 34.0728L22.9511 54.5436C22.8422 56.7797 24.5666 58.6808 26.8027 58.7896C29.0387 58.8986 30.9398 57.1742 31.0487 54.9381C31.0552 54.8067 31.0552 54.6752 31.0487 54.5438L30.0251 34.073L33.2483 30.8485C33.4733 30.6236 33.5999 30.3185 33.5999 30.0002V19.2002C33.5999 18.5373 33.0626 18 32.3999 18Z" fill="#14AEAA"/>
<path d="M25.2 18C24.5373 18 24 18.5373 24 19.2V28.8C24 29.4627 24.5373 30 25.2 30C25.8627 30 26.4 29.4627 26.4 28.8V19.2C26.4 18.5373 25.8627 18 25.2 18Z" fill="#14AEAA"/>
<path d="M28.8001 18C28.1374 18 27.6001 18.5373 27.6001 19.2V28.8C27.6001 29.4627 28.1374 30 28.8001 30C29.4628 30 30.0001 29.4627 30.0001 28.8V19.2C30.0001 18.5373 29.4628 18 28.8001 18Z" fill="#14AEAA"/>
<path d="M36 0C16.1178 0 0 16.1178 0 36C0 55.8822 16.1178 72 36 72C55.8822 72 72 55.8822 72 36C71.9775 16.1271 55.8729 0.0225 36 0ZM36 69.6C17.4432 69.6 2.4 54.5568 2.4 36C2.4 17.4432 17.4432 2.4 36 2.4C54.5568 2.4 69.6 17.4432 69.6 36C69.5788 54.548 54.548 69.5788 36 69.6Z" fill="#14AEAA"/>
<path d="M39.8951 58.5258C39.8308 57.8662 39.2438 57.3837 38.5841 57.448C38.5687 57.4495 38.5532 57.4513 38.5378 57.4534L38.5426 57.4522C36.8531 57.6484 35.1464 57.6484 33.457 57.4522C32.7985 57.375 32.2022 57.8461 32.125 58.5046C32.0477 59.1631 32.5189 59.7594 33.1774 59.8366C35.051 60.0555 36.9437 60.0555 38.8174 59.8366C39.4769 59.7724 39.9595 59.1855 39.8951 58.5258Z" fill="#14AEAA"/>
<path d="M54.3603 20.5368C53.9345 20.029 53.1776 19.9626 52.6698 20.3886C52.6682 20.3899 52.6665 20.3914 52.6647 20.3928C52.1582 20.82 52.0937 21.5769 52.5207 22.0836C59.756 30.6726 59.2025 43.3729 51.2475 51.3C50.778 51.7678 50.7767 52.5279 51.2445 52.9974C51.7124 53.4669 52.4724 53.4682 52.9419 53.0004C61.7825 44.1934 62.399 30.0811 54.3603 20.5368Z" fill="#14AEAA"/>
<path d="M27.9586 15.8616C27.9579 15.8616 27.9571 15.8615 27.9564 15.8615C27.9552 15.8615 27.954 15.8616 27.9526 15.8616H27.9586Z" fill="#14AEAA"/>
<path d="M41.6605 12.6708C36.9707 11.5469 32.0522 11.849 27.5352 13.5384C26.9148 13.7717 26.6012 14.4638 26.8344 15.084C27.0102 15.5515 27.4572 15.861 27.9566 15.8614C28.1001 15.8607 28.2423 15.8344 28.3764 15.7836C32.4441 14.2625 36.8734 13.9908 41.0965 15.0036C41.7407 15.1593 42.3892 14.7635 42.5449 14.1192C42.7006 13.475 42.3047 12.8265 41.6605 12.6708Z" fill="#14AEAA"/>
<path d="M20.6985 51.2401C16.6532 47.2016 14.3859 41.7163 14.3997 36.0001C14.3879 31.4332 15.8345 26.9818 18.5289 23.2945C18.9272 22.7647 18.8205 22.0124 18.2907 21.6142C17.7609 21.2159 17.0087 21.3226 16.6104 21.8524C16.6034 21.8618 16.5965 21.8713 16.5897 21.8809C9.65179 31.4191 10.6727 44.5847 18.9981 52.9393C19.4673 53.4088 20.2284 53.4091 20.6979 52.9399C21.1674 52.4707 21.1677 51.7096 20.6985 51.2401Z" fill="#14AEAA"/>
</svg>
