<svg width="72" height="72" viewBox="0 0 72 72" fill="none" xmlns="http://www.w3.org/2000/svg">
<path d="M69.75 30.375H58.5V27C58.5 26.3779 57.9971 25.875 57.375 25.875C55.6538 25.875 54.1294 26.6693 53.0966 27.891C52.821 27.7222 52.5319 27.5749 52.2214 27.4714L49.914 26.7007C48.9938 26.3947 48.375 25.5375 48.375 24.5677V23.625H60.75C61.9909 23.625 63 22.6159 63 21.375V3.375C63 2.13412 61.9909 1.125 60.75 1.125H29.25C28.0091 1.125 27 2.13412 27 3.375V21.375C27 22.6159 28.0091 23.625 29.25 23.625H41.625V24.5677C41.625 25.5375 41.0062 26.3948 40.086 26.7019L37.7786 27.4714C36.4106 27.927 35.406 29.0329 35.037 30.375H21.375V11.25C21.375 10.6279 20.8721 10.125 20.25 10.125H6.75C6.12787 10.125 5.625 10.6279 5.625 11.25V30.375H2.25C1.62788 30.375 1.125 30.8779 1.125 31.5V38.25V69.75C1.125 70.3721 1.62788 70.875 2.25 70.875H6.75C7.37213 70.875 7.875 70.3721 7.875 69.75V61.875H19.125V69.75C19.125 70.3721 19.6279 70.875 20.25 70.875H24.75C25.3721 70.875 25.875 70.3721 25.875 69.75V39.375H51.75V47.25H37.125C34.0234 47.25 31.5 49.7734 31.5 52.875V55.125C31.5 55.7471 32.0029 56.25 32.625 56.25H41.625V57.1027C41.625 59.7308 40.6462 62.2024 38.8789 64.125H37.125C35.2643 64.125 33.75 65.6393 33.75 67.5C33.75 69.3607 35.2643 70.875 37.125 70.875H52.875C54.7357 70.875 56.25 69.3607 56.25 67.5C56.25 65.6393 54.7357 64.125 52.875 64.125H51.1211C49.3538 62.2024 48.375 59.7308 48.375 57.1027V56.25H55.125C56.9857 56.25 58.5 54.7357 58.5 52.875V48.375V39.375H64.125V69.75C64.125 70.3721 64.6279 70.875 65.25 70.875H69.75C70.3721 70.875 70.875 70.3721 70.875 69.75V38.25V31.5C70.875 30.8779 70.3721 30.375 69.75 30.375ZM60.75 3.375L60.7511 16.875H29.25V3.375H60.75ZM29.25 19.125H60.7523V21.375H29.25V19.125ZM38.4907 29.6044L40.7981 28.836C42.6375 28.2229 43.875 26.5072 43.875 24.5677V23.625H46.125V24.5677C46.125 26.5084 47.3625 28.2229 49.2019 28.836L51.5093 29.6055C51.6926 29.6674 51.8647 29.754 52.0211 29.8643C51.9683 30.0352 51.8996 30.1984 51.8636 30.3761H37.4794C37.7201 30.024 38.0666 29.7461 38.4907 29.6044ZM19.125 23.625H7.875V19.125H19.125V23.625ZM19.125 12.375V16.875H7.875V12.375H19.125ZM7.875 25.875H19.125V30.375H7.875V25.875ZM5.625 68.625H3.375V39.375H5.625V68.625ZM19.125 39.375V48.375H7.875V39.375H19.125ZM7.875 59.625V50.625H19.125V59.625H7.875ZM23.625 68.625H21.375V39.375H23.625V68.625ZM24.75 37.125H20.25H6.75H3.375V32.625H51.75V37.125H24.75ZM54 31.5C54 30.033 54.9405 28.782 56.25 28.3174V47.25H54V31.5ZM54 67.5C54 68.121 53.496 68.625 52.875 68.625H37.125C36.504 68.625 36 68.121 36 67.5C36 66.879 36.504 66.375 37.125 66.375H52.875C53.496 66.375 54 66.879 54 67.5ZM48.2501 64.125H41.7499C43.1314 62.064 43.875 59.6408 43.875 57.1027V56.25H46.125V57.1027C46.125 59.6408 46.8686 62.064 48.2501 64.125ZM56.25 52.875C56.25 53.496 55.746 54 55.125 54H33.75V52.875C33.75 51.0143 35.2643 49.5 37.125 49.5H56.25V52.875ZM58.5 32.625H68.625V37.125H65.25H58.5V32.625ZM68.625 68.625H66.375V39.375H68.625V68.625Z" fill="#14AEAA"/>
<path d="M11.25 41.625H15.75V43.875H11.25V41.625Z" fill="#14AEAA"/>
<path d="M11.25 52.875H15.75V55.125H11.25V52.875Z" fill="#14AEAA"/>
</svg>
