<svg width="16" height="16" viewBox="0 0 16 16" fill="none" xmlns="http://www.w3.org/2000/svg">
<path d="M15.977 5.79566C15.9219 5.62595 15.7752 5.50226 15.5987 5.47663L10.6386 4.75586L8.42034 0.26128C8.3414 0.101281 8.17843 0 8.00003 0C7.82159 0 7.65865 0.101281 7.57968 0.26128L5.36132 4.75586L0.401338 5.47663C0.224808 5.50226 0.0780893 5.62595 0.0229645 5.79563C-0.0321915 5.96535 0.0138083 6.15163 0.141589 6.27616L3.73057 9.77471L2.88345 14.7148C2.85327 14.8907 2.92558 15.0683 3.06992 15.1733C3.15158 15.2326 3.2483 15.2628 3.34548 15.2628C3.42011 15.2628 3.49498 15.245 3.56354 15.2089L8 12.8765L12.4363 15.2089C12.5942 15.2919 12.7856 15.2781 12.9299 15.1732C13.0743 15.0683 13.1466 14.8906 13.1164 14.7147L12.269 9.77471L15.8584 6.27613C15.9862 6.15163 16.0322 5.96535 15.977 5.79566Z" fill="#14AEAA"/>
</svg>
