<svg width="72" height="72" viewBox="0 0 72 72" fill="none" xmlns="http://www.w3.org/2000/svg">
<path d="M70.8 64.8H63.6V39.4632C63.9942 39.5501 64.3964 39.596 64.8 39.6C68.112 39.5961 70.7961 36.912 70.8 33.6C70.8 33.5124 70.7904 33.4251 70.7712 33.3396L68.3712 22.5396C68.2491 21.9906 67.7624 21.6002 67.2 21.6H63.6V18C63.6 17.3373 63.0627 16.8 62.4 16.8H52.8V14.4H55.2C55.8627 14.4 56.4 13.8627 56.4 13.2V1.2C56.4 0.5373 55.8627 0 55.2 0H16.8C16.1373 0 15.6 0.5373 15.6 1.2V13.2C15.6 13.8627 16.1373 14.4 16.8 14.4H19.2V16.8H9.6C8.9373 16.8 8.4 17.3373 8.4 18V21.6H4.8C4.23765 21.6002 3.75075 21.9906 3.6288 22.5396L1.2288 33.3396C1.2096 33.4251 1.2 33.5124 1.2 33.6C1.2039 36.912 3.888 39.5961 7.2 39.6C7.60365 39.596 8.0058 39.5501 8.4 39.4632V64.8H1.2C0.5373 64.8 0 65.3373 0 66V70.8C0 71.4627 0.5373 72 1.2 72H70.8C71.4627 72 72 71.4627 72 70.8V66C72 65.3373 71.4627 64.8 70.8 64.8ZM66.24 24L68.4 33.72C68.3352 35.6612 66.7424 37.201 64.8 37.2C64.1673 37.1999 63.546 37.0313 63 36.7116C62.1599 36.2229 61.5519 35.4168 61.3128 34.4748C61.2345 34.19 61.1966 33.8955 61.2 33.6C61.2 33.5559 61.1976 33.5118 61.1928 33.468L60.1404 24H66.24ZM55.2 45.6H43.2C42.5373 45.6 42 46.1373 42 46.8V64.8H10.8V38.3568C11.2538 38.0219 11.6577 37.6244 12 37.176C13.9572 39.827 17.6928 40.3895 20.3438 38.4323C20.8229 38.0786 21.2463 37.6551 21.6 37.176C23.5572 39.827 27.2928 40.3895 29.9438 38.4323C30.4229 38.0786 30.8463 37.6551 31.2 37.176C33.1572 39.827 36.8928 40.3895 39.5438 38.4323C40.0229 38.0786 40.4463 37.6551 40.8 37.176C42.7572 39.827 46.4928 40.3895 49.1438 38.4323C49.6229 38.0786 50.0463 37.6551 50.4 37.176C52.3583 39.827 56.0948 40.3885 58.7457 38.4303C59.2239 38.077 59.6468 37.6542 60 37.176C60.3422 37.6233 60.7463 38.0198 61.2 38.3532V64.8H56.4V46.8C56.4 46.1373 55.8627 45.6 55.2 45.6ZM54 48V64.8H44.4V48H54ZM13.2 33.6624L14.28 24H21.4656L20.4132 33.468C20.4063 33.5118 20.402 33.5558 20.4 33.6C20.4029 33.9054 20.3624 34.2096 20.28 34.5036C19.7731 36.4262 17.8038 37.5738 15.8813 37.067C14.6172 36.7338 13.6332 35.7416 13.3104 34.4748C13.238 34.2101 13.2009 33.9369 13.2 33.6624ZM22.8 33.6624L23.88 24H30V33.6C30.0029 33.9054 29.9624 34.2096 29.88 34.5036C29.3731 36.4262 27.4038 37.5738 25.4813 37.067C24.2172 36.7338 23.2332 35.7416 22.9104 34.4748C22.8379 34.2101 22.8009 33.9369 22.8 33.6624ZM32.4 33.6V24H39.6V33.6C39.6029 33.9054 39.5624 34.2096 39.48 34.5036C38.9732 36.4262 37.0038 37.5738 35.0813 37.067C33.8172 36.7338 32.8332 35.7416 32.5104 34.4748C32.4328 34.1898 32.3958 33.8954 32.4 33.6ZM42 33.6V24H48.12L49.2 33.6624C49.1969 33.9465 49.1565 34.2288 49.08 34.5024C48.5732 36.425 46.6038 37.5726 44.6813 37.0658C43.4172 36.7326 42.4332 35.7404 42.1104 34.4736C42.033 34.1891 41.9958 33.8949 42 33.6ZM50.5404 24H57.726L58.806 33.6624C58.8029 33.9465 58.7625 34.2288 58.686 34.5024C58.1791 36.425 56.2098 37.5726 54.2873 37.0658C53.0232 36.7326 52.0392 35.7404 51.7164 34.4736C51.6371 34.1892 51.5978 33.8952 51.6 33.6C51.6 33.5559 51.5976 33.5118 51.5928 33.468L50.5404 24ZM18 12V2.4H54V12H18ZM50.4 14.4V16.8H21.6V14.4H50.4ZM10.8 19.2H61.2V21.6H10.8V19.2ZM7.2 37.2C5.25765 37.201 3.6648 35.6612 3.6 33.72L5.76 24H11.8572L10.8048 33.468C10.8007 33.512 10.7993 33.5559 10.8 33.6C10.8024 33.9045 10.7619 34.208 10.68 34.5012C10.4381 35.433 9.83295 36.2291 9 36.7116C8.454 37.0313 7.8327 37.1999 7.2 37.2ZM69.6 69.6H2.4V67.2H69.6V69.6Z" fill="#14AEAA"/>
<path d="M36.0001 45.6H16.8001C16.1374 45.6 15.6001 46.1373 15.6001 46.8V58.8C15.6001 59.4627 16.1374 60 16.8001 60H36.0001C36.6628 60 37.2001 59.4627 37.2001 58.8V46.8C37.2001 46.1373 36.6628 45.6 36.0001 45.6ZM34.8001 57.6H18.0001V48H34.8001V57.6Z" fill="#14AEAA"/>
</svg>
