<?xml version="1.0" encoding="utf-8"?>
<!-- Generator: Adobe Illustrator 22.1.0, SVG Export Plug-In . SVG Version: 6.00 Build 0)  -->
<svg version="1.1" id="Слой_1" xmlns="http://www.w3.org/2000/svg" xmlns:xlink="http://www.w3.org/1999/xlink" x="0px" y="0px"
	 viewBox="0 0 329 50.2" style="enable-background:new 0 0 329 50.2;" xml:space="preserve">
<style type="text/css">
	.st0{fill:#FECE76;}
	.st1{fill:#FFFFFF;}
</style>
<rect y="20" class="st0" width="10" height="10"/>
<rect x="20" class="st0" width="10" height="10"/>
<rect class="st0" width="10" height="10"/>
<rect x="20" y="20" class="st0" width="10" height="10"/>
<rect y="40" class="st0" width="10" height="10"/>
<rect x="40" y="40" class="st0" width="10" height="10"/>
<rect x="40" class="st0" width="10" height="10"/>
<rect x="20" y="40" class="st0" width="10" height="10"/>
<rect x="40" y="20" class="st0" width="10" height="10"/>
<path class="st1" d="M86.7,31.6v18.1H74.2V1H97c7.4,0,12.9,1.4,16.7,4.1c3.7,2.8,5.6,6.5,5.6,11.3c0,4.6-1.9,8.4-5.8,11.1
	c-3.9,2.8-9.4,4.1-16.5,4.1H86.7z M106.7,16.4c0-2.4-0.9-4.3-2.6-5.6c-1.7-1.3-4.5-1.9-8.4-1.9h-8.9v15h8.9
	C103,23.8,106.7,21.4,106.7,16.4z"/>
<polygon class="st0" points="169,1.6 154.7,1.6 131.7,49.7 144.9,49.7 149.3,39.9 152.6,32.5 161.8,12 171,32.5 174.4,39.9 
	178.7,49.7 191.9,49.7 "/>
<path class="st1" d="M259.3,1v48.7h-12.6V28.5H220v21.2h-12.5V1H220v19.7h26.7V1H259.3z"/>
<path class="st1" d="M291.5,1v28.6c0,3.8,1.1,6.7,3.2,8.6c2.2,1.9,5.3,2.9,9.3,2.9c4,0,7.1-1,9.3-2.9c2.2-1.9,3.2-4.8,3.2-8.6V1H329
	v28.6c0,4.5-1.1,8.3-3.2,11.4c-2.2,3.1-5.1,5.4-8.9,6.9c-3.8,1.5-8.1,2.3-13,2.3c-7.5,0-13.5-1.7-18-5.2c-4.5-3.5-6.7-8.6-6.7-15.4
	V1H291.5z"/>
<rect y="20" class="st0" width="10" height="10"/>
</svg>
