<svg width="72" height="72" viewBox="0 0 72 72" fill="none" xmlns="http://www.w3.org/2000/svg">
<path d="M35.9999 0C16.1177 0 0 16.1177 0 35.9999C0 55.8821 16.1177 71.9998 35.9999 71.9998C55.8821 71.9998 71.9998 55.8821 71.9998 35.9999C71.9788 16.1266 55.8734 0.0212444 35.9999 0ZM55.8179 24.9608L30.1036 50.6751C29.0994 51.679 27.4717 51.679 26.4677 50.6751L16.1819 40.3894C15.1604 39.4028 15.132 37.775 16.1186 36.7534C17.1052 35.7319 18.733 35.7036 19.7546 36.6901C19.776 36.7109 19.7971 36.7319 19.8179 36.7534L28.2856 45.2212L52.182 21.3249C53.2035 20.3383 54.8314 20.3666 55.8179 21.388C56.7804 22.3845 56.7804 23.9643 55.8179 24.9608Z" fill="#14AEAA"/>
</svg>
